{
    "asset" : {
        "generator" : "Khronos glTF Blender I/O v0.9.36",
        "version" : "2.0"
    },
    "scene" : 0,
    "scenes" : [
        {
            "name" : "Scene",
            "nodes" : [
                0,
                1,
                2
            ]
        }
    ],
    "nodes" : [
        {
            "mesh" : 0,
            "name" : "lower.md3",
            "rotation" : [
                0.7071068286895752,
                0,
                0,
                0.7071067094802856
            ],
            "scale" : [
                0.10000000149011612,
                0.10000000149011612,
                0.10000000149011612
            ],
            "translation" : [
                0,
                2.4000000953674316,
                0
            ]
        },
        {
            "mesh" : 1,
            "name" : "upper.md3",
            "rotation" : [
                0.46511784195899963,
                -0.39547106623649597,
                -0.5218141674995422,
                0.5958002805709839
            ],
            "scale" : [
                0.10000000149011612,
                0.10000000149011612,
                0.10000000149011612
            ],
            "translation" : [
                0.5165585279464722,
                3.058764934539795,
                0.04304005578160286
            ]
        },
        {
            "mesh" : 2,
            "name" : "head.md3",
            "rotation" : [
                0.6028401255607605,
                -0.2386500984430313,
                -0.29708656668663025,
                0.7009775042533875
            ],
            "scale" : [
                0.10000000149011612,
                0.10000000149011612,
                0.10000000149011612
            ],
            "translation" : [
                2.1416213512420654,
                4.851588249206543,
                -0.5937309861183167
            ]
        }
    ],
    "materials" : [
        {
            "doubleSided" : true,
            "name" : "MD3_[default][l_legs]",
            "pbrMetallicRoughness" : {
                "baseColorTexture" : {
                    "index" : 0,
                    "texCoord" : 0
                },
                "metallicFactor" : 0,
                "roughnessFactor" : 1
            }
        },
        {
            "doubleSided" : true,
            "name" : "MD3_[default][u_torso]",
            "pbrMetallicRoughness" : {
                "baseColorTexture" : {
                    "index" : 1,
                    "texCoord" : 0
                },
                "metallicFactor" : 0,
                "roughnessFactor" : 1
            }
        },
        {
            "doubleSided" : true,
            "name" : "MD3_[default][h_head]",
            "pbrMetallicRoughness" : {
                "baseColorTexture" : {
                    "index" : 2,
                    "texCoord" : 0
                },
                "metallicFactor" : 0,
                "roughnessFactor" : 1
            }
        }
    ],
    "meshes" : [
        {
            "name" : "lower.md3",
            "primitives" : [
                {
                    "attributes" : {
                        "POSITION" : 0,
                        "NORMAL" : 1,
                        "TEXCOORD_0" : 2
                    },
                    "indices" : 3,
                    "material" : 0
                }
            ]
        },
        {
            "name" : "upper.md3",
            "primitives" : [
                {
                    "attributes" : {
                        "POSITION" : 4,
                        "NORMAL" : 5,
                        "TEXCOORD_0" : 6
                    },
                    "indices" : 7,
                    "material" : 1
                }
            ]
        },
        {
            "name" : "head.md3",
            "primitives" : [
                {
                    "attributes" : {
                        "POSITION" : 8,
                        "NORMAL" : 9,
                        "TEXCOORD_0" : 10
                    },
                    "indices" : 11,
                    "material" : 2
                }
            ]
        }
    ],
    "textures" : [
        {
            "source" : 0
        },
        {
            "source" : 0
        },
        {
            "source" : 1
        }
    ],
    "images" : [
        {
            "bufferView" : 4,
            "mimeType" : "image/jpeg",
            "name" : "eminem_blue"
        },
        {
            "bufferView" : 13,
            "mimeType" : "image/jpeg",
            "name" : "eminem_head"
        }
    ],
    "accessors" : [
        {
            "bufferView" : 0,
            "componentType" : 5126,
            "count" : 642,
            "max" : [
                17.984399795532227,
                15.984399795532227,
                23.875
            ],
            "min" : [
                -5.90625,
                -10.515600204467773,
                -7.28125
            ],
            "type" : "VEC3"
        },
        {
            "bufferView" : 1,
            "componentType" : 5126,
            "count" : 642,
            "type" : "VEC3"
        },
        {
            "bufferView" : 2,
            "componentType" : 5126,
            "count" : 642,
            "type" : "VEC2"
        },
        {
            "bufferView" : 3,
            "componentType" : 5123,
            "count" : 642,
            "type" : "SCALAR"
        },
        {
            "bufferView" : 5,
            "componentType" : 5126,
            "count" : 954,
            "max" : [
                14.281200408935547,
                21.703100204467773,
                4.640620231628418
            ],
            "min" : [
                -16.781200408935547,
                -16.421899795532227,
                -21.359399795532227
            ],
            "type" : "VEC3"
        },
        {
            "bufferView" : 6,
            "componentType" : 5126,
            "count" : 954,
            "type" : "VEC3"
        },
        {
            "bufferView" : 7,
            "componentType" : 5126,
            "count" : 954,
            "type" : "VEC2"
        },
        {
            "bufferView" : 8,
            "componentType" : 5123,
            "count" : 954,
            "type" : "SCALAR"
        },
        {
            "bufferView" : 9,
            "componentType" : 5126,
            "count" : 726,
            "max" : [
                5.796879768371582,
                2.890619993209839,
                0.78125
            ],
            "min" : [
                -1.53125,
                -2.5625,
                -7.90625
            ],
            "type" : "VEC3"
        },
        {
            "bufferView" : 10,
            "componentType" : 5126,
            "count" : 726,
            "type" : "VEC3"
        },
        {
            "bufferView" : 11,
            "componentType" : 5126,
            "count" : 726,
            "type" : "VEC2"
        },
        {
            "bufferView" : 12,
            "componentType" : 5123,
            "count" : 726,
            "type" : "SCALAR"
        }
    ],
    "bufferViews" : [
        {
            "buffer" : 0,
            "byteLength" : 7704,
            "byteOffset" : 0
        },
        {
            "buffer" : 0,
            "byteLength" : 7704,
            "byteOffset" : 7704
        },
        {
            "buffer" : 0,
            "byteLength" : 5136,
            "byteOffset" : 15408
        },
        {
            "buffer" : 0,
            "byteLength" : 1284,
            "byteOffset" : 20544
        },
        {
            "buffer" : 0,
            "byteLength" : 24704,
            "byteOffset" : 21828
        },
        {
            "buffer" : 0,
            "byteLength" : 11448,
            "byteOffset" : 46532
        },
        {
            "buffer" : 0,
            "byteLength" : 11448,
            "byteOffset" : 57980
        },
        {
            "buffer" : 0,
            "byteLength" : 7632,
            "byteOffset" : 69428
        },
        {
            "buffer" : 0,
            "byteLength" : 1908,
            "byteOffset" : 77060
        },
        {
            "buffer" : 0,
            "byteLength" : 8712,
            "byteOffset" : 78968
        },
        {
            "buffer" : 0,
            "byteLength" : 8712,
            "byteOffset" : 87680
        },
        {
            "buffer" : 0,
            "byteLength" : 5808,
            "byteOffset" : 96392
        },
        {
            "buffer" : 0,
            "byteLength" : 1452,
            "byteOffset" : 102200
        },
        {
            "buffer" : 0,
            "byteLength" : 16040,
            "byteOffset" : 103652
        }
    ],
    "buffers" : [
        {
            "byteLength" : 119692,
            "uri" : "data:application/octet-stream;base64,"
        }
    ]
}
