{
    "asset" : {
        "generator" : "Khronos glTF Blender I/O v0.9.36",
        "version" : "2.0"
    },
    "scene" : 0,
    "scenes" : [
        {
            "name" : "Scene",
            "nodes" : [
                0
            ]
        }
    ],
    "nodes" : [
        {
            "mesh" : 0,
            "name" : "upper.md3",
            "rotation" : [
                0.46511784195899963,
                -0.39547106623649597,
                -0.5218141674995422,
                0.5958002805709839
            ],
            "scale" : [
                0.10000000149011612,
                0.10000000149011612,
                0.10000000149011612
            ],
            "translation" : [
                0.5165585279464722,
                3.058764934539795,
                0.04304005578160286
            ]
        }
    ],
    "materials" : [
        {
            "doubleSided" : true,
            "name" : "MD3_[default][u_torso]",
            "pbrMetallicRoughness" : {
                "baseColorTexture" : {
                    "index" : 0,
                    "texCoord" : 0
                },
                "metallicFactor" : 0,
                "roughnessFactor" : 1
            }
        },
        {
            "doubleSided" : true,
            "name" : "MD3_[default][l_legs]",
            "pbrMetallicRoughness" : {
                "baseColorTexture" : {
                    "index" : 1,
                    "texCoord" : 0
                },
                "metallicFactor" : 0,
                "roughnessFactor" : 1
            }
        },
        {
            "doubleSided" : true,
            "name" : "MD3_[default][h_head]",
            "pbrMetallicRoughness" : {
                "baseColorTexture" : {
                    "index" : 2,
                    "texCoord" : 0
                },
                "metallicFactor" : 0,
                "roughnessFactor" : 1
            }
        }
    ],
    "meshes" : [
        {
            "name" : "upper.md3",
            "primitives" : [
                {
                    "attributes" : {
                        "POSITION" : 0,
                        "NORMAL" : 1,
                        "TEXCOORD_0" : 2,
                        "TEXCOORD_1" : 3,
                        "TEXCOORD_2" : 4
                    },
                    "indices" : 5,
                    "material" : 0
                },
                {
                    "attributes" : {
                        "POSITION" : 6,
                        "NORMAL" : 7,
                        "TEXCOORD_0" : 8,
                        "TEXCOORD_1" : 9,
                        "TEXCOORD_2" : 10
                    },
                    "indices" : 11,
                    "material" : 1
                },
                {
                    "attributes" : {
                        "POSITION" : 12,
                        "NORMAL" : 13,
                        "TEXCOORD_0" : 14,
                        "TEXCOORD_1" : 15,
                        "TEXCOORD_2" : 16
                    },
                    "indices" : 17,
                    "material" : 2
                }
            ]
        }
    ],
    "textures" : [
        {
            "source" : 0
        },
        {
            "source" : 0
        },
        {
            "source" : 1
        }
    ],
    "images" : [
        {
            "bufferView" : 6,
            "mimeType" : "image/jpeg",
            "name" : "eminem_blue"
        },
        {
            "bufferView" : 19,
            "mimeType" : "image/jpeg",
            "name" : "eminem_head"
        }
    ],
    "accessors" : [
        {
            "bufferView" : 0,
            "componentType" : 5126,
            "count" : 954,
            "max" : [
                14.281200408935547,
                21.703100204467773,
                4.640620231628418
            ],
            "min" : [
                -16.781200408935547,
                -16.421899795532227,
                -21.359399795532227
            ],
            "type" : "VEC3"
        },
        {
            "bufferView" : 1,
            "componentType" : 5126,
            "count" : 954,
            "type" : "VEC3"
        },
        {
            "bufferView" : 2,
            "componentType" : 5126,
            "count" : 954,
            "type" : "VEC2"
        },
        {
            "bufferView" : 3,
            "componentType" : 5126,
            "count" : 954,
            "type" : "VEC2"
        },
        {
            "bufferView" : 4,
            "componentType" : 5126,
            "count" : 954,
            "type" : "VEC2"
        },
        {
            "bufferView" : 5,
            "componentType" : 5123,
            "count" : 954,
            "type" : "SCALAR"
        },
        {
            "bufferView" : 7,
            "componentType" : 5126,
            "count" : 642,
            "max" : [
                30.393314361572266,
                16.52188491821289,
                13.294343948364258
            ],
            "min" : [
                -1.1323456764221191,
                -11.555800437927246,
                -5.6148834228515625
            ],
            "type" : "VEC3"
        },
        {
            "bufferView" : 8,
            "componentType" : 5126,
            "count" : 642,
            "type" : "VEC3"
        },
        {
            "bufferView" : 9,
            "componentType" : 5126,
            "count" : 642,
            "type" : "VEC2"
        },
        {
            "bufferView" : 10,
            "componentType" : 5126,
            "count" : 642,
            "type" : "VEC2"
        },
        {
            "bufferView" : 11,
            "componentType" : 5126,
            "count" : 642,
            "type" : "VEC2"
        },
        {
            "bufferView" : 12,
            "componentType" : 5123,
            "count" : 642,
            "type" : "SCALAR"
        },
        {
            "bufferView" : 13,
            "componentType" : 5126,
            "count" : 726,
            "max" : [
                -11.36787223815918,
                1.767401099205017,
                -19.97608757019043
            ],
            "min" : [
                -19.839466094970703,
                -3.8288931846618652,
                -27.96709442138672
            ],
            "type" : "VEC3"
        },
        {
            "bufferView" : 14,
            "componentType" : 5126,
            "count" : 726,
            "type" : "VEC3"
        },
        {
            "bufferView" : 15,
            "componentType" : 5126,
            "count" : 726,
            "type" : "VEC2"
        },
        {
            "bufferView" : 16,
            "componentType" : 5126,
            "count" : 726,
            "type" : "VEC2"
        },
        {
            "bufferView" : 17,
            "componentType" : 5126,
            "count" : 726,
            "type" : "VEC2"
        },
        {
            "bufferView" : 18,
            "componentType" : 5123,
            "count" : 726,
            "type" : "SCALAR"
        }
    ],
    "bufferViews" : [
        {
            "buffer" : 0,
            "byteLength" : 11448,
            "byteOffset" : 0
        },
        {
            "buffer" : 0,
            "byteLength" : 11448,
            "byteOffset" : 11448
        },
        {
            "buffer" : 0,
            "byteLength" : 7632,
            "byteOffset" : 22896
        },
        {
            "buffer" : 0,
            "byteLength" : 7632,
            "byteOffset" : 30528
        },
        {
            "buffer" : 0,
            "byteLength" : 7632,
            "byteOffset" : 38160
        },
        {
            "buffer" : 0,
            "byteLength" : 1908,
            "byteOffset" : 45792
        },
        {
            "buffer" : 0,
            "byteLength" : 24704,
            "byteOffset" : 47700
        },
        {
            "buffer" : 0,
            "byteLength" : 7704,
            "byteOffset" : 72404
        },
        {
            "buffer" : 0,
            "byteLength" : 7704,
            "byteOffset" : 80108
        },
        {
            "buffer" : 0,
            "byteLength" : 5136,
            "byteOffset" : 87812
        },
        {
            "buffer" : 0,
            "byteLength" : 5136,
            "byteOffset" : 92948
        },
        {
            "buffer" : 0,
            "byteLength" : 5136,
            "byteOffset" : 98084
        },
        {
            "buffer" : 0,
            "byteLength" : 1284,
            "byteOffset" : 103220
        },
        {
            "buffer" : 0,
            "byteLength" : 8712,
            "byteOffset" : 104504
        },
        {
            "buffer" : 0,
            "byteLength" : 8712,
            "byteOffset" : 113216
        },
        {
            "buffer" : 0,
            "byteLength" : 5808,
            "byteOffset" : 121928
        },
        {
            "buffer" : 0,
            "byteLength" : 5808,
            "byteOffset" : 127736
        },
        {
            "buffer" : 0,
            "byteLength" : 5808,
            "byteOffset" : 133544
        },
        {
            "buffer" : 0,
            "byteLength" : 1452,
            "byteOffset" : 139352
        },
        {
            "buffer" : 0,
            "byteLength" : 16040,
            "byteOffset" : 140804
        }
    ],
    "buffers" : [
        {
            "byteLength" : 156844,
            "uri" : "data:application/octet-stream;base64,"
        }
    ]
}
