{
    "asset" : {
        "generator" : "Khronos glTF Blender I/O v0.9.36",
        "version" : "2.0"
    },
    "scene" : 0,
    "scenes" : [
        {
            "name" : "Scene",
            "nodes" : [
                0,
                1,
                2,
                3
            ]
        }
    ],
    "nodes" : [
        {
            "mesh" : 0,
            "name" : "lower.md3",
            "rotation" : [
                0.7071068286895752,
                0,
                0,
                0.7071067094802856
            ],
            "scale" : [
                0.10000000149011612,
                0.10000000149011612,
                0.10000000149011612
            ]
        },
        {
            "mesh" : 1,
            "name" : "upper.md3",
            "rotation" : [
                0.46511784195899963,
                -0.39547106623649597,
                -0.5218141674995422,
                0.5958002805709839
            ],
            "scale" : [
                0.10000000149011612,
                0.10000000149011612,
                0.10000000149011612
            ]
        },
        {
            "mesh" : 2,
            "name" : "head.md3",
            "rotation" : [
                0.6028401255607605,
                -0.2386500984430313,
                -0.29708656668663025,
                0.7009775042533875
            ],
            "scale" : [
                0.10000000149011612,
                0.10000000149011612,
                0.10000000149011612
            ]
        },
        {
            "mesh" : 3,
            "name" : "lightning.md3",
            "rotation" : [
                0.2994648814201355,
                -0.33475175499916077,
                -0.1876298040151596,
                0.8735314011573792
            ],
            "scale" : [
                0.10000000149011612,
                0.10000000149011612,
                0.10000000149011612
            ],
            "translation" : [
                1.3334734439849854,
                0.15627817809581757,
                1.5506685972213745
            ]
        }
    ],
    "materials" : [
        {
            "doubleSided" : true,
            "name" : "MD3_[default][l_legs]",
            "pbrMetallicRoughness" : {
                "baseColorTexture" : {
                    "index" : 0,
                    "texCoord" : 0
                },
                "metallicFactor" : 0,
                "roughnessFactor" : 1
            }
        },
        {
            "doubleSided" : true,
            "name" : "MD3_[default][u_torso]",
            "pbrMetallicRoughness" : {
                "baseColorTexture" : {
                    "index" : 1,
                    "texCoord" : 0
                },
                "metallicFactor" : 0,
                "roughnessFactor" : 1
            }
        },
        {
            "doubleSided" : true,
            "name" : "MD3_[default][h_head]",
            "pbrMetallicRoughness" : {
                "baseColorTexture" : {
                    "index" : 2,
                    "texCoord" : 0
                },
                "metallicFactor" : 0,
                "roughnessFactor" : 1
            }
        },
        {
            "doubleSided" : true,
            "name" : "MD3_[default][w_button]",
            "pbrMetallicRoughness" : {
                "baseColorTexture" : {
                    "index" : 3,
                    "texCoord" : 0
                },
                "metallicFactor" : 0,
                "roughnessFactor" : 0
            }
        },
        {
            "doubleSided" : true,
            "name" : "MD3_[default][w_lightning03]",
            "pbrMetallicRoughness" : {
                "baseColorTexture" : {
                    "index" : 4,
                    "texCoord" : 0
                },
                "metallicFactor" : 0,
                "roughnessFactor" : 1
            }
        },
        {
            "doubleSided" : true,
            "name" : "MD3_[default][w_lightning02]",
            "pbrMetallicRoughness" : {
                "baseColorTexture" : {
                    "index" : 5,
                    "texCoord" : 0
                },
                "metallicFactor" : 0,
                "roughnessFactor" : 1
            }
        },
        {
            "doubleSided" : true,
            "name" : "MD3_[default][w_lightning01]",
            "pbrMetallicRoughness" : {
                "baseColorTexture" : {
                    "index" : 6,
                    "texCoord" : 0
                },
                "metallicFactor" : 0,
                "roughnessFactor" : 1
            }
        }
    ],
    "meshes" : [
        {
            "name" : "lower.md3",
            "primitives" : [
                {
                    "attributes" : {
                        "POSITION" : 0,
                        "NORMAL" : 1,
                        "TEXCOORD_0" : 2
                    },
                    "indices" : 3,
                    "material" : 0
                }
            ]
        },
        {
            "name" : "upper.md3",
            "primitives" : [
                {
                    "attributes" : {
                        "POSITION" : 4,
                        "NORMAL" : 5,
                        "TEXCOORD_0" : 6
                    },
                    "indices" : 7,
                    "material" : 1
                }
            ]
        },
        {
            "name" : "head.md3",
            "primitives" : [
                {
                    "attributes" : {
                        "POSITION" : 8,
                        "NORMAL" : 9,
                        "TEXCOORD_0" : 10
                    },
                    "indices" : 11,
                    "material" : 2
                }
            ]
        },
        {
            "name" : "lightning.md3",
            "primitives" : [
                {
                    "attributes" : {
                        "POSITION" : 12,
                        "NORMAL" : 13,
                        "TEXCOORD_0" : 14
                    },
                    "indices" : 15,
                    "material" : 3
                },
                {
                    "attributes" : {
                        "POSITION" : 16,
                        "NORMAL" : 17,
                        "TEXCOORD_0" : 18
                    },
                    "indices" : 19,
                    "material" : 4
                },
                {
                    "attributes" : {
                        "POSITION" : 20,
                        "NORMAL" : 21,
                        "TEXCOORD_0" : 22
                    },
                    "indices" : 23,
                    "material" : 5
                },
                {
                    "attributes" : {
                        "POSITION" : 24,
                        "NORMAL" : 25,
                        "TEXCOORD_0" : 26
                    },
                    "indices" : 27,
                    "material" : 6
                }
            ]
        }
    ],
    "textures" : [
        {
            "source" : 0
        },
        {
            "source" : 0
        },
        {
            "source" : 1
        },
        {
            "source" : 2
        },
        {
            "source" : 3
        },
        {
            "source" : 4
        },
        {
            "source" : 4
        }
    ],
    "images" : [
        {
            "bufferView" : 4,
            "mimeType" : "image/jpeg",
            "name" : "eminem_blue"
        },
        {
            "bufferView" : 13,
            "mimeType" : "image/jpeg",
            "name" : "eminem_head"
        },
        {
            "bufferView" : 18,
            "mimeType" : "image/jpeg",
            "name" : "button"
        },
        {
            "bufferView" : 23,
            "mimeType" : "image/jpeg",
            "name" : "glass"
        },
        {
            "bufferView" : 28,
            "mimeType" : "image/jpeg",
            "name" : "lightning2"
        }
    ],
    "accessors" : [
        {
            "bufferView" : 0,
            "componentType" : 5126,
            "count" : 642,
            "max" : [
                4.34596061706543,
                15.764039993286133,
                31.1625919342041
            ],
            "min" : [
                -19.544689178466797,
                -10.735960006713867,
                0.0063419342041015625
            ],
            "type" : "VEC3"
        },
        {
            "bufferView" : 1,
            "componentType" : 5126,
            "count" : 642,
            "type" : "VEC3"
        },
        {
            "bufferView" : 2,
            "componentType" : 5126,
            "count" : 642,
            "type" : "VEC2"
        },
        {
            "bufferView" : 3,
            "componentType" : 5123,
            "count" : 642,
            "type" : "SCALAR"
        },
        {
            "bufferView" : 5,
            "componentType" : 5126,
            "count" : 954,
            "max" : [
                13.762491226196289,
                19.738910675048828,
                12.89871883392334
            ],
            "min" : [
                -17.299909591674805,
                -18.386089324951172,
                -13.101301193237305
            ],
            "type" : "VEC3"
        },
        {
            "bufferView" : 6,
            "componentType" : 5126,
            "count" : 954,
            "type" : "VEC3"
        },
        {
            "bufferView" : 7,
            "componentType" : 5126,
            "count" : 954,
            "type" : "VEC2"
        },
        {
            "bufferView" : 8,
            "componentType" : 5123,
            "count" : 954,
            "type" : "SCALAR"
        },
        {
            "bufferView" : 9,
            "componentType" : 5126,
            "count" : 726,
            "max" : [
                -0.6716334819793701,
                -0.5201475620269775,
                -17.70522117614746
            ],
            "min" : [
                -7.999763488769531,
                -5.973267555236816,
                -26.39272117614746
            ],
            "type" : "VEC3"
        },
        {
            "bufferView" : 10,
            "componentType" : 5126,
            "count" : 726,
            "type" : "VEC3"
        },
        {
            "bufferView" : 11,
            "componentType" : 5126,
            "count" : 726,
            "type" : "VEC2"
        },
        {
            "bufferView" : 12,
            "componentType" : 5123,
            "count" : 726,
            "type" : "SCALAR"
        },
        {
            "bufferView" : 14,
            "componentType" : 5126,
            "count" : 30,
            "max" : [
                12.875,
                0.90625,
                -4.859379768371582
            ],
            "min" : [
                12.359399795532227,
                0.140625,
                -5.9375
            ],
            "type" : "VEC3"
        },
        {
            "bufferView" : 15,
            "componentType" : 5126,
            "count" : 30,
            "type" : "VEC3"
        },
        {
            "bufferView" : 16,
            "componentType" : 5126,
            "count" : 30,
            "type" : "VEC2"
        },
        {
            "bufferView" : 17,
            "componentType" : 5123,
            "count" : 30,
            "type" : "SCALAR"
        },
        {
            "bufferView" : 19,
            "componentType" : 5126,
            "count" : 18,
            "max" : [
                11.218799591064453,
                2.46875,
                -2.546880006790161
            ],
            "min" : [
                3.25,
                -1.5,
                -5.515620231628418
            ],
            "type" : "VEC3"
        },
        {
            "bufferView" : 20,
            "componentType" : 5126,
            "count" : 18,
            "type" : "VEC3"
        },
        {
            "bufferView" : 21,
            "componentType" : 5126,
            "count" : 18,
            "type" : "VEC2"
        },
        {
            "bufferView" : 22,
            "componentType" : 5123,
            "count" : 18,
            "type" : "SCALAR"
        },
        {
            "bufferView" : 24,
            "componentType" : 5126,
            "count" : 36,
            "max" : [
                7.6875,
                2.890619993209839,
                2.046880006790161
            ],
            "min" : [
                -1.71875,
                -1.9843800067901611,
                -5.375
            ],
            "type" : "VEC3"
        },
        {
            "bufferView" : 25,
            "componentType" : 5126,
            "count" : 36,
            "type" : "VEC3"
        },
        {
            "bufferView" : 26,
            "componentType" : 5126,
            "count" : 36,
            "type" : "VEC2"
        },
        {
            "bufferView" : 27,
            "componentType" : 5123,
            "count" : 36,
            "type" : "SCALAR"
        },
        {
            "bufferView" : 29,
            "componentType" : 5126,
            "count" : 900,
            "max" : [
                21.765600204467773,
                4.6875,
                6.171879768371582
            ],
            "min" : [
                -7.671879768371582,
                -3.71875,
                -7.71875
            ],
            "type" : "VEC3"
        },
        {
            "bufferView" : 30,
            "componentType" : 5126,
            "count" : 900,
            "type" : "VEC3"
        },
        {
            "bufferView" : 31,
            "componentType" : 5126,
            "count" : 900,
            "type" : "VEC2"
        },
        {
            "bufferView" : 32,
            "componentType" : 5123,
            "count" : 900,
            "type" : "SCALAR"
        }
    ],
    "bufferViews" : [
        {
            "buffer" : 0,
            "byteLength" : 7704,
            "byteOffset" : 0
        },
        {
            "buffer" : 0,
            "byteLength" : 7704,
            "byteOffset" : 7704
        },
        {
            "buffer" : 0,
            "byteLength" : 5136,
            "byteOffset" : 15408
        },
        {
            "buffer" : 0,
            "byteLength" : 1284,
            "byteOffset" : 20544
        },
        {
            "buffer" : 0,
            "byteLength" : 24704,
            "byteOffset" : 21828
        },
        {
            "buffer" : 0,
            "byteLength" : 11448,
            "byteOffset" : 46532
        },
        {
            "buffer" : 0,
            "byteLength" : 11448,
            "byteOffset" : 57980
        },
        {
            "buffer" : 0,
            "byteLength" : 7632,
            "byteOffset" : 69428
        },
        {
            "buffer" : 0,
            "byteLength" : 1908,
            "byteOffset" : 77060
        },
        {
            "buffer" : 0,
            "byteLength" : 8712,
            "byteOffset" : 78968
        },
        {
            "buffer" : 0,
            "byteLength" : 8712,
            "byteOffset" : 87680
        },
        {
            "buffer" : 0,
            "byteLength" : 5808,
            "byteOffset" : 96392
        },
        {
            "buffer" : 0,
            "byteLength" : 1452,
            "byteOffset" : 102200
        },
        {
            "buffer" : 0,
            "byteLength" : 16040,
            "byteOffset" : 103652
        },
        {
            "buffer" : 0,
            "byteLength" : 360,
            "byteOffset" : 119692
        },
        {
            "buffer" : 0,
            "byteLength" : 360,
            "byteOffset" : 120052
        },
        {
            "buffer" : 0,
            "byteLength" : 240,
            "byteOffset" : 120412
        },
        {
            "buffer" : 0,
            "byteLength" : 60,
            "byteOffset" : 120652
        },
        {
            "buffer" : 0,
            "byteLength" : 700,
            "byteOffset" : 120712
        },
        {
            "buffer" : 0,
            "byteLength" : 216,
            "byteOffset" : 121412
        },
        {
            "buffer" : 0,
            "byteLength" : 216,
            "byteOffset" : 121628
        },
        {
            "buffer" : 0,
            "byteLength" : 144,
            "byteOffset" : 121844
        },
        {
            "buffer" : 0,
            "byteLength" : 36,
            "byteOffset" : 121988
        },
        {
            "buffer" : 0,
            "byteLength" : 1600,
            "byteOffset" : 122024
        },
        {
            "buffer" : 0,
            "byteLength" : 432,
            "byteOffset" : 123624
        },
        {
            "buffer" : 0,
            "byteLength" : 432,
            "byteOffset" : 124056
        },
        {
            "buffer" : 0,
            "byteLength" : 288,
            "byteOffset" : 124488
        },
        {
            "buffer" : 0,
            "byteLength" : 72,
            "byteOffset" : 124776
        },
        {
            "buffer" : 0,
            "byteLength" : 29427,
            "byteOffset" : 124848
        },
        {
            "buffer" : 0,
            "byteLength" : 10800,
            "byteOffset" : 154276
        },
        {
            "buffer" : 0,
            "byteLength" : 10800,
            "byteOffset" : 165076
        },
        {
            "buffer" : 0,
            "byteLength" : 7200,
            "byteOffset" : 175876
        },
        {
            "buffer" : 0,
            "byteLength" : 1800,
            "byteOffset" : 183076
        }
    ],
    "buffers" : [
        {
            "byteLength" : 184876,
            "uri" : "data:application/octet-stream;base64,"
        }
    ]
}
