{
    "asset" : {
        "generator" : "Khronos glTF Blender I/O v0.9.36",
        "version" : "2.0"
    },
    "scene" : 0,
    "scenes" : [
        {
            "name" : "Scene",
            "nodes" : [
                0
            ]
        }
    ],
    "nodes" : [
        {
            "mesh" : 0,
            "name" : "Plane.001",
            "rotation" : [
                0,
                0,
                -0.7071067690849304,
                0.7071067690849304
            ]
        }
    ],
    "materials" : [
        {
            "doubleSided" : true,
            "name" : "Material.001",
            "pbrMetallicRoughness" : {
                "baseColorTexture" : {
                    "index" : 0,
                    "texCoord" : 0
                },
                "metallicFactor" : 0,
                "roughnessFactor" : 1
            }
        },
        {
            "doubleSided" : true,
            "name" : "Material",
            "pbrMetallicRoughness" : {
                "baseColorTexture" : {
                    "index" : 1,
                    "texCoord" : 0
                },
                "metallicFactor" : 0,
                "roughnessFactor" : 1
            }
        },
        {
            "doubleSided" : true,
            "name" : "Material.002",
            "pbrMetallicRoughness" : {
                "baseColorFactor" : [
                    0.35055580735206604,
                    0.21255119144916534,
                    0.10928647965192795,
                    1
                ],
                "metallicFactor" : 0,
                "roughnessFactor" : 1
            }
        }
    ],
    "meshes" : [
        {
            "name" : "Plane.001",
            "primitives" : [
                {
                    "attributes" : {
                        "POSITION" : 0,
                        "NORMAL" : 1,
                        "TEXCOORD_0" : 2
                    },
                    "indices" : 3,
                    "material" : 0
                },
                {
                    "attributes" : {
                        "POSITION" : 4,
                        "NORMAL" : 5,
                        "TEXCOORD_0" : 6
                    },
                    "indices" : 7,
                    "material" : 1
                },
                {
                    "attributes" : {
                        "POSITION" : 8,
                        "NORMAL" : 9,
                        "TEXCOORD_0" : 10
                    },
                    "indices" : 11,
                    "material" : 2
                }
            ]
        }
    ],
    "textures" : [
        {
            "source" : 0
        },
        {
            "source" : 1
        }
    ],
    "images" : [
        {
            "bufferView" : 4,
            "mimeType" : "image/png",
            "name" : "umodel.exe"
        },
        {
            "bufferView" : 9,
            "mimeType" : "image/png",
            "name" : "A_bs3"
        }
    ],
    "accessors" : [
        {
            "bufferView" : 0,
            "componentType" : 5126,
            "count" : 369,
            "max" : [
                16.455591201782227,
                17.45519256591797,
                63.446311950683594
            ],
            "min" : [
                -10.410100936889648,
                -18.101545333862305,
                -57.00288772583008
            ],
            "type" : "VEC3"
        },
        {
            "bufferView" : 1,
            "componentType" : 5126,
            "count" : 369,
            "type" : "VEC3"
        },
        {
            "bufferView" : 2,
            "componentType" : 5126,
            "count" : 369,
            "type" : "VEC2"
        },
        {
            "bufferView" : 3,
            "componentType" : 5123,
            "count" : 369,
            "type" : "SCALAR"
        },
        {
            "bufferView" : 5,
            "componentType" : 5126,
            "count" : 99,
            "max" : [
                -0.3329596519470215,
                17.45519256591797,
                63.446311950683594
            ],
            "min" : [
                -10.410100936889648,
                -18.101545333862305,
                -57.00288772583008
            ],
            "type" : "VEC3"
        },
        {
            "bufferView" : 6,
            "componentType" : 5126,
            "count" : 99,
            "type" : "VEC3"
        },
        {
            "bufferView" : 7,
            "componentType" : 5126,
            "count" : 99,
            "type" : "VEC2"
        },
        {
            "bufferView" : 8,
            "componentType" : 5123,
            "count" : 99,
            "type" : "SCALAR"
        },
        {
            "bufferView" : 10,
            "componentType" : 5126,
            "count" : 474,
            "max" : [
                -1.489100456237793,
                12.233152389526367,
                -28.457340240478516
            ],
            "min" : [
                -32.07673263549805,
                -12.233152389526367,
                -48.16656494140625
            ],
            "type" : "VEC3"
        },
        {
            "bufferView" : 11,
            "componentType" : 5126,
            "count" : 474,
            "type" : "VEC3"
        },
        {
            "bufferView" : 12,
            "componentType" : 5126,
            "count" : 474,
            "type" : "VEC2"
        },
        {
            "bufferView" : 13,
            "componentType" : 5123,
            "count" : 738,
            "type" : "SCALAR"
        }
    ],
    "bufferViews" : [
        {
            "buffer" : 0,
            "byteLength" : 4428,
            "byteOffset" : 0
        },
        {
            "buffer" : 0,
            "byteLength" : 4428,
            "byteOffset" : 4428
        },
        {
            "buffer" : 0,
            "byteLength" : 2952,
            "byteOffset" : 8856
        },
        {
            "buffer" : 0,
            "byteLength" : 738,
            "byteOffset" : 11808
        },
        {
            "buffer" : 0,
            "byteLength" : 36130,
            "byteOffset" : 12548
        },
        {
            "buffer" : 0,
            "byteLength" : 1188,
            "byteOffset" : 48680
        },
        {
            "buffer" : 0,
            "byteLength" : 1188,
            "byteOffset" : 49868
        },
        {
            "buffer" : 0,
            "byteLength" : 792,
            "byteOffset" : 51056
        },
        {
            "buffer" : 0,
            "byteLength" : 198,
            "byteOffset" : 51848
        },
        {
            "buffer" : 0,
            "byteLength" : 26983,
            "byteOffset" : 52048
        },
        {
            "buffer" : 0,
            "byteLength" : 5688,
            "byteOffset" : 79032
        },
        {
            "buffer" : 0,
            "byteLength" : 5688,
            "byteOffset" : 84720
        },
        {
            "buffer" : 0,
            "byteLength" : 3792,
            "byteOffset" : 90408
        },
        {
            "buffer" : 0,
            "byteLength" : 1476,
            "byteOffset" : 94200
        }
    ],
    "buffers" : [
        {
            "byteLength" : 95676,
            "uri" : "data:application/octet-stream;base64,"
        }
    ]
}
