{
    "asset" : {
        "generator" : "Khronos glTF Blender I/O v0.9.36",
        "version" : "2.0"
    },
    "scene" : 0,
    "scenes" : [
        {
            "name" : "Scene",
            "nodes" : [
                0
            ]
        }
    ],
    "nodes" : [
        {
            "mesh" : 0,
            "name" : "Plane.001",
            "rotation" : [
                0,
                0,
                -0.7071067690849304,
                0.7071067690849304
            ]
        }
    ],
    "materials" : [
        {
            "doubleSided" : true,
            "name" : "Material.001",
            "pbrMetallicRoughness" : {
                "baseColorTexture" : {
                    "index" : 0,
                    "texCoord" : 0
                },
                "metallicFactor" : 0,
                "roughnessFactor" : 1
            }
        },
        {
            "doubleSided" : true,
            "name" : "Material",
            "pbrMetallicRoughness" : {
                "baseColorTexture" : {
                    "index" : 1,
                    "texCoord" : 0
                },
                "metallicFactor" : 0,
                "roughnessFactor" : 1
            }
        }
    ],
    "meshes" : [
        {
            "name" : "Plane.001",
            "primitives" : [
                {
                    "attributes" : {
                        "POSITION" : 0,
                        "TEXCOORD_0" : 1
                    },
                    "indices" : 2,
                    "material" : 0
                },
                {
                    "attributes" : {
                        "POSITION" : 3,
                        "TEXCOORD_0" : 4
                    },
                    "indices" : 5,
                    "material" : 1
                }
            ]
        }
    ],
    "textures" : [
        {
            "source" : 0
        },
        {
            "source" : 1
        }
    ],
    "images" : [
        {
            "bufferView" : 3,
            "mimeType" : "image/png",
            "name" : "umodel.exe"
        },
        {
            "bufferView" : 7,
            "mimeType" : "image/png",
            "name" : "A_bs3"
        }
    ],
    "accessors" : [
        {
            "bufferView" : 0,
            "componentType" : 5126,
            "count" : 367,
            "max" : [
                16.45559310913086,
                14.780982971191406,
                60.109703063964844
            ],
            "min" : [
                -10.410099029541016,
                -18.101545333862305,
                -55.018367767333984
            ],
            "type" : "VEC3"
        },
        {
            "bufferView" : 1,
            "componentType" : 5126,
            "count" : 367,
            "type" : "VEC2"
        },
        {
            "bufferView" : 2,
            "componentType" : 5123,
            "count" : 369,
            "type" : "SCALAR"
        },
        {
            "bufferView" : 4,
            "componentType" : 5126,
            "count" : 95,
            "max" : [
                2.328367233276367,
                14.780982971191406,
                60.109703063964844
            ],
            "min" : [
                -10.410099029541016,
                -18.101545333862305,
                -55.018367767333984
            ],
            "type" : "VEC3"
        },
        {
            "bufferView" : 5,
            "componentType" : 5126,
            "count" : 95,
            "type" : "VEC2"
        },
        {
            "bufferView" : 6,
            "componentType" : 5123,
            "count" : 99,
            "type" : "SCALAR"
        }
    ],
    "bufferViews" : [
        {
            "buffer" : 0,
            "byteLength" : 4404,
            "byteOffset" : 0
        },
        {
            "buffer" : 0,
            "byteLength" : 2936,
            "byteOffset" : 4404
        },
        {
            "buffer" : 0,
            "byteLength" : 738,
            "byteOffset" : 7340
        },
        {
            "buffer" : 0,
            "byteLength" : 36130,
            "byteOffset" : 8080
        },
        {
            "buffer" : 0,
            "byteLength" : 1140,
            "byteOffset" : 44212
        },
        {
            "buffer" : 0,
            "byteLength" : 760,
            "byteOffset" : 45352
        },
        {
            "buffer" : 0,
            "byteLength" : 198,
            "byteOffset" : 46112
        },
        {
            "buffer" : 0,
            "byteLength" : 26983,
            "byteOffset" : 46312
        }
    ],
    "buffers" : [
        {
            "byteLength" : 73296,
            "uri" : "data:application/octet-stream;base64,"
        }
    ]
}
