<svg xmlns="http://www.w3.org/2000/svg" xmlns:xlink="http://www.w3.org/1999/xlink" viewBox="0 0 80 80"><defs><style>.cls-1{fill:url(#linear-gradient);}.cls-2{fill:#871a44;}</style><linearGradient id="linear-gradient" x1="40" y1="78" x2="40" y2="2" gradientUnits="userSpaceOnUse"><stop offset="0" stop-color="#d41b5c"/><stop offset="0.5" stop-color="#ee568f"/></linearGradient></defs><title>pause</title><g id="Layer_2" data-name="Layer 2"><g id="Layer_1-2" data-name="Layer 1"><rect class="cls-1" x="2" y="2" width="76" height="76" rx="20" ry="20"/><path class="cls-2" d="M58,4A18.05,18.05,0,0,1,76,22V58A18.05,18.05,0,0,1,58,76H22A18.05,18.05,0,0,1,4,58V22A18.05,18.05,0,0,1,22,4H58m0-4H22A22,22,0,0,0,0,22V58A22,22,0,0,0,22,80H58A22,22,0,0,0,80,58V22A22,22,0,0,0,58,0Z"/><path class="cls-2" d="M28.75,58a5,5,0,0,1-5-5V27a5,5,0,0,1,10,0V53A5,5,0,0,1,28.75,58Z"/><path class="cls-2" d="M51.25,58a5,5,0,0,1-5-5V27a5,5,0,0,1,10,0V53A5,5,0,0,1,51.25,58Z"/></g></g></svg>