<svg xmlns="http://www.w3.org/2000/svg" xmlns:xlink="http://www.w3.org/1999/xlink" viewBox="0 0 80 80"><defs><style>.cls-1{fill:url(#linear-gradient);}.cls-2{fill:#008a3f;}</style><linearGradient id="linear-gradient" x1="40" y1="78" x2="40" y2="2" gradientUnits="userSpaceOnUse"><stop offset="0" stop-color="#008b57"/><stop offset="0.5" stop-color="#0bc65e"/></linearGradient></defs><title>Play</title><g id="Layer_2" data-name="Layer 2"><g id="Layer_1-2" data-name="Layer 1"><rect class="cls-1" x="2" y="2" width="76" height="76" rx="20" ry="20"/><path class="cls-2" d="M58,4A18.05,18.05,0,0,1,76,22V58A18.05,18.05,0,0,1,58,76H22A18.05,18.05,0,0,1,4,58V22A18.05,18.05,0,0,1,22,4H58m0-4H22A22,22,0,0,0,0,22V58A22,22,0,0,0,22,80H58A22,22,0,0,0,80,58V22A22,22,0,0,0,58,0Z"/><path class="cls-2" d="M53.75,35.67l-22.5-13A5,5,0,0,0,23.75,27V53a4.93,4.93,0,0,0,2.5,4.33,4.94,4.94,0,0,0,5,0l22.5-13a5,5,0,0,0,0-8.66Z"/></g></g></svg>