<svg xmlns="http://www.w3.org/2000/svg" viewBox="0 0 293.25 237.79"><defs><style>.cls-1{fill:#f0f;}</style></defs><title>pntt</title><g id="Layer_2" data-name="Layer 2"><g id="Layer_1-2" data-name="Layer 1"><path class="cls-1" d="M69,22.45c2.65,4.23,8.4,14.76,7,28.23C74.53,64.37,66.8,73,63.58,76.54A50.25,50.25,0,0,1,42.06,90.27a93.61,93.61,0,0,0-9.41,29.35C27,159.19,65.4,160,55.65,198.45c-3.78-25.26-17.47-41-29.29-41h-.71c-2,.11-7.9.9-14.5,9.25C13.08,161,15.86,152.42,18.9,142c8.58-29.6,12.82-44.69,10.71-59.16C28.47,75,25.09,62.05,13.31,47.45a53.2,53.2,0,0,0,10.52,1,51.63,51.63,0,0,0,17-2.86A53.83,53.83,0,0,0,69,22.45M41.24,78.75A37.09,37.09,0,0,0,57.32,68.3C66.74,57.73,66.75,45.13,66.67,42a125.42,125.42,0,0,1-16.52,8.43,124.67,124.67,0,0,1-17.08,5.77,53.68,53.68,0,0,1,5.54,11.29,53.62,53.62,0,0,1,2.63,11.24m27.65-64-3.35,5.63a49.38,49.38,0,0,1-26,21.45A47.73,47.73,0,0,1,23.83,44.5a49.63,49.63,0,0,1-9.73-1L3.26,41.36,10.2,50C18.78,60.6,24,71.84,25.66,83.37c1.94,13.34-1.85,27.26-10.61,57.47-2.39,8.25-5,16.53-7.69,24.59L0,187.26l14.28-18.07c5.11-6.47,9.45-7.63,11.58-7.74h.5c9.48,0,21.86,14.38,25.33,37.61l3,19.69,4.88-19.3c5.46-21.55-3-32.5-11.18-43.09-7.34-9.5-14.27-18.47-11.73-36.16a89,89,0,0,1,8.3-26.66A54.3,54.3,0,0,0,66.52,79.25C69.45,76.06,78.35,66.38,80,51.09c1.46-13.92-4.12-25.25-7.58-30.76l-3.48-5.55ZM39.12,58.67A129,129,0,0,0,51.7,54.14c3.54-1.49,7-3.14,10.43-5a33.09,33.09,0,0,1-7.79,16.44,32.43,32.43,0,0,1-10,7.54,58.5,58.5,0,0,0-2-7,59.37,59.37,0,0,0-3.26-7.51Z"/><path class="cls-1" d="M81.65,15.45a42.81,42.81,0,0,0,25.56,9,38.15,38.15,0,0,0,3.94-.21,40.37,40.37,0,0,0,18.5-6.81A28.87,28.87,0,0,0,131,24.13a29.32,29.32,0,0,0,3.82,7.66c-1.15-.06-2.39-.09-3.69-.09A80.42,80.42,0,0,0,100,38a66,66,0,0,1-.5,21A65.09,65.09,0,0,1,95.77,71.7a55.48,55.48,0,0,0,31.87-14.58,17,17,0,0,0,1.48,7.46A16.73,16.73,0,0,0,133,70a195.73,195.73,0,0,0-19.33,3.17A115.69,115.69,0,0,0,95,78.81c-18.16,7.67-27.77,31.4-30.76,39.61A226.1,226.1,0,0,0,100,105.83a226.63,226.63,0,0,0,28.8-15.54,21,21,0,0,0,6.49,15.5A453.41,453.41,0,0,0,90.52,116.2c-14.83,4.26-28.39,9-40.62,13.75a63.19,63.19,0,0,1,5.58-16.33c4-8,8.14-12,15.92-21.62A228.14,228.14,0,0,0,85,73.43c5.56-9,9.33-25.52-3.33-58m-9-12,5.24,13.43c9.58,24.54,10.81,42.85,3.66,54.42A224.11,224.11,0,0,1,68.28,89.5c-1.82,2.26-3.46,4.23-4.91,6-4.93,5.92-8.18,9.84-11.46,16.34A67.48,67.48,0,0,0,46,129.18l-1.41,7.16,6.8-2.66c13.14-5.15,26.69-9.74,40.26-13.63A453.53,453.53,0,0,1,136,109.72l7.74-1.39-5.68-5.43a17,17,0,0,1-3.87-5.56,17.33,17.33,0,0,1-1.39-7l.11-7.41-6.26,4a222.21,222.21,0,0,1-28.29,15.27,221.13,221.13,0,0,1-27.32,10.18C75.71,102.08,84.12,87.77,96.6,82.5A111.45,111.45,0,0,1,114.49,77a189.25,189.25,0,0,1,18.94-3.1l8.64-1L135.71,67a12.74,12.74,0,0,1-2.94-4.09,13,13,0,0,1-1.13-5.69l.31-9.61-7,6.56a51.61,51.61,0,0,1-13.61,9.12,51.3,51.3,0,0,1-9.52,3.29,68.93,68.93,0,0,0,1.66-6.92,69.74,69.74,0,0,0,.89-19.14,76.23,76.23,0,0,1,26.78-4.85c1.16,0,2.35,0,3.51.08l8.12.38-4.66-6.66a25.4,25.4,0,0,1-3.3-6.61,24.93,24.93,0,0,1-1.15-5.81l-.54-6.86-5.7,3.86a36.43,36.43,0,0,1-16.66,6.15c-1.17.11-2.35.18-3.53.18-11.38,0-20-5.68-23.12-8.12L72.68,3.48Z"/><path class="cls-1" d="M171.85,12.43a71.36,71.36,0,0,0-.7,7.77c-1.14,32.39,20.46,58,33.5,70.91a164,164,0,0,0-9.34-42,161.44,161.44,0,0,0-9.82-21.75,23.59,23.59,0,0,0,7.33,1.52l.94,0c10.7,0,18.23-7.61,20-9.48a89.86,89.86,0,0,0-6.85,25.28,93.31,93.31,0,0,0,5.35,43A102.11,102.11,0,0,0,225,112.29a21.08,21.08,0,0,0-7.75-1.48,20.33,20.33,0,0,0-14.33,5.89,173.7,173.7,0,0,0-43.37-74.31,74.93,74.93,0,0,0-.72,27.06l.06.35a75.33,75.33,0,0,0,12.53,30.9,30,30,0,0,0-13.09-3.5h-.88a29.37,29.37,0,0,0-8.76,1.34,163.81,163.81,0,0,0,3.14-38.24,164.79,164.79,0,0,0-7.91-44.92,30,30,0,0,0,11.24,2.2q1.29,0,2.67-.12a29.84,29.84,0,0,0,14-5M226.51,0,210.83,16.69c-2.32,2.47-8.64,8.22-17.07,8.22l-.77,0a19.41,19.41,0,0,1-6.08-1.26L176.84,19.8,182,29.27a159.81,159.81,0,0,1,9.58,21.23,159.28,159.28,0,0,1,7.57,28.85c-12.8-14.92-24.82-35.36-24-59a69.74,69.74,0,0,1,.67-7.34l1.33-9-7.53,5.11a25.94,25.94,0,0,1-12.16,4.35c-.77.07-1.54.1-2.31.1a26.27,26.27,0,0,1-9.74-1.9l-8-3.24,2.65,8.17a160.86,160.86,0,0,1,7.73,43.83,161.26,161.26,0,0,1-3.07,37.31l-1.33,6.61,6.44-2a25.43,25.43,0,0,1,7.57-1.16h.76a25.94,25.94,0,0,1,11.33,3L184.13,112l-9.45-13.59a71.56,71.56,0,0,1-11.86-29.26l-.06-.33a70.65,70.65,0,0,1-.52-17.73,169.87,169.87,0,0,1,36.81,66.7l1.85,6.47,4.8-4.71a16.58,16.58,0,0,1,7.45-4.23,16,16,0,0,1,4.08-.52,17,17,0,0,1,6.27,1.2L236,121l-7.7-11A98.59,98.59,0,0,1,216,86.36a89.17,89.17,0,0,1-5.15-41.18A85.93,85.93,0,0,1,217.42,21l9.09-21Z"/><path class="cls-1" d="M230.73,28.54a40.77,40.77,0,0,0,19.45,19.78A39.12,39.12,0,0,0,266.87,52a42.25,42.25,0,0,0,15-2.75,40,40,0,0,0-6.6,14,39.1,39.1,0,0,0-1.14,9.07,44.86,44.86,0,0,0-22.28-13.91,169.84,169.84,0,0,0-2.08,20.34c-1.52,36.54,2.69,63,18.84,87.16-1.07-.9-8.76-7.21-18-7.21a19,19,0,0,0-5,.65c-12.31,3.28-16,20.48-17.48,36.81-10-30.75,11.27-43.68,13.75-72.25A362.92,362.92,0,0,0,241,52.48,81.32,81.32,0,0,0,219.9,48a35,35,0,0,0,10.83-19.41m-1.59-13.16L226.8,27.8A31,31,0,0,1,217.2,45l-6.82,6.23,9.21.71a76.63,76.63,0,0,1,11.28,1.72c2.16.5,4.31,1.1,6.43,1.78a358.58,358.58,0,0,1,.61,68.17c-.92,10.66-4.7,19.17-8.36,27.41-5.76,13-11.72,26.4-5.21,46.42l6.07,18.67,1.72-19.56c1.78-20.27,6.53-31.16,14.53-33.3a15.44,15.44,0,0,1,4-.51c7.79,0,14.68,5.63,15.43,6.27l21.75,18.38L272,163.73c-14.5-21.66-19.76-46.23-18.16-84.78.21-5.06.66-10.17,1.34-15.23a40.93,40.93,0,0,1,16,11.26l6.91,8,.11-10.53a35.33,35.33,0,0,1,1-8.15,35.81,35.81,0,0,1,5.93-12.64l8.12-11.08-12.8,5A38.52,38.52,0,0,1,266.87,48a35,35,0,0,1-15-3.3,36.83,36.83,0,0,1-17.51-17.82l-5.23-11.5Z"/><path class="cls-1" d="M149.15,124.45c-6.07,20.33-10.59,36.09-13.25,45.5-7.56,26.7-10.37,38-20.75,43a24.91,24.91,0,0,1-10.9,2.39,28.61,28.61,0,0,1-8.1-1.14c-4.55-1.38-14-5.7-33-48.75-4.1-9.28-7.19-17.1-9.25-22.5,1.43.13,3.06.21,4.86.21a56.79,56.79,0,0,0,24.52-5.57A46.59,46.59,0,0,0,75.9,158c-1.75,16.43,5.5,38.21,21.07,43a23.82,23.82,0,0,0,7,1.12,17,17,0,0,0,7.45-1.63c12.42-6,13.41-26.88,14.22-43.82A143.22,143.22,0,0,0,124.4,130a32.67,32.67,0,0,0,11.5,0,33.22,33.22,0,0,0,13.25-5.5m7.12-9.85-9.41,6.58A29.69,29.69,0,0,1,135.2,126a29.32,29.32,0,0,1-5,.44,29.76,29.76,0,0,1-5.07-.44l-5.42-1,.77,5.45a139.71,139.71,0,0,1,1.19,25.93c-.76,15.8-1.69,35.45-12,40.41a13,13,0,0,1-5.71,1.23,19.49,19.49,0,0,1-5.8-1c-13-4-19.93-23.26-18.28-38.75a42.48,42.48,0,0,1,6.77-18.62l7.71-11.92L81.55,134a52.7,52.7,0,0,1-22.79,5.18c-1.5,0-3-.06-4.52-.19l-6.35-.55,2.27,6c2.89,7.57,6,15.21,9.33,22.69,18,40.85,28.05,48.68,35.49,51a32.83,32.83,0,0,0,9.27,1.31,28.67,28.67,0,0,0,12.64-2.79c11.58-5.6,14.83-17.12,22-42.35l.9-3.16c4.15-14.65,8.6-29.94,13.23-45.44l3.29-11Z"/><path class="cls-1" d="M164.4,119a76.34,76.34,0,0,0,35.5,14.5,74.48,74.48,0,0,0,9.72.64,76,76,0,0,0,16.78-1.89c-6.29,25.9-22.41,45-41.75,48a34.72,34.72,0,0,1-5.45.42,40.08,40.08,0,0,1-12-1.92,96.35,96.35,0,0,0-16.64,48.05,21.48,21.48,0,0,0-17.27-8.64,22.22,22.22,0,0,0-3.84.34,154.91,154.91,0,0,0,21-33.75,157.56,157.56,0,0,0,14-65.75M179,168.71a31,31,0,0,0,10.52-1.82c15.28-5.5,20.06-21.09,20.6-22.94a54.43,54.43,0,0,1-34.5-6.13,49.35,49.35,0,0,1-4.75,29.88,33.61,33.61,0,0,0,8.13,1M160.37,111l0,8a152.31,152.31,0,0,1-13.64,64.08,151.57,151.57,0,0,1-20.46,32.88l-6.85,8.39,10.66-1.93a18,18,0,0,1,3.13-.28,17.53,17.53,0,0,1,14.06,7l6.48,8.64L154.5,227a92.24,92.24,0,0,1,14.37-43.68,43.53,43.53,0,0,0,10.33,1.28,39.5,39.5,0,0,0,6.06-.46c10.38-1.62,20.12-7.41,28.18-16.76,7.76-9,13.59-20.84,16.84-34.25l1.53-6.27-6.3,1.42a71.76,71.76,0,0,1-15.89,1.79,70.6,70.6,0,0,1-9.2-.6,72.54,72.54,0,0,1-33.64-13.75L160.37,111Zm16.28,53.63a53.87,53.87,0,0,0,2.95-11,53.21,53.21,0,0,0,.62-9.17,58.4,58.4,0,0,0,21.68,4.18c.69,0,1.37,0,2.06,0-2.54,4.9-7.38,11.57-15.77,14.59a26.85,26.85,0,0,1-9.16,1.58c-.79,0-1.59,0-2.38-.1Z"/></g></g></svg>