<svg id="Layer_1" data-name="Layer 1" xmlns="http://www.w3.org/2000/svg" viewBox="0 0 529 346.1"><defs><style>.cls-1{fill:#fff;}</style></defs><title>starbie</title><path class="cls-1" d="M592.73,254c-5.42-.54-10.85-1-16.24-1.67-3.52-.46-6.41-2.38-8.94-4.83-1-1-2-2-3-3a9.27,9.27,0,0,1-1.86-11.24c.94-1.83,1.73-4,3.23-5.24,4.82-4,10.14-7.14,16.66-7.43,3.29-.15,6.57-.3,9.85-.43a29.25,29.25,0,0,1,14.48,3.45,16.42,16.42,0,0,1,6,6.17c1.82,3,2.88,6.53,4.16,9.87,1.6,4.17,3,8.41,4.64,12.58,2,5.1,3.17,10.21,2.28,15.78-.37,2.36.12,4.9.47,7.33a8.06,8.06,0,0,1-.82,5.18c-1.19,2.24-2.12,4.63-3.39,6.81-2,3.34-4,6.64-6.23,9.81-2.05,2.94-4.48,5.61-6.51,8.55-5.18,7.54-11.81,13.81-18,20.44a51.24,51.24,0,0,1-10.9,8.56c-8.86,5.35-17.89,10.46-27.57,14.28-4.16,1.65-8.34,3.26-12.56,4.76q-8,2.87-16.1,5.52a49.81,49.81,0,0,1-5.43,1.28c-3,.61-6,1.31-9,1.72-8.14,1.1-16.28,2.17-24.43,3-3.94.42-6.23,2.92-8.42,5.71-.31.4-.47,1.16-.83,1.25-2.7.68-.94,1.63-.27,2.65,1.63,2.5,3.27,5,4.76,7.59,2.82,4.92,5.49,9.93,8.33,14.84a75.45,75.45,0,0,0,5.75,9c6.72,8.45,11.37,18.23,17.54,27,2.54,3.63,4.35,7.77,6.62,11.61,2.1,3.53,4.41,6.93,6.55,10.43,2.69,4.38,5.31,8.8,7.94,13.21,1.56,2.61,3.13,5.2,4.61,7.85a17.62,17.62,0,0,1,1.07,2.87c.53,1.53.73,3.29,1.64,4.55a26.53,26.53,0,0,1,3.33,7.29c1.12,3.33,2.41,6.61,3.37,10a57.4,57.4,0,0,1,.9,5.94,3.59,3.59,0,0,0,.93,2c2.07,1.65,2.34,3.76.66,5.85s-3.87,2.75-6.2,3.32c-1.23.3-2.53.28-3.77.53-.92.18-1.8.56-2.71.82a6.62,6.62,0,0,1-1.91.48c-4.63-.13-9.25-.28-13.88-.5-5.15-.24-10.29-.66-15.44-.79-5.53-.14-11.07,0-16.6-.05q-20.85-.37-41.69-.9c-10.46-.25-20.91-.81-31.37-.81a118.94,118.94,0,0,0-22.95,2,130.85,130.85,0,0,1-13.57,1.63c-6,.54-12.08.62-18.06,1.4a174.2,174.2,0,0,0-20.72,3.72c-3.79,1-7.57,1.5-11.38,2.16-2.83.49-5.52,1.72-8.33,2.36-3.42.78-6.89,1.35-10.35,1.9a39,39,0,0,1-17.06-.27c-4.35-1.15-6.79-5.72-5.9-10.16.56-2.78,1.25-5.53,2-8.27a5.13,5.13,0,0,1,1.2-1.84A9.52,9.52,0,0,0,292,505a3.78,3.78,0,0,1,.27-2c2.22-3.69,2.63-8.24,5.73-11.57,1.08-1.16,1.21-3.18,1.88-4.75.47-1.08,1.16-2.07,1.72-3.11q2.54-4.72,5.05-9.46c2.08-3.92,3-8.21,4.27-12.43a95.34,95.34,0,0,1,5.05-12.18c1.35-3,3.17-5.72,4.42-8.71a31.5,31.5,0,0,0,2.24-9.07c.32-3.14,1.59-6.18,2.42-9.27q2.63-9.74,5.22-19.48a1.39,1.39,0,0,0,.12-.43c-.07-1-.16-2-.25-3a14.14,14.14,0,0,0-2.62,1,89.65,89.65,0,0,1-17.3,8.38c-3.18,1.13-6.45,2.41-10,2.18a7.51,7.51,0,0,0-2.64.44c-7.78,2.5-15.89,2.49-23.91,3-2.7.17-5.28-.2-8.07.72-3.11,1-6.62,1.07-10,1.1-6.35.06-12.71-.15-19.06-.32-3.65-.1-7.3-.34-11-.51a1.87,1.87,0,0,0-.89.08c-4.5,2.27-8.93-.41-13.4-.18-5.38-2.78-11.44-2.09-17.13-3.34C182.63,409.61,171,407.34,160,403c-1.18-.47-2.28-1.12-3.42-1.68a28.47,28.47,0,0,0-6.41-2.24c-3.4-.78-7.05-2.09-8.38-6.23a5.6,5.6,0,0,0-2.25-2.37A69.6,69.6,0,0,1,124.35,376c-4.08-5.22-7.91-10.64-11.6-16.15a96,96,0,0,1-5.61-10.13c-2.18-4.32-4.3-8.67-6.23-13.1a41.42,41.42,0,0,1-2-6.65c-.91-3.67-1.79-7.35-2.53-11.05a39.61,39.61,0,0,1-.48-5.12c-.5-7.38-.9-14.75.79-22a2.62,2.62,0,0,0,.15-.66c-.25-4.62,1.63-8.92,2.07-13.44a2.57,2.57,0,0,1,.13-.88c1.68-3.53,2.29-7.53,4.79-10.7a8.83,8.83,0,0,0,.9-1.55c1.33-2.73,2.57-5.51,4-8.18a7.33,7.33,0,0,1,2-1.94,17.61,17.61,0,0,0,2.64-2,68.55,68.55,0,0,0,4.88-6.38,23.1,23.1,0,0,1,7.75-7.29,13.66,13.66,0,0,0,2.88-2.44,57.85,57.85,0,0,1,7.2-5.85c3.47-2.65,7.65-2.72,11.34-4.43,2.93-1.36,6.52-1.37,9.83-1.82,2.95-.39,5.9-.63,8.84.42,5.49,2,11.61,2,16.62,5.52,5.36,3.8,10.15,8,11.43,14.85a11.19,11.19,0,0,1,.17,4c-.63,3.47-.32,7.22-2.88,10.2a3.66,3.66,0,0,0-.43,2.38c.11,1.88-.93,3.08-1.9,4.55-4,6.12-10.05,10.41-14.34,16.24a6.76,6.76,0,0,1-.7.88c-5.39,5.49-10.94,10.73-17.65,14.72-4,2.36-7.92,4.75-12.08,6.77a5.72,5.72,0,0,1-2.53.8c-3.82-.17-7.34,1-11,1.93a58.75,58.75,0,0,1-9.74,1.27,77.77,77.77,0,0,1-8.08,0c-1.5,0-2.33.54-2.3,2,.12,7.88.41,15.77,5.09,22.57a63.79,63.79,0,0,1,3.86,7.48c1.89,3.75,4.54,7.12,6.8,10.69s4.56,7.34,6.83,11a6.59,6.59,0,0,0,.47.77c2.73,3.35,5.3,6.86,8.27,10a51.26,51.26,0,0,0,7.41,6.1c11.34,8.14,24.29,12.69,37.4,17a164.33,164.33,0,0,0,36.24,7.11c11.36,1,22.74,2.66,34.21,2,7.31-.39,14.62-.82,21.91-1.46,2.19-.19,4.3-1.19,6.46-1.76,1.22-.32,2.47-.57,3.72-.78,4.25-.73,8.55-1.3,12.77-2.2,2-.42,3.71-1.93,5.94-1.7.2,0,.46-.44.69-.68-.27-.21-.51-.54-.8-.6-1.82-.34-3.67-.54-5.48-.95-5.89-1.37-12.1-.37-17.88-2.53-7.34-2.75-14.52-5.58-20.77-10.69a142.17,142.17,0,0,1-15.45-14.59,2.46,2.46,0,0,0-.87-.68c-3.89-1.47-5.21-4.86-6.37-8.41a8.75,8.75,0,0,0-1.52-2.88,12.42,12.42,0,0,1-3.16-5.81,12.83,12.83,0,0,0-1.21-3.12c-1.69-3.56-1.18-7.47-1.78-11.21-.56-3.46-1-6.95-1.42-10.42a19.51,19.51,0,0,1-.36-3.11c.27-8.58.59-17.16.9-25.75,1.58-2.67.84-6.11,3.06-8.67a9.09,9.09,0,0,0,1.77-4.52,40.74,40.74,0,0,1,4.7-13.7A90.24,90.24,0,0,1,252.76,254a31.35,31.35,0,0,0,2.45-4.27,12.4,12.4,0,0,1,1.49-2.21c4.17-4.37,8.38-8.71,12.58-13,.88-.92,1.85-1.76,2.68-2.71,5-5.7,11.4-9.84,16.81-15.08,1.93-1.87,4-3.64,6-5.43,2.5-2.22,4.94-4.54,7.59-6.57a29.72,29.72,0,0,1,5.3-2.87c3-1.42,5.93-2.82,8.94-4.12a49.35,49.35,0,0,1,14.56-4.23c1.88-.19,3.66-1.2,5.54-1.66a47.68,47.68,0,0,1,7.23-1.44c7.65-.66,15.31-1.07,23-1.69,5.06-.41,10.09-1,15.14-1.53.88-.09,1.78,0,2.66,0,4.1,0,8.2-.14,12.3-.16a16.78,16.78,0,0,1,4.44.26c4.16,1.11,8.28.76,12.47.34a15.53,15.53,0,0,1,6,.39,22.45,22.45,0,0,0,9.32.5,8.51,8.51,0,0,1,4.5.67c2,.84,4.36.81,6.55,1.28,1.59.34,3.14.89,4.71,1.34a10,10,0,0,0,1.07.3c4.33.72,8.71,1.22,13,2.22,2.88.67,5.57,2.09,8.38,3.07,2.6.92,5.25,1.68,7.87,2.54,5.59,1.84,11.15,3.75,16.77,5.51a21.72,21.72,0,0,1,7.23,3.41,7.51,7.51,0,0,0,2.85,1.23c5.29,1.24,9.43,4.5,13.32,8a40.33,40.33,0,0,1,9.69,12.74c1.41,2.89,3.8,5.3,5.66,8a10.16,10.16,0,0,1,1.53,3.18c1.1,4.18,2.3,8.36,3,12.61.86,5.23,1.42,10.52,1.78,15.81.16,2.25-.5,4.56-.8,6.84-.13.95-.24,1.92-.46,2.86-.43,1.86-1,3.7-1.37,5.58-.55,2.9-1.68,5.61-1.66,8.73,0,2.47-1.09,5.07-2.18,7.39A96.49,96.49,0,0,1,522,315.59c-3.89,5.57-8.22,10.82-12,16.45a94.16,94.16,0,0,1-8.58,10.58c-2.66,3-4.83,6.38-7.26,9.57-.63.83-1.4,1.55-2.06,2.36a6,6,0,0,0-.61,1.12,4.34,4.34,0,0,0,1.38.41c1.64-.12,3.28-.29,4.91-.55,7.16-1.13,14.32-2.23,21.46-3.48a47.67,47.67,0,0,0,6.24-1.8c6-1.93,12-3.59,17.85-5.91a206.55,206.55,0,0,0,22.64-10.21,73.94,73.94,0,0,0,17.42-12.89c3.81-3.9,7.63-7.8,11.32-11.82,1.76-1.91,3.13-4.19,4.88-6.11,2.25-2.47,4.73-4.74,7.05-7.15a3.83,3.83,0,0,0,1.23-2c.23-3.48,2.37-6,3.88-8.93a81.94,81.94,0,0,0,3.71-9.54,1.87,1.87,0,0,0,0-1.32c-1.12-2.44-.56-4.73.19-7.17a11.57,11.57,0,0,0,.2-5.3c-.71-3.89-1.85-7.69-2.65-11.57a28.07,28.07,0,0,0-5.33-11.5,20.65,20.65,0,0,0-13-8.08c-1.69-.28-3.44-.32-5.1-.71-3.44-.8-6.49.47-9.56,1.61a17.81,17.81,0,0,0-3.74,2,10.35,10.35,0,0,0-2.8,2.5c-2.17,3.2-1.74,4.57,1.8,5.94a48.24,48.24,0,0,0,24.47,2.6c1.76-.25,3.47-.9,5.23-1.13,1.13-.16,2.47-.26,3.18,1.06.79,1.47.68,4.35-.36,5.28a13,13,0,0,1-7.92,3.63c-2.39.14-4.79,0-7.18,0ZM419.67,240.55l-21.7.92a6.79,6.79,0,0,0-.89.12c-6.29,1.22-12.58,2.46-18.87,3.65-5.14,1-10.41,1.44-15.39,2.91-5.19,1.53-10.66,2.46-15.33,5.5A5.14,5.14,0,0,1,346,254a37.24,37.24,0,0,0-3.66,1c-3.7,1.39-7.39,2.84-11.07,4.3-5.55,2.2-11.11,4.37-16.62,6.68-3.21,1.35-6.37,2.8-8.7,5.65a9.88,9.88,0,0,1-3.64,2.52,12.83,12.83,0,0,0-7.16,7c-.71,1.72-1.75,3.29-2.54,5-2.33,4.92-4.87,9.76-6.81,14.83a49.52,49.52,0,0,0-3,11.9c-.61,5.25-.42,10.59-.59,15.9,0,1.27-.14,2.53-.2,3.8-.29,6.5.11,12.85,4.13,18.39a1.91,1.91,0,0,1,.38.8c.47,3.59,2.7,6.2,4.86,8.9,1.48,1.86,2.72,3.93,4.19,5.81,1.92,2.45,3.64,5.2,6,7.11,4.7,3.78,9.77,7.13,14.77,10.54,1.83,1.25,3.91,2.13,5.81,3.29a3.08,3.08,0,0,1,1.23,1.65c.59,2.2.83,2.38,2.71,1s3.85-3.09,5.85-4.52c.94-.66,2.15-1.54,3.13-1.42,2.86.35,5.5-.5,8.16-1.06A151.82,151.82,0,0,0,363,377.59c8.71-3.08,17.76-5.23,26.75-7.44a106.25,106.25,0,0,1,14.34-2.29c6.76-.7,13.55-1.09,20.33-1.58,2.53-.19,5.07-.25,7.6-.4,6.79-.4,13.57-.85,20.36-1.2,4.47-.23,9-.3,13.43-.49a3.84,3.84,0,0,0,3.79-3.9c-.06-2.9-.33-5.81.5-8.64a13.52,13.52,0,0,1,1.55-4.06c1.71-2.43,3.75-4.63,5.59-7,2.49-3.17,5-6.31,7.35-9.59a86.67,86.67,0,0,0,6.49-9.92c1.44-2.73,2-5.91,3.16-8.81,2.36-5.89,2.53-12.07,2.76-18.26a5,5,0,0,0-.1-1.34c-1.33-5.56-1.78-11.29-3.58-16.76-.71-2.19-.87-4.57-1.66-6.72-1.8-4.93-5.36-8.39-9.92-10.83-4.88-2.61-9.83-5.07-14.67-7.74a39.8,39.8,0,0,0-13.17-4.83c-4.73-.73-9.48-1.43-14.12-2.55A96,96,0,0,0,419.67,240.55Zm92.08,270.73,0,.34,14.77-.65c3.14-.14,6.27-.27,9.4-.45,1.81-.11,2.24-.63,2-2.4a8.75,8.75,0,0,0-.39-1.74c-1.43-4.56-2.93-9.11-4.29-13.69a44.13,44.13,0,0,0-7-14.44,24.48,24.48,0,0,1-2.5-4.66c-.8-1.75-1.27-3.67-2.19-5.35-1.69-3.07-3.64-6-5.41-9-3.66-6.25-7.38-12.46-10.86-18.81-1.31-2.39-1.89-5.16-3-7.65-.79-1.74-1.62-3.7-3-4.84a11.34,11.34,0,0,1-3.09-4.5,33.55,33.55,0,0,0-2.63-4.31c-.6-.93-1.63-1.71-1.87-2.71-.87-3.52-3.15-6.22-4.92-9.23-2-3.41-4.13-6.75-5.87-10.29-3.39-6.87-7.09-13.49-12.69-18.85a7.39,7.39,0,0,1-2.7-4.52,1.48,1.48,0,0,0-1.66-1.44c-.6,0-1.2-.05-1.8,0l-30.9.94c-.6,0-1.19.13-1.78.2-3.91.51-7.81,1.09-11.73,1.51-6.38.69-12.79,1.12-19.15,1.93a143.23,143.23,0,0,0-16.75,2.85c-6.35,1.59-12.54,3.86-18.78,5.89-2.83.92-5.59,2.07-8.44,2.93-4.21,1.26-8.47,2.37-12.71,3.53a3.3,3.3,0,0,0-2.74,3.3c-.21,3.19-.35,6.41-1.83,9.39a8.69,8.69,0,0,0-.37,2.64c-.44,3.18-.54,6.45-1.39,9.51-2,7-4,14.08-6.58,20.92-1.4,3.74-1.76,8.09-5.15,11-.3.25-.31.82-.48,1.24q-3.45,8.75-6.92,17.48c-1.33,3.39-3.26,6.55-3.65,10.3a13.6,13.6,0,0,1-1.37,3.77c-2.17,4.91-4.35,9.81-6.58,14.69q-2.15,4.68-4.43,9.29c-2.12,4.27-4.43,8.45-6.43,12.77a5.58,5.58,0,0,0,4.89,7.72,5.3,5.3,0,0,0,.89,0c4.4-.58,8.81-1,13.18-1.79,4-.68,7.86-1.75,11.81-2.48q9.15-1.68,18.33-3.13c10.46-1.65,20.92-3.32,31.4-4.78,5.1-.71,10.28-.76,15.37-1.45,9.44-1.28,18.93-1.39,28.41-1.56,9-.16,18.05.29,27.07.36,6.64.06,13.28,0,19.93-.08.67,0,1.34-.08,2-.07,6,.07,12.08.07,18.12.25,4.92.14,9.83.64,14.75.7C504,511.83,507.88,511.46,511.75,511.28ZM242,314.4c.28,3.47.61,8.16,1.05,12.84a77.66,77.66,0,0,0,1.08,7.73c1.08,5.45,1.67,11.07,5,15.84a5,5,0,0,1,.41,1q.95,2.59,1.9,5.19c1.56,4.2,4.59,7.21,7.78,10.22,2.49,2.34,5.83,4,6.92,7.66.11.39.75.69,1.2.92,3.94,2,7.92,4,12.32,4.68,3.17.52,6.37.85,9.57,1.17a19.42,19.42,0,0,0,3.81,0c2.22-.21,2.78-1.52,1.49-3.29-.7-1-1.32-2-2.08-2.92-2.53-3-5.27-5.91-7.62-9.07A45,45,0,0,1,277,351.32c-1-3.91-1.06-8.12-1.23-12.21-.19-4.47-.06-8.95-2-13.17a6,6,0,0,1-.19-2.65c.06-1.78.18-3.57.35-5.35a24.59,24.59,0,0,1,.61-3.73c1.43-5.31,2.76-10.66,4.44-15.9a107.42,107.42,0,0,1,4.49-11.16c.6-1.31,1.9-2.28,2.74-3.5,1.89-2.76,3.48-5.76,5.59-8.34,5.81-7.1,13.2-12.27,21.3-16.43,4.64-2.38,9.43-4.47,14.16-6.69a11.21,11.21,0,0,1,1.26-.47c2.74-.93,5.49-1.83,8.22-2.78,6-2.08,11.93-4.33,18-6.21,5.28-1.64,10.64-3,16-4.24s10.58-1.93,15.89-2.81c3.9-.64,7.8-1.22,11.72-1.77,3-.42,6.07-.73,9.1-1.12a34.78,34.78,0,0,1,3.75-.51c4.7-.07,9.4-.19,14.09,0a95.42,95.42,0,0,1,19.53,2.51c2.74.69,5.58.93,8.34,1.53,3.93.85,7.89,1.65,11.73,2.81,3.49,1.05,6.78,2.77,10.28,3.8a40.47,40.47,0,0,1,11.45,5.39,45,45,0,0,1,6.36,5.24,8,8,0,0,1,1.66,3.52c.91,3.24,2.29,6.16,5.2,8a4.46,4.46,0,0,1,2.26,3.82c.32,4.77,1,9.52,1.25,14.29.41,6.85,1,13.74.74,20.58-.16,3.35-.92,6.79-1.35,10.2-.46,3.59-2.3,7.06-3.88,10.42-.88,1.89-2.2,3.5-2.08,5.77a5.08,5.08,0,0,1-.85,2.27,32.45,32.45,0,0,1-1.82,3.06c-1.21,1.78-2.11,4.11-3.79,5.16-3.45,2.17-4.73,5.86-7.19,8.68-.34.4-.1,1.31-.13,2,.67-.17,1.51-.14,2-.54a35.07,35.07,0,0,0,3.76-3.85c3.87-4.63,7.73-9.28,11.48-14,2.91-3.67,5.68-7.47,8.46-11.25,2.24-3,4.41-6.13,6.6-9.22a16.74,16.74,0,0,0,1.14-1.92c1.57-2.89,2.87-6,4.75-8.63a19,19,0,0,0,3.26-11.42,19,19,0,0,1,.58-3,12.6,12.6,0,0,0,.53-3.88,12.74,12.74,0,0,1,.61-6.16,11.16,11.16,0,0,0,.83-4.35c-.62-6.23-1.32-12.46-2.32-18.64a44.22,44.22,0,0,0-2.66-8.95c-1.09-2.76-2.71-5.31-3.95-8-.54-1.2-.45-2.72-1.09-3.85-2.34-4.15-6.13-7.07-10.09-9.29-5-2.82-11-3.8-15.78-7.27a1.7,1.7,0,0,0-.41-.18c-4.88-2.06-9.78-4.11-14.66-6.2-4.44-1.89-8.77-4.09-13.31-5.69A111.21,111.21,0,0,0,450,201.64a34.77,34.77,0,0,0-7.77-1,73.52,73.52,0,0,1-16-1.83c-8.91-1.83-18-1.95-27-2.21-6.27-.19-12.56.13-18.83.41s-12.66.74-19,1.28c-2.82.24-5.58.94-8.39,1.32-3.18.44-6.38.69-9.56,1.13-3.76.52-7.51,1.13-11.26,1.75-1.83.3-3.87.31-5.42,1.16-4.76,2.62-10.34,3.66-14.5,7.43a4.61,4.61,0,0,1-1,.53c-3,1.54-5.9,3.17-8.93,4.6-5.38,2.52-9.61,6.55-13.8,10.59-3.16,3.06-6.2,6.28-9.12,9.57-3.67,4.13-7.32,8.3-10.7,12.66-4,5.12-7.64,10.48-11.49,15.7s-8,10.41-9.75,16.9a3.72,3.72,0,0,1-.34.83c-2.72,5.12-3.49,10.81-4.35,16.38C242.08,303.54,242.26,308.38,242,314.4Zm-113.37-16a51.7,51.7,0,0,0,16.66-3.86c1.72-.67,3.46-1.29,5.2-1.87a10,10,0,0,0,4.58-2.65,23,23,0,0,1,3-2.26,26,26,0,0,0,3-2.59c2.44-2.61,4.8-5.3,7.15-8a24.67,24.67,0,0,0,2.32-3A128,128,0,0,0,177.22,263c.92-1.89,1.5-4.57.88-6.45-1.2-3.62-2.79-7.42-5.23-10.28-8.29-9.74-16.73-10.39-27.92-7.36-2.8,2.14-6.13,3.25-9.23,4.81-5.92,3-10.3,8.05-15.16,12.42a15.57,15.57,0,0,0-5.2,9.43,12,12,0,0,1-1.53,4.65,15.14,15.14,0,0,0-2.26,9c.06,1.63-.31,3.28-.25,4.91,0,1,.26,2.31.9,2.78,2.28,1.66,3.58,4,5,6.26,1.52,2.52,3.46,4.49,6.66,4.69C125.5,298,127.13,298.19,128.61,298.35Z" transform="translate(-95.5 -186.95)"/><path class="cls-1" d="M427.48,258.69c5.38.08,9.58,1.71,13.06,5.14l1.44,1.41a2,2,0,0,0,3.12-.06c1.93-2,3.85-4,5.89-5.85a40,40,0,0,1,5.87-4.79c1-.65,2.69-.47,4.05-.4.39,0,1,.9,1.07,1.44a6.22,6.22,0,0,1-1.75,5.54c-3.66,3.54-7.21,7.18-10.81,10.77a5.22,5.22,0,0,0-1.08,1.13,9.74,9.74,0,0,0-.52,2c.73.08,1.63.46,2.17.18a42.73,42.73,0,0,0,5.73-3.49c3.47-2.59,6.8-5.36,10.21-8a5.85,5.85,0,0,1,2.1-1.18,1.9,1.9,0,0,1,2.56,1.75c.29,2.95-.12,5.61-2.87,7.51-5.1,3.52-10,7.29-15.19,10.7-2.18,1.42-.73,2.83-.62,4.28s1.21,1.77,2.42,1.59c3.47-.5,6.93-1.08,10.4-1.6,4.06-.61,8.13-1.23,12.2-1.78a8.82,8.82,0,0,1,2.9.05c2.29.47,3.17,2.63,1.71,4.42A16.83,16.83,0,0,1,478.3,292c-.35.26-1,.23-1.21.54-1.57,2.23-3.9,2-6.11,1.85-6.24-.28-12.1,1.64-18.09,2.87a4,4,0,0,0-.62.25c-.85.35-2.08,1.23-2.5.94a8.83,8.83,0,0,1-3.13-3.33,27.22,27.22,0,0,1-1.88-6.67,38.45,38.45,0,0,0-4.14-11.78,13.31,13.31,0,0,0-5.93-5.94c-.41-.19-.79-.42-1.18-.65-6.36-3.77-13-3.05-18.39,2.05a46.14,46.14,0,0,0-6.12,6.23,57.6,57.6,0,0,0-5.58,9.66c-2.23,4.88-4.08,9.94-6.05,14.95-.71,1.79-1.74,2.73-3.22,2.59a3,3,0,0,1-2.76-2.8,5,5,0,0,1,.05-2.61,49.06,49.06,0,0,0,3.35-11.1c.57-4,3.28-7,5.22-10.33,2.37-4.08,5.59-7.5,8.79-10.94,4.25-4.55,9.63-7,15.43-8.65A17.7,17.7,0,0,1,427.48,258.69Z" transform="translate(-95.5 -186.95)"/><path class="cls-1" d="M309,326.56a32,32,0,0,0,.3,4.92,13.8,13.8,0,0,0,1.72,4.48c1.62,2.61,2,4.4.86,6s-3.81,2.35-6.31,1.87c-3.73-.71-7.49-1.22-11.25-1.8-.66-.1-1.34-.07-2-.16-2.9-.36-3.67-1.26-3.52-4.07.09-1.65,2.07-3.42,4-3.43,2.31,0,4.63.2,6.94.19s2.85-.43,2.88-2.9c0-2.25-.05-4.49,0-6.73a2.29,2.29,0,0,0-1.93-2.56c-4.22-1.26-8.41-2.59-12.61-3.9-2.52-.79-3.13-1.41-3.26-3.62-.11-2,1.19-3.15,2.64-4.11a4.57,4.57,0,0,1,4.09-.41c3.27,1.06,6.54,2.11,9.84,3.1,1,.29,2.17,1.22,2.91-.24s-.15-2.51-1.72-3.23a9,9,0,0,1-2.2-1.47c-1.89-1.7-3.71-3.47-5.57-5.19a3.73,3.73,0,0,1-.56-4.87,8.08,8.08,0,0,1,4.76-3.16,4.19,4.19,0,0,1,4.48,1.27c.76.92,1.57,1.81,2.35,2.71,1.26,1.46,1.68,1.54,3,.15,3-3.05,5.69-6.38,8.86-9.19,5.1-4.52,10.68-8,18-7.74,6.09.19,11.14,2.22,14.84,7a118.7,118.7,0,0,1,7.22,10.8,3.6,3.6,0,0,1-.12,3.07,10.6,10.6,0,0,1-2.86,3.08c-2,1.52-3.3,1.22-4.56-1-2.37-4.1-5.66-7.46-8.75-11-4.56-5.19-13.68-4.3-17.23.1-1.49,1.85-3.32,3.43-4.92,5.21-3.16,3.53-4.45,8.07-6.49,12.2a29.4,29.4,0,0,1-1.64,2.89c-1.67,2.54-1.84,5.47-2.19,8.35a29,29,0,0,0,0,3.36Z" transform="translate(-95.5 -186.95)"/><path class="cls-1" d="M339.23,366.45a27,27,0,0,1,2.1-4.28,106.27,106.27,0,0,1,8.16-10.64c4.09-4.39,7.81-9.27,13.67-11.71,3.2-1.34,6.11-3.37,9.26-4.85a70.77,70.77,0,0,1,6.73-2.41c2.54-.88,5-1.91,7.61-2.62,5.75-1.56,11.45,0,17.13.62A75.64,75.64,0,0,1,414,332.65a27.76,27.76,0,0,1,9.72,5c3.7,2.74,5.24,6.78,6.59,10.94.67,2.06,1.35,4.12,1.91,6.21s0,3.21-1.8,3.56a3,3,0,0,1-3.6-2.55,16.31,16.31,0,0,0-1.82-5.92c-3.43-6.6-9-10.2-16-11.9a54.09,54.09,0,0,0-23.58-.3c-6.55,1.32-13.11,3.6-18.35,7.92a64.28,64.28,0,0,1-7.76,5.41c-4,2.45-6.52,6.32-9.26,9.93-1.48,2-2.59,4.2-4.13,6.11a7.58,7.58,0,0,1-3.49,2.5C340.43,370.11,339.58,369,339.23,366.45Z" transform="translate(-95.5 -186.95)"/><path class="cls-1" d="M381.25,308.6c.37.1,1.21.09,1.61.5,1.71,1.72,4,2.89,4.86,5.44.72,2.09,1.91,4,2.73,6.1.5,1.23.52,2.67-.87,3.35a2.78,2.78,0,0,1-3.6-.92c-.86-1.13-1.65-2.31-2.52-3.43a13.13,13.13,0,0,0-2-2.34,2.68,2.68,0,0,0-4.14.3,23,23,0,0,0-3.29,4.17c-1.42,2.55-2.51,3.49-3.88,2.75-1.94-1.06-2.5-4.15-1-6.13,1.85-2.35,3.86-4.56,5.79-6.85a7.1,7.1,0,0,1,5.34-2.88Z" transform="translate(-95.5 -186.95)"/><path class="cls-1" d="M477.83,425.55c0,3.54-.5,4.2-3.79,5.4l-.21.07c-5.08,2.33-10.27,4.44-15.2,7.06a70.51,70.51,0,0,0-8.93,6.28c-1.65,1.25-1.68,2.18-.35,3.73,2.45,2.82,5,5.55,7.42,8.39,3.23,3.81,6.37,7.69,9.55,11.54a2.76,2.76,0,0,0,.41.53c4.54,3.21,4.16,8.23,4.21,12.77.05,4.23-3,6.07-8.13,5.93a24.93,24.93,0,0,1-8.48-1.9c-7.39-3-14.67-6.32-21.93-9.65a38.32,38.32,0,0,1-4.84-3.17,43.73,43.73,0,0,0-4.92-3.11,15.41,15.41,0,0,1-7.05-6.65c-2.25-4.16-6.32-6-10.09-8.23-.88-.51-2.43-.06-3.63.2-1.51.31-2.95.95-4.45,1.32A14.88,14.88,0,0,0,391,459a34.64,34.64,0,0,1-4.32,2.79c-1.75,1.11-3.5,2.23-5.27,3.32a4,4,0,0,1-1.41.64c-2.72.38-4.49,2.13-6.28,4a15.41,15.41,0,0,1-3.56,2.63c-4.28,2.42-8.6,4.76-12.93,7.07a16.63,16.63,0,0,1-3.71,1.54c-2.08.53-3.47-.66-3.65-2.79-.2-2.42,1.1-4.33,2.25-6.21,3.08-5,6.35-9.95,9.39-15a46.88,46.88,0,0,0,2.27-5.33c.42-.95,1-1.82,1.51-2.74.65-1.23,1.23-2.51,1.91-3.72s1.56-2.52,2.27-3.81a17.34,17.34,0,0,0,.82-2.15,7.79,7.79,0,0,0-2.22-.62c-3.07,0-6.12.26-9.19.31a33.79,33.79,0,0,1-4-.29c-1.48-.14-2.73-.52-3.24-2.22-.19-.62-.94-1.1-1.49-1.59a5.2,5.2,0,0,1-2-5.18,4.91,4.91,0,0,1,3.79-3.73,93.19,93.19,0,0,0,10.44-3.32c4.34-1.9,8.45-4.33,12.67-6.52a15.36,15.36,0,0,1,3-1.41,3.82,3.82,0,0,0,2.83-2.52,10.4,10.4,0,0,1,2.48-3.33c2.3-2.22,4.86-4.17,7.09-6.45,4-4.12,7.74-8.52,11.84-12.55,2.54-2.49,5.74-4.31,8.29-6.79s5.32-2.88,8.35-3.25c2.12-.26,2.18.23,2.87,2.15,1.65,4.65,1.26,9.42,1.32,14.18.05,3.95,2.23,6.87,4.57,9.73,2.79,3.4,6.57,5,10.77,5.92q16,3.34,32,6.75a23.75,23.75,0,0,1,3.39,1.15C476.89,420.8,477.86,422.27,477.83,425.55ZM366,430.36l.08-.43,7.26,1.19a6.82,6.82,0,0,1,5.07,9.54c-1.64,3.26-3.74,6.29-5.34,9.57a50.54,50.54,0,0,1-9.61,13.38,1.94,1.94,0,0,0-.33,2.78,2.61,2.61,0,0,0,2.39.12c2.65-1.34,5.22-2.84,7.76-4.38,2.11-1.28,4.12-2.72,6.19-4.05,3.26-2.1,6.72-3.95,9.78-6.3a32,32,0,0,1,11.18-5.48A12.09,12.09,0,0,1,413.74,452a4,4,0,0,0,1.2,1.58c4.39,2.66,7.9,6.35,11.7,9.71a13.39,13.39,0,0,0,2.81,1.82c2.57,1.33,5.36,2.33,7.76,3.91a40.91,40.91,0,0,0,11.45,5c2.87.83,5.49,1.74,7.51,4.11a4.18,4.18,0,0,0,5.5.19,3.91,3.91,0,0,0-.07-5.47c-.91-1.08-1.73-2.23-2.62-3.33-2.46-3-4.89-6-7.43-8.94-2.24-2.6-4.68-5-6.91-7.64a9.71,9.71,0,0,1-1.4-10.92,31.41,31.41,0,0,1,3.64-5.81,7.5,7.5,0,0,1,2.78-2c3.36-1.6,6.8-3,10.17-4.61a10.74,10.74,0,0,0,2.6-1.71c.51-.46,1.14-1.28,1-1.8s-1.06-1-1.71-1.12c-1.92-.41-3.81-.72-5-2.56a2.48,2.48,0,0,0-1.35-.74c-2.21-.66-4.43-1.34-6.68-1.88-4.5-1.09-9.08-1.9-13.53-3.17-5.23-1.49-9.71-4.19-12.41-9.24-1-1.82-2.31-3.44-3.4-5.2a6.08,6.08,0,0,1-.9-2.25c-.36-2.66-.52-5.35-.92-8-.15-1-.54-2.7-1.13-2.85a5.56,5.56,0,0,0-4,.45c-5.22,3.54-9.37,8.28-13.68,12.85-3.43,3.64-6.91,7.24-10.57,10.63-1.34,1.24-2.81,2.21-3.09,4.15a4.26,4.26,0,0,1-2.55,3.45c-5.62,2.61-11.26,5.17-16.87,7.77-.89.42-1.71,1-2.57,1.46Z" transform="translate(-95.5 -186.95)"/></svg>