<svg xmlns="http://www.w3.org/2000/svg" xmlns:xlink="http://www.w3.org/1999/xlink" viewBox="0 0 835.2 115.2"><defs><style>.cls-1{fill:url(#linear-gradient);}.cls-2,.cls-3{opacity:0.25;}.cls-10,.cls-11,.cls-12,.cls-13,.cls-14,.cls-15,.cls-16,.cls-17,.cls-18,.cls-19,.cls-20,.cls-21,.cls-22,.cls-23,.cls-24,.cls-25,.cls-26,.cls-27,.cls-28,.cls-29,.cls-3,.cls-4,.cls-5,.cls-6,.cls-7,.cls-8,.cls-9{fill:#929497;}.cls-4{opacity:0.24;}.cls-5{opacity:0.24;}.cls-6{opacity:0.23;}.cls-7{opacity:0.23;}.cls-8{opacity:0.22;}.cls-9{opacity:0.22;}.cls-10{opacity:0.21;}.cls-11{opacity:0.2;}.cls-12{opacity:0.2;}.cls-13{opacity:0.19;}.cls-14{opacity:0.19;}.cls-15{opacity:0.18;}.cls-16{opacity:0.18;}.cls-17{opacity:0.17;}.cls-18{opacity:0.16;}.cls-19{opacity:0.16;}.cls-20{opacity:0.15;}.cls-21{opacity:0.15;}.cls-22{opacity:0.14;}.cls-23{opacity:0.13;}.cls-24{opacity:0.13;}.cls-25{opacity:0.12;}.cls-26{opacity:0.12;}.cls-27{opacity:0.11;}.cls-28{opacity:0.11;}.cls-29{opacity:0.1;}.cls-30{fill:url(#linear-gradient-2);}.cls-31{fill:url(#linear-gradient-3);}.cls-32{fill:url(#linear-gradient-4);}.cls-33{fill:url(#linear-gradient-5);}.cls-34{font-size:12px;fill:#e4df95;font-family:HGSoeiKakugothicUB, HGSoeiKakugothicUB;font-weight:700;}.cls-35{fill:#ebaed1;}.cls-36{fill:#e3e4e7;}.cls-37{fill:#a6e37a;}.cls-38{fill:#ecebd1;}.cls-39{fill:#d69d99;}</style><linearGradient id="linear-gradient" x1="417.6" x2="417.6" y2="115.2" gradientUnits="userSpaceOnUse"><stop offset="0" stop-color="#929497" stop-opacity="0.25"/><stop offset="0.08" stop-color="#868895" stop-opacity="0.35"/><stop offset="0.35" stop-color="#626590" stop-opacity="0.63"/><stop offset="0.61" stop-color="#484c8c" stop-opacity="0.83"/><stop offset="0.83" stop-color="#393c8a" stop-opacity="0.96"/><stop offset="1" stop-color="#333789"/></linearGradient><linearGradient id="linear-gradient-2" x1="-417.6" y1="114.12" x2="417.6" y2="114.12" gradientTransform="translate(208.8) scale(0.5 1)" gradientUnits="userSpaceOnUse"><stop offset="0" stop-color="#f1f1f2" stop-opacity="0"/><stop offset="0.25" stop-color="#fff"/></linearGradient><linearGradient id="linear-gradient-3" x1="417.6" y1="114.12" x2="1252.8" y2="114.12" gradientTransform="matrix(0.5, 0, 0, -1, 208.8, 228.24)" xlink:href="#linear-gradient-2"/><linearGradient id="linear-gradient-4" x1="-417.6" y1="1.08" x2="417.6" y2="1.08" xlink:href="#linear-gradient-2"/><linearGradient id="linear-gradient-5" x1="417.6" y1="1.08" x2="1252.8" y2="1.08" gradientTransform="matrix(0.5, 0, 0, -1, 208.8, 2.16)" xlink:href="#linear-gradient-2"/></defs><title>ui</title><g id="Layer_2" data-name="Layer 2"><g id="Layer_2-2" data-name="Layer 2"><rect class="cls-1" width="835.2" height="115.2"/><rect class="cls-2" width="835.2" height="115.2"/><polygon class="cls-3" points="417.6 113.04 0 113.04 0 115.2 417.6 115.2 835.2 115.2 835.2 113.04 417.6 113.04"/><polygon class="cls-4" points="417.6 108.69 0 108.69 0 110.85 417.6 110.85 835.2 110.85 835.2 108.69 417.6 108.69"/><polygon class="cls-5" points="417.6 104.34 0 104.34 0 106.5 417.6 106.5 835.2 106.5 835.2 104.34 417.6 104.34"/><polygon class="cls-6" points="417.6 100 0 100 0 102.16 417.6 102.16 835.2 102.16 835.2 100 417.6 100"/><polygon class="cls-7" points="417.6 95.65 0 95.65 0 97.81 417.6 97.81 835.2 97.81 835.2 95.65 417.6 95.65"/><polygon class="cls-8" points="417.6 91.3 0 91.3 0 93.46 417.6 93.46 835.2 93.46 835.2 91.3 417.6 91.3"/><polygon class="cls-9" points="417.6 86.95 0 86.95 0 89.11 417.6 89.11 835.2 89.11 835.2 86.95 417.6 86.95"/><polygon class="cls-10" points="417.6 82.61 0 82.61 0 84.77 417.6 84.77 835.2 84.77 835.2 82.61 417.6 82.61"/><polygon class="cls-11" points="417.6 78.26 0 78.26 0 80.42 417.6 80.42 835.2 80.42 835.2 78.26 417.6 78.26"/><polygon class="cls-12" points="417.6 73.91 0 73.91 0 76.07 417.6 76.07 835.2 76.07 835.2 73.91 417.6 73.91"/><polygon class="cls-13" points="417.6 69.56 0 69.56 0 71.72 417.6 71.72 835.2 71.72 835.2 69.56 417.6 69.56"/><polygon class="cls-14" points="417.6 65.22 0 65.22 0 67.38 417.6 67.38 835.2 67.38 835.2 65.22 417.6 65.22"/><polygon class="cls-15" points="417.6 60.87 0 60.87 0 63.03 417.6 63.03 835.2 63.03 835.2 60.87 417.6 60.87"/><polygon class="cls-16" points="417.6 56.52 0 56.52 0 58.68 417.6 58.68 835.2 58.68 835.2 56.52 417.6 56.52"/><polygon class="cls-17" points="417.6 52.17 0 52.17 0 54.33 417.6 54.33 835.2 54.33 835.2 52.17 417.6 52.17"/><polygon class="cls-18" points="417.6 47.83 0 47.83 0 49.98 417.6 49.98 835.2 49.98 835.2 47.83 417.6 47.83"/><polygon class="cls-19" points="417.6 43.48 0 43.48 0 45.64 417.6 45.64 835.2 45.64 835.2 43.48 417.6 43.48"/><polygon class="cls-20" points="417.6 39.13 0 39.13 0 41.29 417.6 41.29 835.2 41.29 835.2 39.13 417.6 39.13"/><polygon class="cls-21" points="417.6 34.78 0 34.78 0 36.94 417.6 36.94 835.2 36.94 835.2 34.78 417.6 34.78"/><polygon class="cls-22" points="417.6 30.43 0 30.43 0 32.59 417.6 32.59 835.2 32.59 835.2 30.43 417.6 30.43"/><polygon class="cls-23" points="417.6 26.09 0 26.09 0 28.25 417.6 28.25 835.2 28.25 835.2 26.09 417.6 26.09"/><polygon class="cls-24" points="417.6 21.74 0 21.74 0 23.9 417.6 23.9 835.2 23.9 835.2 21.74 417.6 21.74"/><polygon class="cls-25" points="417.6 17.39 0 17.39 0 19.55 417.6 19.55 835.2 19.55 835.2 17.39 417.6 17.39"/><polygon class="cls-26" points="417.6 13.04 0 13.04 0 15.2 417.6 15.2 835.2 15.2 835.2 13.04 417.6 13.04"/><polygon class="cls-27" points="417.6 8.7 0 8.7 0 10.86 417.6 10.86 835.2 10.86 835.2 8.7 417.6 8.7"/><polygon class="cls-28" points="417.6 4.35 0 4.35 0 6.51 417.6 6.51 835.2 6.51 835.2 4.35 417.6 4.35"/><polygon class="cls-29" points="417.6 0 0 0 0 2.16 417.6 2.16 835.2 2.16 835.2 0 417.6 0"/><rect class="cls-30" y="113.04" width="417.6" height="2.16"/><rect class="cls-31" x="417.6" y="113.04" width="417.6" height="2.16" transform="translate(1252.8 228.24) rotate(180)"/><rect class="cls-32" width="417.6" height="2.16"/><rect class="cls-33" x="417.6" width="417.6" height="2.16" transform="translate(1252.8 2.16) rotate(180)"/></g><g id="Layer_4" data-name="Layer 4"><text class="cls-34" transform="translate(5.52 17.31)">Newplayer has entered this web domain.<tspan class="cls-35"><tspan x="0" y="14.4">Webmaster’s data packets hit Newplayer for 2.56mb.</tspan></tspan><tspan class="cls-36"><tspan x="0" y="28.8">Obtained:</tspan><tspan class="cls-35" x="54" y="28.8"> </tspan><tspan class="cls-37" x="60" y="28.8">Cached Image</tspan><tspan x="132" y="28.8">.</tspan></tspan><tspan class="cls-38"><tspan x="0" y="43.2">Newplayer’s web-exploration skill rises 0.1 points.</tspan></tspan><tspan class="cls-39"><tspan x="0" y="57.6">Another user attempted to shout to you, but you are too far away to hear.</tspan></tspan></text></g></g></svg>