<svg xmlns="http://www.w3.org/2000/svg" xmlns:xlink="http://www.w3.org/1999/xlink" viewBox="0 0 835.2 115.2"><defs><style>.cls-1{fill:url(#linear-gradient);}.cls-2,.cls-3{opacity:0.25;}.cls-10,.cls-11,.cls-12,.cls-13,.cls-14,.cls-15,.cls-16,.cls-17,.cls-18,.cls-19,.cls-20,.cls-21,.cls-22,.cls-23,.cls-24,.cls-25,.cls-26,.cls-27,.cls-28,.cls-29,.cls-3,.cls-4,.cls-5,.cls-6,.cls-7,.cls-8,.cls-9{fill:#929497;}.cls-4{opacity:0.24;}.cls-5{opacity:0.24;}.cls-6{opacity:0.23;}.cls-7{opacity:0.23;}.cls-8{opacity:0.22;}.cls-9{opacity:0.22;}.cls-10{opacity:0.21;}.cls-11{opacity:0.2;}.cls-12{opacity:0.2;}.cls-13{opacity:0.19;}.cls-14{opacity:0.19;}.cls-15{opacity:0.18;}.cls-16{opacity:0.18;}.cls-17{opacity:0.17;}.cls-18{opacity:0.16;}.cls-19{opacity:0.16;}.cls-20{opacity:0.15;}.cls-21{opacity:0.15;}.cls-22{opacity:0.14;}.cls-23{opacity:0.13;}.cls-24{opacity:0.13;}.cls-25{opacity:0.12;}.cls-26{opacity:0.12;}.cls-27{opacity:0.11;}.cls-28{opacity:0.11;}.cls-29{opacity:0.1;}.cls-30{fill:url(#linear-gradient-2);}.cls-31{fill:url(#linear-gradient-3);}.cls-32{fill:url(#linear-gradient-4);}.cls-33{fill:url(#linear-gradient-5);}.cls-34{fill:#e4df95;}.cls-35{fill:#ebaed1;}.cls-36{fill:#e3e4e7;}.cls-37{fill:#a6e37a;}.cls-38{fill:#ecebd1;}.cls-39{fill:#d69d99;}</style><linearGradient id="linear-gradient" x1="417.6" x2="417.6" y2="115.2" gradientUnits="userSpaceOnUse"><stop offset="0" stop-color="#929497" stop-opacity="0.25"/><stop offset="0.08" stop-color="#868895" stop-opacity="0.35"/><stop offset="0.35" stop-color="#626590" stop-opacity="0.63"/><stop offset="0.61" stop-color="#484c8c" stop-opacity="0.83"/><stop offset="0.83" stop-color="#393c8a" stop-opacity="0.96"/><stop offset="1" stop-color="#333789"/></linearGradient><linearGradient id="linear-gradient-2" x1="-417.6" y1="114.12" x2="417.6" y2="114.12" gradientTransform="translate(208.8) scale(0.5 1)" gradientUnits="userSpaceOnUse"><stop offset="0" stop-color="#f1f1f2" stop-opacity="0"/><stop offset="0.25" stop-color="#fff"/></linearGradient><linearGradient id="linear-gradient-3" x1="417.6" y1="114.12" x2="1252.8" y2="114.12" gradientTransform="matrix(0.5, 0, 0, -1, 208.8, 228.24)" xlink:href="#linear-gradient-2"/><linearGradient id="linear-gradient-4" x1="-417.6" y1="1.08" x2="417.6" y2="1.08" xlink:href="#linear-gradient-2"/><linearGradient id="linear-gradient-5" x1="417.6" y1="1.08" x2="1252.8" y2="1.08" gradientTransform="matrix(0.5, 0, 0, -1, 208.8, 2.16)" xlink:href="#linear-gradient-2"/></defs><title>ui2</title><g id="Layer_2" data-name="Layer 2"><g id="Layer_2-2" data-name="Layer 2"><rect class="cls-1" width="835.2" height="115.2"/><rect class="cls-2" width="835.2" height="115.2"/><polygon class="cls-3" points="417.6 113.04 0 113.04 0 115.2 417.6 115.2 835.2 115.2 835.2 113.04 417.6 113.04"/><polygon class="cls-4" points="417.6 108.69 0 108.69 0 110.85 417.6 110.85 835.2 110.85 835.2 108.69 417.6 108.69"/><polygon class="cls-5" points="417.6 104.34 0 104.34 0 106.5 417.6 106.5 835.2 106.5 835.2 104.34 417.6 104.34"/><polygon class="cls-6" points="417.6 100 0 100 0 102.16 417.6 102.16 835.2 102.16 835.2 100 417.6 100"/><polygon class="cls-7" points="417.6 95.65 0 95.65 0 97.81 417.6 97.81 835.2 97.81 835.2 95.65 417.6 95.65"/><polygon class="cls-8" points="417.6 91.3 0 91.3 0 93.46 417.6 93.46 835.2 93.46 835.2 91.3 417.6 91.3"/><polygon class="cls-9" points="417.6 86.95 0 86.95 0 89.11 417.6 89.11 835.2 89.11 835.2 86.95 417.6 86.95"/><polygon class="cls-10" points="417.6 82.61 0 82.61 0 84.77 417.6 84.77 835.2 84.77 835.2 82.61 417.6 82.61"/><polygon class="cls-11" points="417.6 78.26 0 78.26 0 80.42 417.6 80.42 835.2 80.42 835.2 78.26 417.6 78.26"/><polygon class="cls-12" points="417.6 73.91 0 73.91 0 76.07 417.6 76.07 835.2 76.07 835.2 73.91 417.6 73.91"/><polygon class="cls-13" points="417.6 69.56 0 69.56 0 71.72 417.6 71.72 835.2 71.72 835.2 69.56 417.6 69.56"/><polygon class="cls-14" points="417.6 65.22 0 65.22 0 67.38 417.6 67.38 835.2 67.38 835.2 65.22 417.6 65.22"/><polygon class="cls-15" points="417.6 60.87 0 60.87 0 63.03 417.6 63.03 835.2 63.03 835.2 60.87 417.6 60.87"/><polygon class="cls-16" points="417.6 56.52 0 56.52 0 58.68 417.6 58.68 835.2 58.68 835.2 56.52 417.6 56.52"/><polygon class="cls-17" points="417.6 52.17 0 52.17 0 54.33 417.6 54.33 835.2 54.33 835.2 52.17 417.6 52.17"/><polygon class="cls-18" points="417.6 47.83 0 47.83 0 49.98 417.6 49.98 835.2 49.98 835.2 47.83 417.6 47.83"/><polygon class="cls-19" points="417.6 43.48 0 43.48 0 45.64 417.6 45.64 835.2 45.64 835.2 43.48 417.6 43.48"/><polygon class="cls-20" points="417.6 39.13 0 39.13 0 41.29 417.6 41.29 835.2 41.29 835.2 39.13 417.6 39.13"/><polygon class="cls-21" points="417.6 34.78 0 34.78 0 36.94 417.6 36.94 835.2 36.94 835.2 34.78 417.6 34.78"/><polygon class="cls-22" points="417.6 30.43 0 30.43 0 32.59 417.6 32.59 835.2 32.59 835.2 30.43 417.6 30.43"/><polygon class="cls-23" points="417.6 26.09 0 26.09 0 28.25 417.6 28.25 835.2 28.25 835.2 26.09 417.6 26.09"/><polygon class="cls-24" points="417.6 21.74 0 21.74 0 23.9 417.6 23.9 835.2 23.9 835.2 21.74 417.6 21.74"/><polygon class="cls-25" points="417.6 17.39 0 17.39 0 19.55 417.6 19.55 835.2 19.55 835.2 17.39 417.6 17.39"/><polygon class="cls-26" points="417.6 13.04 0 13.04 0 15.2 417.6 15.2 835.2 15.2 835.2 13.04 417.6 13.04"/><polygon class="cls-27" points="417.6 8.7 0 8.7 0 10.86 417.6 10.86 835.2 10.86 835.2 8.7 417.6 8.7"/><polygon class="cls-28" points="417.6 4.35 0 4.35 0 6.51 417.6 6.51 835.2 6.51 835.2 4.35 417.6 4.35"/><polygon class="cls-29" points="417.6 0 0 0 0 2.16 417.6 2.16 835.2 2.16 835.2 0 417.6 0"/><rect class="cls-30" y="113.04" width="417.6" height="2.16"/><rect class="cls-31" x="417.6" y="113.04" width="417.6" height="2.16" transform="translate(1252.8 228.24) rotate(180)"/><rect class="cls-32" width="417.6" height="2.16"/><rect class="cls-33" x="417.6" width="417.6" height="2.16" transform="translate(1252.8 2.16) rotate(180)"/></g><g id="Layer_4" data-name="Layer 4"><path class="cls-34" d="M6,17.69V8.08H7.44l2.16,6v-6h1.31v9.61H9.6L7.3,11.5v6.19Z"/><path class="cls-34" d="M16.53,14.64h-3a4,4,0,0,0,.23,1.13c.13.31.28.5.47.56a.5.5,0,0,0,.52-.14,1.2,1.2,0,0,0,.37-.66h1.36c-.34,1.5-1.05,2.25-2.11,2.25a1.8,1.8,0,0,1-1.59-1,5.11,5.11,0,0,1-.56-2.58,5.81,5.81,0,0,1,.51-2.58,1.94,1.94,0,0,1,1.45-1.17,1.75,1.75,0,0,1,1.69.94,5.21,5.21,0,0,1,.7,2.81Zm-3-1.36h1.69c0-.84-.27-1.34-.71-1.5-.25-.09-.47,0-.65.33A2.52,2.52,0,0,0,13.49,13.28Z"/><path class="cls-34" d="M17.57,10.47h1.21l.61,3.8.57-3.8h1l.65,3.8.52-3.8h1.27l-1.18,7.22H21.13l-.66-3.85-.61,3.85H18.74Z"/><path class="cls-34" d="M24.5,19V10.47h1.22v.37c.16-.31.5-.46,1-.46a1.59,1.59,0,0,1,1.41.79,4.72,4.72,0,0,1,.61,2.44,5.67,5.67,0,0,1-.66,3.09,1.59,1.59,0,0,1-1.36.89,1.27,1.27,0,0,1-.79-.28q-.2-.18-.24-.18V19Zm1.93-3c.28.1.51,0,.7-.32a3.11,3.11,0,0,0,.37-1.5,4.17,4.17,0,0,0-.18-1.6c-.16-.4-.36-.64-.61-.7s-.52.11-.71.51a3.87,3.87,0,0,0-.28,1.55,4.47,4.47,0,0,0,.19,1.45A.84.84,0,0,0,26.43,16Z"/><path class="cls-34" d="M31.86,8.08H33v9.61H31.86Z"/><path class="cls-34" d="M37.63,12.81H36.46A3.66,3.66,0,0,1,36.93,11a1.57,1.57,0,0,1,1.4-.61,1.5,1.5,0,0,1,1.36.56,3.32,3.32,0,0,1,.47,1.92v3a10.14,10.14,0,0,0,.19,1.88H39.13l-.1-.47a1.37,1.37,0,0,1-1.78.42c-.68-.28-1-.95-1-2a2.27,2.27,0,0,1,.42-1.46,2.07,2.07,0,0,1,1-.65,5.45,5.45,0,0,1,.61-.24,1.39,1.39,0,0,0,.42-.19.65.65,0,0,0,.23-.7c-.06-.34-.2-.55-.42-.61a.53.53,0,0,0-.51.1Q37.72,12,37.63,12.81Zm1.31,1.32s-.28.17-.75.42a1.33,1.33,0,0,0-.75,1.22c0,.53.19.76.56.7a1.12,1.12,0,0,0,.71-.61,2,2,0,0,0,.23-.94Z"/><path class="cls-34" d="M43.72,10.47l.71,3.42.7-3.42h1.36L45,17.13a4.58,4.58,0,0,1-.42,1.26.82.82,0,0,1-.75.56h-1v-1.5h.56a1.7,1.7,0,0,0,.29-.09.83.83,0,0,0,.14-.37l-1.46-6.52Z"/><path class="cls-34" d="M52.53,14.64h-3a4,4,0,0,0,.23,1.13c.13.31.28.5.47.56a.5.5,0,0,0,.52-.14,1.2,1.2,0,0,0,.37-.66h1.36c-.34,1.5-1,2.25-2.11,2.25a1.8,1.8,0,0,1-1.59-1,5.11,5.11,0,0,1-.56-2.58,5.81,5.81,0,0,1,.51-2.58,1.94,1.94,0,0,1,1.45-1.17,1.75,1.75,0,0,1,1.69.94,5.21,5.21,0,0,1,.7,2.81Zm-3-1.36h1.69c0-.84-.27-1.34-.71-1.5-.25-.09-.47,0-.65.33A2.52,2.52,0,0,0,49.49,13.28Z"/><path class="cls-34" d="M55.49,10.47h1.17V11c.16-.37.59-.56,1.31-.56V12h-.28a.82.82,0,0,0-.7.47,2.38,2.38,0,0,0-.33,1.31v3.94H55.49Z"/><path class="cls-34" d="M66.41,17.69V8.08h1.22v2.86a.76.76,0,0,1,.37-.38,1.47,1.47,0,0,1,.8-.14c1,.1,1.5,1.14,1.5,3.14v4.13H69.13V13.56a2.37,2.37,0,0,0-.24-1.17.66.66,0,0,0-.51-.42.54.54,0,0,0-.47.33,2.4,2.4,0,0,0-.28,1.26v4.13Z"/><path class="cls-34" d="M73.63,12.81H72.46A3.66,3.66,0,0,1,72.93,11a1.57,1.57,0,0,1,1.4-.61,1.5,1.5,0,0,1,1.36.56,3.32,3.32,0,0,1,.47,1.92v3a10.14,10.14,0,0,0,.19,1.88H75.13l-.1-.47a1.37,1.37,0,0,1-1.78.42c-.68-.28-1-.95-1-2a2.27,2.27,0,0,1,.42-1.46,2.07,2.07,0,0,1,1-.65,5.45,5.45,0,0,1,.61-.24,1.39,1.39,0,0,0,.42-.19.65.65,0,0,0,.23-.7c-.06-.34-.2-.55-.42-.61a.53.53,0,0,0-.51.1Q73.72,12,73.63,12.81Zm1.31,1.32s-.28.17-.75.42a1.33,1.33,0,0,0-.75,1.22c0,.53.19.76.56.7a1.12,1.12,0,0,0,.71-.61,2,2,0,0,0,.23-.94Z"/><path class="cls-34" d="M78.6,15.25h1.17c0,.66.19,1,.56,1.13.56.15.86-.11.89-.8a1,1,0,0,0-.14-.61,1,1,0,0,0-.37-.19l-.8-.28a1.69,1.69,0,0,1-.8-.56,2.36,2.36,0,0,1-.37-1.41c0-1.25.48-1.95,1.45-2.11a1.52,1.52,0,0,1,1.5.66,2.78,2.78,0,0,1,.56,1.73H81.08c0-.56-.15-.9-.47-1a1,1,0,0,0-.42,0,.5.5,0,0,0-.33.47,1,1,0,0,0,.14.52.91.91,0,0,0,.33.32l.75.33a2.46,2.46,0,0,1,1,.66,2.68,2.68,0,0,1,.32,1.41A2.72,2.72,0,0,1,82,16.94a1.62,1.62,0,0,1-1.41.84,1.66,1.66,0,0,1-1.5-.75A3.43,3.43,0,0,1,78.6,15.25Z"/><path class="cls-34" d="M94.53,14.64h-3a4,4,0,0,0,.23,1.13c.13.31.28.5.47.56a.5.5,0,0,0,.52-.14,1.2,1.2,0,0,0,.37-.66h1.36c-.34,1.5-1,2.25-2.11,2.25a1.8,1.8,0,0,1-1.59-1,5.11,5.11,0,0,1-.56-2.58,5.81,5.81,0,0,1,.51-2.58,1.94,1.94,0,0,1,1.45-1.17,1.75,1.75,0,0,1,1.69.94,5.21,5.21,0,0,1,.7,2.81Zm-3-1.36h1.69c0-.84-.27-1.34-.71-1.5-.25-.09-.47,0-.65.33A2.52,2.52,0,0,0,91.49,13.28Z"/><path class="cls-34" d="M96.55,10.47h1.22v.66c0-.1.09-.22.28-.38a1.73,1.73,0,0,1,.61-.33,1.2,1.2,0,0,1,1.27.71,4.06,4.06,0,0,1,.51,2.06v4.5H99.22V13.8A3.77,3.77,0,0,0,99,12.34c-.13-.31-.28-.45-.47-.42s-.36.21-.52.52a3.43,3.43,0,0,0-.23,1.36v3.89H96.55Z"/><path class="cls-34" d="M103,10.66h.61V8.41h1.12v2.25h.8v1.4h-.8v3.66c0,.37.1.56.28.56h.57v1.41h-.8a1,1,0,0,1-.89-.38,2.6,2.6,0,0,1-.28-1.4V12.06H103Z"/><path class="cls-34" d="M112.53,14.64h-3a4,4,0,0,0,.23,1.13c.13.31.28.5.47.56a.5.5,0,0,0,.52-.14,1.2,1.2,0,0,0,.37-.66h1.36c-.34,1.5-1,2.25-2.11,2.25a1.8,1.8,0,0,1-1.59-1,5.11,5.11,0,0,1-.56-2.58,5.81,5.81,0,0,1,.51-2.58,1.94,1.94,0,0,1,1.45-1.17,1.75,1.75,0,0,1,1.69.94,5.21,5.21,0,0,1,.7,2.81Zm-3-1.36h1.69c0-.84-.27-1.34-.71-1.5-.25-.09-.47,0-.65.33A2.52,2.52,0,0,0,109.49,13.28Z"/><path class="cls-34" d="M115.49,10.47h1.17V11c.16-.37.59-.56,1.31-.56V12h-.28a.82.82,0,0,0-.7.47,2.38,2.38,0,0,0-.33,1.31v3.94h-1.17Z"/><path class="cls-34" d="M124.53,14.64h-3a4,4,0,0,0,.23,1.13c.13.31.28.5.47.56a.5.5,0,0,0,.52-.14,1.2,1.2,0,0,0,.37-.66h1.36c-.34,1.5-1,2.25-2.11,2.25a1.8,1.8,0,0,1-1.59-1,5.11,5.11,0,0,1-.56-2.58,5.81,5.81,0,0,1,.51-2.58,1.94,1.94,0,0,1,1.45-1.17,1.75,1.75,0,0,1,1.69.94,5.21,5.21,0,0,1,.7,2.81Zm-3-1.36h1.69c0-.84-.27-1.34-.71-1.5-.25-.09-.47,0-.65.33A2.52,2.52,0,0,0,121.49,13.28Z"/><path class="cls-34" d="M129.41,11V8.08h1.17v9.61h-1.17v-.47a1.18,1.18,0,0,1-1,.56,1.56,1.56,0,0,1-1.41-.94,5.47,5.47,0,0,1-.56-2.62,11.2,11.2,0,0,1,.09-1.5,3.48,3.48,0,0,1,.85-1.83,1.39,1.39,0,0,1,1.17-.42A1.32,1.32,0,0,1,129.41,11Zm-1,5.39c.31.1.56-.08.75-.51a4,4,0,0,0,.23-1.46,5.58,5.58,0,0,0-.14-1.64c-.13-.53-.31-.82-.56-.89s-.53.11-.75.61a4.37,4.37,0,0,0-.28,1.64,5.3,5.3,0,0,0,.18,1.5Q128.06,16.33,128.43,16.42Z"/><path class="cls-34" d="M139,10.66h.61V8.41h1.12v2.25h.8v1.4h-.8v3.66c0,.37.1.56.28.56h.57v1.41h-.8a1,1,0,0,1-.89-.38,2.6,2.6,0,0,1-.28-1.4V12.06H139Z"/><path class="cls-34" d="M144.41,17.69V8.08h1.22v2.86a.76.76,0,0,1,.37-.38,1.47,1.47,0,0,1,.8-.14c1,.1,1.5,1.14,1.5,3.14v4.13h-1.17V13.56a2.37,2.37,0,0,0-.24-1.17.66.66,0,0,0-.51-.42.54.54,0,0,0-.47.33,2.4,2.4,0,0,0-.28,1.26v4.13Z"/><path class="cls-34" d="M152.47,10.09c-.44,0-.67-.26-.7-.89s.14-1,.51-1.07.72.2.75.89a1.28,1.28,0,0,1-.09.7A.56.56,0,0,1,152.47,10.09Zm-.65,7.6v-7H153v7Z"/><path class="cls-34" d="M156.6,15.25h1.17c0,.66.19,1,.56,1.13.56.15.86-.11.89-.8a1,1,0,0,0-.14-.61,1,1,0,0,0-.37-.19l-.8-.28a1.69,1.69,0,0,1-.8-.56,2.36,2.36,0,0,1-.37-1.41c0-1.25.48-1.95,1.45-2.11a1.52,1.52,0,0,1,1.5.66,2.78,2.78,0,0,1,.56,1.73h-1.17c0-.56-.15-.9-.47-1a1,1,0,0,0-.42,0,.5.5,0,0,0-.33.47,1,1,0,0,0,.14.52.91.91,0,0,0,.33.32l.75.33a2.46,2.46,0,0,1,1,.66,2.68,2.68,0,0,1,.32,1.41,2.72,2.72,0,0,1-.37,1.45,1.62,1.62,0,0,1-1.41.84,1.66,1.66,0,0,1-1.5-.75A3.43,3.43,0,0,1,156.6,15.25Z"/><path class="cls-34" d="M167.57,10.47h1.21l.61,3.8.57-3.8h1l.65,3.8.52-3.8h1.27l-1.18,7.22h-1.12l-.66-3.85-.61,3.85h-1.12Z"/><path class="cls-34" d="M178.53,14.64h-3a4,4,0,0,0,.23,1.13c.13.31.28.5.47.56a.5.5,0,0,0,.52-.14,1.2,1.2,0,0,0,.37-.66h1.36c-.34,1.5-1.05,2.25-2.11,2.25a1.8,1.8,0,0,1-1.59-1,5.11,5.11,0,0,1-.56-2.58,5.81,5.81,0,0,1,.51-2.58,1.94,1.94,0,0,1,1.45-1.17,1.75,1.75,0,0,1,1.69.94,5.21,5.21,0,0,1,.7,2.81Zm-3-1.36h1.69c0-.84-.27-1.34-.71-1.5-.25-.09-.47,0-.65.33A2.52,2.52,0,0,0,175.49,13.28Z"/><path class="cls-34" d="M180.18,17.69V8.08h1.17v3a1.27,1.27,0,0,1,.89-.61,1.41,1.41,0,0,1,1.17.42c.69.69,1,1.91.94,3.66a5.26,5.26,0,0,1-.61,2.44,1.38,1.38,0,0,1-1.22.79,1.32,1.32,0,0,1-1.17-.56v.47Zm1.87-1.27c.31.1.56-.09.75-.56a4.67,4.67,0,0,0,.28-1.45,6.4,6.4,0,0,0-.19-1.69c-.12-.47-.31-.73-.56-.8s-.51.08-.7.52a4.65,4.65,0,0,0-.28,1.73,5.36,5.36,0,0,0,.14,1.36C181.61,16.06,181.8,16.36,182.05,16.42Z"/><path class="cls-34" d="M195.41,11V8.08h1.17v9.61h-1.17v-.47a1.18,1.18,0,0,1-1,.56,1.56,1.56,0,0,1-1.41-.94,5.47,5.47,0,0,1-.56-2.62,11.2,11.2,0,0,1,.09-1.5,3.48,3.48,0,0,1,.85-1.83,1.39,1.39,0,0,1,1.17-.42A1.32,1.32,0,0,1,195.41,11Zm-1,5.39c.31.1.56-.08.75-.51a4,4,0,0,0,.23-1.46,5.58,5.58,0,0,0-.14-1.64c-.13-.53-.31-.82-.56-.89s-.53.11-.75.61a4.37,4.37,0,0,0-.28,1.64,5.3,5.3,0,0,0,.18,1.5Q194.06,16.33,194.43,16.42Z"/><path class="cls-34" d="M198.36,14.08a5.44,5.44,0,0,1,.42-2.25c.38-.88.9-1.34,1.55-1.41a1.78,1.78,0,0,1,1.74,1,5.2,5.2,0,0,1,.61,2.35,5.88,5.88,0,0,1-.52,2.72c-.44.87-1,1.29-1.64,1.26a1.79,1.79,0,0,1-1.59-1.17A5.34,5.34,0,0,1,198.36,14.08Zm1.27,0a5,5,0,0,0,.19,1.5c.12.44.31.69.56.75s.61-.09.8-.56a5.09,5.09,0,0,0,.23-1.36,6.06,6.06,0,0,0-.14-1.74c-.13-.5-.33-.78-.61-.84s-.61.16-.8.66A4.86,4.86,0,0,0,199.63,14.08Z"/><path class="cls-34" d="M203.61,10.47h1.17V11a1,1,0,0,1,.38-.47,1,1,0,0,1,.56-.18,1.18,1.18,0,0,1,1.13.93,1.89,1.89,0,0,1,.51-.65,1.17,1.17,0,0,1,.85-.24q1.26.28,1.26,2.58v4.69h-1.22V13.56a3.27,3.27,0,0,0-.18-1.22c-.13-.28-.27-.39-.43-.32a1,1,0,0,0-.37.42,2.69,2.69,0,0,0-.19,1.12v4.13h-1.17V13.56a3.73,3.73,0,0,0-.14-1.12c-.09-.31-.25-.45-.47-.42s-.23.15-.33.37a3.25,3.25,0,0,0-.19,1.17v4.13h-1.17Z"/><path class="cls-34" d="M211.63,12.81h-1.17a3.66,3.66,0,0,1,.47-1.82,1.57,1.57,0,0,1,1.4-.61,1.5,1.5,0,0,1,1.36.56,3.32,3.32,0,0,1,.47,1.92v3a10.14,10.14,0,0,0,.19,1.88h-1.22l-.1-.47a1.37,1.37,0,0,1-1.78.42c-.68-.28-1-.95-1-2a2.27,2.27,0,0,1,.42-1.46,2.07,2.07,0,0,1,1-.65,5.45,5.45,0,0,1,.61-.24,1.39,1.39,0,0,0,.42-.19.65.65,0,0,0,.23-.7c-.06-.34-.2-.55-.42-.61a.53.53,0,0,0-.51.1Q211.72,12,211.63,12.81Zm1.31,1.32s-.28.17-.75.42a1.33,1.33,0,0,0-.75,1.22c0,.53.19.76.56.7a1.12,1.12,0,0,0,.71-.61,2,2,0,0,0,.23-.94Z"/><path class="cls-34" d="M218.47,10.09c-.44,0-.67-.26-.7-.89s.14-1,.51-1.07.72.2.75.89a1.28,1.28,0,0,1-.09.7A.56.56,0,0,1,218.47,10.09Zm-.65,7.6v-7H219v7Z"/><path class="cls-34" d="M222.55,10.47h1.22v.66c0-.1.09-.22.28-.38a1.73,1.73,0,0,1,.61-.33,1.2,1.2,0,0,1,1.27.71,4.06,4.06,0,0,1,.51,2.06v4.5h-1.22V13.8a3.77,3.77,0,0,0-.23-1.46c-.13-.31-.28-.45-.47-.42s-.36.21-.52.52a3.43,3.43,0,0,0-.23,1.36v3.89h-1.22Z"/><path class="cls-34" d="M229.21,16.66a.8.8,0,0,1,0,1.12.8.8,0,0,1-1.22,0,.77.77,0,0,1,0-1.12.8.8,0,0,1,1.22,0Z"/><path class="cls-35" d="M5.57,22.48H6.74l.7,5.34L8,22.48H9l.47,5.3.71-5.3h1.26l-1.4,9.61H8.89L8.52,28,8.1,32.09H6.93Z"/><path class="cls-35" d="M16.53,29h-3a4,4,0,0,0,.23,1.13c.13.31.28.5.47.56a.48.48,0,0,0,.52-.14,1.2,1.2,0,0,0,.37-.66h1.36c-.34,1.5-1.05,2.25-2.11,2.25a1.8,1.8,0,0,1-1.59-1,5.09,5.09,0,0,1-.56-2.58A5.74,5.74,0,0,1,12.69,26a1.93,1.93,0,0,1,1.45-1.18,1.75,1.75,0,0,1,1.69.94,5.21,5.21,0,0,1,.7,2.81Zm-3-1.36h1.69c0-.84-.27-1.34-.71-1.5-.25-.09-.47,0-.65.33A2.52,2.52,0,0,0,13.49,27.68Z"/><path class="cls-35" d="M18.18,32.09V22.48h1.17v3a1.27,1.27,0,0,1,.89-.61,1.41,1.41,0,0,1,1.17.42c.69.69,1,1.91.94,3.66a5.26,5.26,0,0,1-.61,2.44,1.38,1.38,0,0,1-1.22.79,1.29,1.29,0,0,1-1.17-.56v.47Zm1.87-1.27c.31.1.56-.09.75-.56a4.67,4.67,0,0,0,.28-1.45,6.4,6.4,0,0,0-.19-1.69c-.12-.47-.31-.73-.56-.8s-.51.08-.7.52a4.65,4.65,0,0,0-.28,1.73,5.36,5.36,0,0,0,.14,1.36C19.61,30.46,19.8,30.76,20.05,30.82Z"/><path class="cls-35" d="M23.61,24.87h1.17v.56a1,1,0,0,1,.38-.47,1,1,0,0,1,.56-.18,1.18,1.18,0,0,1,1.13.93,2,2,0,0,1,.51-.65,1.17,1.17,0,0,1,.85-.24q1.26.29,1.26,2.58v4.69H28.25V28a3.18,3.18,0,0,0-.18-1.21c-.13-.29-.27-.4-.43-.33a1,1,0,0,0-.37.42A2.72,2.72,0,0,0,27.08,28v4.13H25.91V28a3.78,3.78,0,0,0-.14-1.12c-.09-.31-.25-.45-.47-.42s-.23.15-.33.37A3.29,3.29,0,0,0,24.78,28v4.13H23.61Z"/><path class="cls-35" d="M31.63,27.21H30.46a3.66,3.66,0,0,1,.47-1.82,1.57,1.57,0,0,1,1.4-.61,1.5,1.5,0,0,1,1.36.56,3.32,3.32,0,0,1,.47,1.92v2.95a10.14,10.14,0,0,0,.19,1.88H33.13l-.1-.47a1.37,1.37,0,0,1-1.78.42c-.68-.28-1-.95-1-2a2.27,2.27,0,0,1,.42-1.46,2.07,2.07,0,0,1,1-.65c.22-.1.42-.17.61-.24a1.73,1.73,0,0,0,.42-.18.67.67,0,0,0,.23-.71c-.06-.34-.2-.54-.42-.61a.53.53,0,0,0-.51.1Q31.72,26.42,31.63,27.21Zm1.31,1.32s-.28.17-.75.42a1.33,1.33,0,0,0-.75,1.22c0,.53.19.76.56.7a1.12,1.12,0,0,0,.71-.61,2,2,0,0,0,.23-.94Z"/><path class="cls-35" d="M36.6,29.65h1.17c0,.66.19,1,.56,1.13.56.15.86-.11.89-.8a1,1,0,0,0-.14-.61,1.21,1.21,0,0,0-.37-.19l-.8-.28a1.69,1.69,0,0,1-.8-.56,2.34,2.34,0,0,1-.37-1.41c0-1.25.48-1.95,1.45-2.11a1.52,1.52,0,0,1,1.5.66,2.78,2.78,0,0,1,.56,1.73H39.08c0-.56-.15-.9-.47-1a1,1,0,0,0-.42,0,.51.51,0,0,0-.33.47,1,1,0,0,0,.47.85l.75.32a2.46,2.46,0,0,1,1,.66,2.68,2.68,0,0,1,.32,1.41A2.72,2.72,0,0,1,40,31.34a1.62,1.62,0,0,1-1.41.84,1.66,1.66,0,0,1-1.5-.75A3.43,3.43,0,0,1,36.6,29.65Z"/><path class="cls-35" d="M43,25.06h.61V22.81h1.12v2.25h.8v1.4h-.8v3.66c0,.38.1.56.28.56h.57v1.41h-.8a1,1,0,0,1-.89-.38,2.6,2.6,0,0,1-.28-1.4V26.46H43Z"/><path class="cls-35" d="M52.53,29h-3a4,4,0,0,0,.23,1.13c.13.31.28.5.47.56a.48.48,0,0,0,.52-.14,1.2,1.2,0,0,0,.37-.66h1.36c-.34,1.5-1,2.25-2.11,2.25a1.8,1.8,0,0,1-1.59-1,5.09,5.09,0,0,1-.56-2.58A5.74,5.74,0,0,1,48.69,26a1.93,1.93,0,0,1,1.45-1.18,1.75,1.75,0,0,1,1.69.94,5.21,5.21,0,0,1,.7,2.81Zm-3-1.36h1.69c0-.84-.27-1.34-.71-1.5-.25-.09-.47,0-.65.33A2.52,2.52,0,0,0,49.49,27.68Z"/><path class="cls-35" d="M55.49,24.87h1.17v.56c.16-.37.59-.56,1.31-.56v1.5h-.28a.82.82,0,0,0-.7.47,2.38,2.38,0,0,0-.33,1.31v3.94H55.49Z"/><path class="cls-35" d="M61.11,21.92a.92.92,0,0,1,.94.65A1.1,1.1,0,0,1,62,23.65l-1,1.41-.7-.47.42-.66A1,1,0,0,1,60,22.71,1,1,0,0,1,61.11,21.92Z"/><path class="cls-35" d="M72.6,29.65h1.17c0,.66.19,1,.56,1.13.56.15.86-.11.89-.8a1,1,0,0,0-.14-.61,1.21,1.21,0,0,0-.37-.19l-.8-.28a1.69,1.69,0,0,1-.8-.56,2.34,2.34,0,0,1-.37-1.41c0-1.25.48-1.95,1.45-2.11a1.52,1.52,0,0,1,1.5.66,2.78,2.78,0,0,1,.56,1.73H75.08c0-.56-.15-.9-.47-1a1,1,0,0,0-.42,0,.51.51,0,0,0-.33.47,1,1,0,0,0,.47.85l.75.32a2.46,2.46,0,0,1,1,.66,2.68,2.68,0,0,1,.32,1.41A2.72,2.72,0,0,1,76,31.34a1.62,1.62,0,0,1-1.41.84,1.66,1.66,0,0,1-1.5-.75A3.43,3.43,0,0,1,72.6,29.65Z"/><path class="cls-35" d="M87.41,25.43V22.48h1.17v9.61H87.41v-.47a1.16,1.16,0,0,1-1,.56A1.57,1.57,0,0,1,85,31.25a5.54,5.54,0,0,1-.56-2.63,11.2,11.2,0,0,1,.09-1.5,3.48,3.48,0,0,1,.85-1.83,1.39,1.39,0,0,1,1.17-.42A1.32,1.32,0,0,1,87.41,25.43Zm-1,5.39q.46.15.75-.51a4,4,0,0,0,.23-1.46,5.58,5.58,0,0,0-.14-1.64c-.13-.53-.31-.82-.56-.89s-.53.11-.75.61a4.37,4.37,0,0,0-.28,1.64,5.3,5.3,0,0,0,.18,1.5Q86.06,30.73,86.43,30.82Z"/><path class="cls-35" d="M91.63,27.21H90.46a3.66,3.66,0,0,1,.47-1.82,1.57,1.57,0,0,1,1.4-.61,1.5,1.5,0,0,1,1.36.56,3.32,3.32,0,0,1,.47,1.92v2.95a10.14,10.14,0,0,0,.19,1.88H93.13l-.1-.47a1.37,1.37,0,0,1-1.78.42c-.68-.28-1-.95-1-2a2.27,2.27,0,0,1,.42-1.46,2.07,2.07,0,0,1,1-.65c.22-.1.42-.17.61-.24a1.73,1.73,0,0,0,.42-.18.67.67,0,0,0,.23-.71c-.06-.34-.2-.54-.42-.61a.53.53,0,0,0-.51.1Q91.72,26.42,91.63,27.21Zm1.31,1.32s-.28.17-.75.42a1.33,1.33,0,0,0-.75,1.22c0,.53.19.76.56.7a1.12,1.12,0,0,0,.71-.61,2,2,0,0,0,.23-.94Z"/><path class="cls-35" d="M97,25.06h.61V22.81h1.12v2.25h.8v1.4h-.8v3.66c0,.38.1.56.28.56h.57v1.41h-.8a1,1,0,0,1-.89-.38,2.6,2.6,0,0,1-.28-1.4V26.46H97Z"/><path class="cls-35" d="M103.63,27.21h-1.17a3.66,3.66,0,0,1,.47-1.82,1.57,1.57,0,0,1,1.4-.61,1.5,1.5,0,0,1,1.36.56,3.32,3.32,0,0,1,.47,1.92v2.95a10.14,10.14,0,0,0,.19,1.88h-1.22l-.1-.47a1.37,1.37,0,0,1-1.78.42c-.68-.28-1-.95-1-2a2.27,2.27,0,0,1,.42-1.46,2.07,2.07,0,0,1,1-.65c.22-.1.42-.17.61-.24a1.73,1.73,0,0,0,.42-.18.67.67,0,0,0,.23-.71c-.06-.34-.2-.54-.42-.61a.53.53,0,0,0-.51.1Q103.72,26.42,103.63,27.21Zm1.31,1.32s-.28.17-.75.42a1.33,1.33,0,0,0-.75,1.22c0,.53.19.76.56.7a1.12,1.12,0,0,0,.71-.61,2,2,0,0,0,.23-.94Z"/><path class="cls-35" d="M114.5,33.35V24.87h1.22v.38c.16-.32.5-.47,1-.47a1.59,1.59,0,0,1,1.41.79,4.72,4.72,0,0,1,.61,2.44,5.67,5.67,0,0,1-.66,3.09,1.61,1.61,0,0,1-1.36.9,1.29,1.29,0,0,1-.79-.29q-.19-.18-.24-.18v1.82Zm1.93-3c.28.1.51,0,.7-.32a3.11,3.11,0,0,0,.37-1.5,4.17,4.17,0,0,0-.18-1.6c-.16-.4-.36-.64-.61-.7s-.52.11-.71.52a3.78,3.78,0,0,0-.28,1.54,4.58,4.58,0,0,0,.19,1.46A.85.85,0,0,0,116.43,30.35Z"/><path class="cls-35" d="M121.63,27.21h-1.17a3.66,3.66,0,0,1,.47-1.82,1.57,1.57,0,0,1,1.4-.61,1.5,1.5,0,0,1,1.36.56,3.32,3.32,0,0,1,.47,1.92v2.95a10.14,10.14,0,0,0,.19,1.88h-1.22l-.1-.47a1.37,1.37,0,0,1-1.78.42c-.68-.28-1-.95-1-2a2.27,2.27,0,0,1,.42-1.46,2.07,2.07,0,0,1,1-.65c.22-.1.42-.17.61-.24a1.73,1.73,0,0,0,.42-.18.67.67,0,0,0,.23-.71c-.06-.34-.2-.54-.42-.61a.53.53,0,0,0-.51.1Q121.72,26.42,121.63,27.21Zm1.31,1.32s-.28.17-.75.42a1.33,1.33,0,0,0-.75,1.22c0,.53.19.76.56.7a1.12,1.12,0,0,0,.71-.61,2,2,0,0,0,.23-.94Z"/><path class="cls-35" d="M130.44,27.4h-1.26a3.16,3.16,0,0,0-.19-.75.78.78,0,0,0-.38-.47c-.28-.12-.51.05-.7.52a5,5,0,0,0-.28,1.83,4.87,4.87,0,0,0,.19,1.54q.18.57.51.66c.16.06.33,0,.52-.19a1.47,1.47,0,0,0,.37-1h1.17a3.59,3.59,0,0,1-.46,1.69,1.64,1.64,0,0,1-3,0,5.07,5.07,0,0,1-.65-2.82,5,5,0,0,1,.61-2.67,1.79,1.79,0,0,1,1.31-.94,1.43,1.43,0,0,1,1.45.61A3.88,3.88,0,0,1,130.44,27.4Z"/><path class="cls-35" d="M132.6,32.09V22.48h1.22v4.69L135,24.78h1.5L135,27.45l1.69,4.64h-1.41l-1.08-3.19-.37.7v2.49Z"/><path class="cls-35" d="M142.53,29h-3a4,4,0,0,0,.23,1.13c.13.31.28.5.47.56a.48.48,0,0,0,.52-.14,1.2,1.2,0,0,0,.37-.66h1.36c-.34,1.5-1.05,2.25-2.11,2.25a1.8,1.8,0,0,1-1.59-1,5.09,5.09,0,0,1-.56-2.58,5.74,5.74,0,0,1,.51-2.57,1.93,1.93,0,0,1,1.45-1.18,1.75,1.75,0,0,1,1.69.94,5.21,5.21,0,0,1,.7,2.81Zm-3-1.36h1.69c0-.84-.27-1.34-.71-1.5-.25-.09-.47,0-.65.33A2.52,2.52,0,0,0,139.49,27.68Z"/><path class="cls-35" d="M145,25.06h.61V22.81h1.12v2.25h.8v1.4h-.8v3.66c0,.38.1.56.28.56h.57v1.41h-.8a1,1,0,0,1-.89-.38,2.6,2.6,0,0,1-.28-1.4V26.46H145Z"/><path class="cls-35" d="M150.6,29.65h1.17c0,.66.19,1,.56,1.13.56.15.86-.11.89-.8a1,1,0,0,0-.14-.61,1.21,1.21,0,0,0-.37-.19l-.8-.28a1.69,1.69,0,0,1-.8-.56,2.34,2.34,0,0,1-.37-1.41c0-1.25.48-1.95,1.45-2.11a1.52,1.52,0,0,1,1.5.66,2.78,2.78,0,0,1,.56,1.73h-1.17c0-.56-.15-.9-.47-1a1,1,0,0,0-.42,0,.51.51,0,0,0-.33.47,1,1,0,0,0,.47.85l.75.32a2.46,2.46,0,0,1,1,.66,2.68,2.68,0,0,1,.32,1.41,2.72,2.72,0,0,1-.37,1.45,1.62,1.62,0,0,1-1.41.84,1.66,1.66,0,0,1-1.5-.75A3.43,3.43,0,0,1,150.6,29.65Z"/><path class="cls-35" d="M162.41,32.09V22.48h1.22v2.86A.76.76,0,0,1,164,25a1.47,1.47,0,0,1,.8-.14c1,.1,1.5,1.14,1.5,3.14v4.13h-1.17V28a2.37,2.37,0,0,0-.24-1.17.66.66,0,0,0-.51-.42.54.54,0,0,0-.47.33,2.4,2.4,0,0,0-.28,1.26v4.13Z"/><path class="cls-35" d="M170.47,24.5c-.44,0-.67-.27-.7-.9s.14-1,.51-1.07.72.2.75.89a1.28,1.28,0,0,1-.09.7A.59.59,0,0,1,170.47,24.5Zm-.65,7.59v-7H171v7Z"/><path class="cls-35" d="M175,25.06h.61V22.81h1.12v2.25h.8v1.4h-.8v3.66c0,.38.1.56.28.56h.57v1.41h-.8a1,1,0,0,1-.89-.38,2.6,2.6,0,0,1-.28-1.4V26.46H175Z"/><path class="cls-35" d="M186,32.09V22.48h1.45l2.16,6v-6h1.31v9.61H189.6l-2.3-6.19v6.19Z"/><path class="cls-35" d="M196.53,29h-3a4,4,0,0,0,.23,1.13c.13.31.28.5.47.56a.48.48,0,0,0,.52-.14,1.2,1.2,0,0,0,.37-.66h1.36c-.34,1.5-1.05,2.25-2.11,2.25a1.8,1.8,0,0,1-1.59-1,5.09,5.09,0,0,1-.56-2.58,5.74,5.74,0,0,1,.51-2.57,1.93,1.93,0,0,1,1.45-1.18,1.75,1.75,0,0,1,1.69.94,5.21,5.21,0,0,1,.7,2.81Zm-3-1.36h1.69c0-.84-.27-1.34-.71-1.5-.25-.09-.47,0-.65.33A2.52,2.52,0,0,0,193.49,27.68Z"/><path class="cls-35" d="M197.57,24.87h1.21l.61,3.8.57-3.8h1l.65,3.8.52-3.8h1.27l-1.18,7.22h-1.12l-.66-3.84-.61,3.84h-1.12Z"/><path class="cls-35" d="M204.5,33.35V24.87h1.22v.38c.16-.32.5-.47,1-.47a1.59,1.59,0,0,1,1.41.79,4.72,4.72,0,0,1,.61,2.44,5.67,5.67,0,0,1-.66,3.09,1.61,1.61,0,0,1-1.36.9,1.29,1.29,0,0,1-.79-.29q-.19-.18-.24-.18v1.82Zm1.93-3c.28.1.51,0,.7-.32a3.11,3.11,0,0,0,.37-1.5,4.17,4.17,0,0,0-.18-1.6c-.16-.4-.36-.64-.61-.7s-.52.11-.71.52a3.78,3.78,0,0,0-.28,1.54,4.58,4.58,0,0,0,.19,1.46A.85.85,0,0,0,206.43,30.35Z"/><path class="cls-35" d="M211.86,22.48H213v9.61h-1.17Z"/><path class="cls-35" d="M217.63,27.21h-1.17a3.66,3.66,0,0,1,.47-1.82,1.57,1.57,0,0,1,1.4-.61,1.5,1.5,0,0,1,1.36.56,3.32,3.32,0,0,1,.47,1.92v2.95a10.14,10.14,0,0,0,.19,1.88h-1.22l-.1-.47a1.37,1.37,0,0,1-1.78.42c-.68-.28-1-.95-1-2a2.27,2.27,0,0,1,.42-1.46,2.07,2.07,0,0,1,1-.65c.22-.1.42-.17.61-.24a1.73,1.73,0,0,0,.42-.18.67.67,0,0,0,.23-.71c-.06-.34-.2-.54-.42-.61a.53.53,0,0,0-.51.1Q217.72,26.42,217.63,27.21Zm1.31,1.32s-.28.17-.75.42a1.33,1.33,0,0,0-.75,1.22c0,.53.19.76.56.7a1.12,1.12,0,0,0,.71-.61,2,2,0,0,0,.23-.94Z"/><path class="cls-35" d="M223.72,24.87l.71,3.42.7-3.42h1.36L225,31.53a4.58,4.58,0,0,1-.42,1.26.82.82,0,0,1-.75.56h-1v-1.5h.56a1.7,1.7,0,0,0,.29-.09.83.83,0,0,0,.14-.37l-1.46-6.52Z"/><path class="cls-35" d="M232.53,29h-3a4,4,0,0,0,.23,1.13c.13.31.28.5.47.56a.48.48,0,0,0,.52-.14,1.2,1.2,0,0,0,.37-.66h1.36c-.34,1.5-1.05,2.25-2.11,2.25a1.8,1.8,0,0,1-1.59-1,5.09,5.09,0,0,1-.56-2.58,5.74,5.74,0,0,1,.51-2.57,1.93,1.93,0,0,1,1.45-1.18,1.75,1.75,0,0,1,1.69.94,5.21,5.21,0,0,1,.7,2.81Zm-3-1.36h1.69c0-.84-.27-1.34-.71-1.5-.25-.09-.47,0-.65.33A2.52,2.52,0,0,0,229.49,27.68Z"/><path class="cls-35" d="M235.49,24.87h1.17v.56c.16-.37.59-.56,1.31-.56v1.5h-.28a.82.82,0,0,0-.7.47,2.38,2.38,0,0,0-.33,1.31v3.94h-1.17Z"/><path class="cls-35" d="M247.07,25.1h.61v-.6c0-1.35.48-2,1.45-2h.51v1.41h-.51c-.06,0-.14.07-.24.23a.88.88,0,0,0-.09.38v.6h.84v1.41h-.84v5.58h-1.12V26.51h-.61Z"/><path class="cls-35" d="M252.36,28.48a5.44,5.44,0,0,1,.42-2.25c.38-.88.9-1.34,1.55-1.41a1.78,1.78,0,0,1,1.74,1,5.2,5.2,0,0,1,.61,2.35,5.88,5.88,0,0,1-.52,2.72c-.44.87-1,1.29-1.64,1.26A1.79,1.79,0,0,1,252.93,31,5.34,5.34,0,0,1,252.36,28.48Zm1.27,0a5,5,0,0,0,.19,1.5c.12.44.31.69.56.75s.61-.09.8-.56a5.09,5.09,0,0,0,.23-1.36,6.06,6.06,0,0,0-.14-1.74c-.13-.5-.33-.78-.61-.84s-.61.16-.8.66A4.86,4.86,0,0,0,253.63,28.48Z"/><path class="cls-35" d="M259.49,24.87h1.17v.56c.16-.37.59-.56,1.31-.56v1.5h-.28a.82.82,0,0,0-.7.47,2.38,2.38,0,0,0-.33,1.31v3.94h-1.17Z"/><path class="cls-35" d="M270.32,25.85a4.58,4.58,0,0,1,.61-2.53,1.79,1.79,0,0,1,1.54-.93c1.06,0,1.72.78,2,2.34a4.13,4.13,0,0,1-.94,3.66l-.89,1a4,4,0,0,0-.75,1.17h2.77v1.55h-4.31a6.17,6.17,0,0,1,.42-2.16,5.14,5.14,0,0,1,.84-1.5l.94-1.12a2.88,2.88,0,0,0,.66-2.3,1.51,1.51,0,0,0-.43-.94.41.41,0,0,0-.61,0,2.37,2.37,0,0,0-.56,1.78Z"/><path class="cls-35" d="M277.21,31.06a.8.8,0,0,1,0,1.12.8.8,0,0,1-1.22,0,.77.77,0,0,1,0-1.12.8.8,0,0,1,1.22,0Z"/><path class="cls-35" d="M282.13,29.18h1.22a2.16,2.16,0,0,0,.47,1.22c.25.28.46.35.65.19.5-.19.78-.69.85-1.5a2.22,2.22,0,0,0-.57-1.83c-.4-.37-.78-.26-1.12.33h-1.27l.52-5.11h3.37v1.59h-2.39l-.23,1.78a1.53,1.53,0,0,1,.94-.32,1.33,1.33,0,0,1,1.07.42,3.38,3.38,0,0,1,.85,1.78,5.57,5.57,0,0,1-.14,2.58,2.74,2.74,0,0,1-1,1.54,1.56,1.56,0,0,1-1.36.29,2.19,2.19,0,0,1-1.22-.94A4.16,4.16,0,0,1,282.13,29.18Z"/><path class="cls-35" d="M292.72,25H291.5a1.78,1.78,0,0,0-.32-.84c-.13-.22-.29-.32-.47-.28a1.07,1.07,0,0,0-.89.7,3.42,3.42,0,0,0-.29,1.69,1.58,1.58,0,0,1,1-.71,1.61,1.61,0,0,1,1.31.47,3.7,3.7,0,0,1,.94,3.28c-.16,1.44-.66,2.35-1.5,2.72a1.7,1.7,0,0,1-1.55-.09,2.72,2.72,0,0,1-1.22-1.6,11.21,11.21,0,0,1-.37-3.14,8.31,8.31,0,0,1,.46-3.09c.47-1.16,1.14-1.73,2-1.73A1.63,1.63,0,0,1,292,23,3.31,3.31,0,0,1,292.72,25Zm-2.06,5.67c.44,0,.73-.36.89-1.08a2.4,2.4,0,0,0-.23-1.92c-.25-.43-.55-.56-.89-.37a2,2,0,0,0-.9,1.26,3.23,3.23,0,0,0,.33,1.46C290.08,30.46,290.35,30.68,290.66,30.68Z"/><path class="cls-35" d="M293.61,24.87h1.17v.56a1,1,0,0,1,.38-.47,1,1,0,0,1,.56-.18,1.18,1.18,0,0,1,1.13.93,2,2,0,0,1,.51-.65,1.17,1.17,0,0,1,.85-.24q1.26.29,1.26,2.58v4.69h-1.22V28a3.18,3.18,0,0,0-.18-1.21c-.13-.29-.27-.4-.43-.33a1,1,0,0,0-.37.42,2.72,2.72,0,0,0-.19,1.12v4.13h-1.17V28a3.78,3.78,0,0,0-.14-1.12c-.09-.31-.25-.45-.47-.42s-.23.15-.33.37a3.29,3.29,0,0,0-.19,1.17v4.13h-1.17Z"/><path class="cls-35" d="M300.18,32.09V22.48h1.17v3a1.27,1.27,0,0,1,.89-.61,1.41,1.41,0,0,1,1.17.42c.69.69,1,1.91.94,3.66a5.26,5.26,0,0,1-.61,2.44,1.38,1.38,0,0,1-1.22.79,1.29,1.29,0,0,1-1.17-.56v.47Zm1.87-1.27c.31.1.56-.09.75-.56a4.67,4.67,0,0,0,.28-1.45,6.4,6.4,0,0,0-.19-1.69c-.12-.47-.31-.73-.56-.8s-.51.08-.7.52a4.65,4.65,0,0,0-.28,1.73,5.36,5.36,0,0,0,.14,1.36C301.61,30.46,301.8,30.76,302.05,30.82Z"/><path class="cls-35" d="M307.21,31.06a.8.8,0,0,1,0,1.12.8.8,0,0,1-1.22,0,.77.77,0,0,1,0-1.12.8.8,0,0,1,1.22,0Z"/><path class="cls-36" d="M5.66,41.75a7.41,7.41,0,0,1,.75-3.51,2.34,2.34,0,0,1,2.06-1.45,2.27,2.27,0,0,1,2.06,1.31,6.67,6.67,0,0,1,.8,3.28,7.05,7.05,0,0,1-.7,3.7,2.41,2.41,0,0,1-2.16,1.5,2.24,2.24,0,0,1-2-1.22A6.94,6.94,0,0,1,5.66,41.75Zm1.41,0a7.23,7.23,0,0,0,.32,2.35c.22.62.54,1,.94,1s.89-.22,1.17-.84A6.37,6.37,0,0,0,9.93,42a7.45,7.45,0,0,0-.29-2.54c-.25-.75-.57-1.17-1-1.26s-.86.23-1.17,1A6.73,6.73,0,0,0,7.07,41.75Z"/><path class="cls-36" d="M12.18,46.49V36.88h1.17v3a1.27,1.27,0,0,1,.89-.61,1.41,1.41,0,0,1,1.17.42c.69.69,1,1.91.94,3.66a5.26,5.26,0,0,1-.61,2.44,1.38,1.38,0,0,1-1.22.79A1.32,1.32,0,0,1,13.35,46v.47Zm1.87-1.27c.31.1.56-.09.75-.56a4.67,4.67,0,0,0,.28-1.45,6.4,6.4,0,0,0-.19-1.69c-.12-.47-.31-.73-.56-.8s-.51.08-.7.52A4.65,4.65,0,0,0,13.35,43a5.36,5.36,0,0,0,.14,1.36C13.61,44.86,13.8,45.16,14.05,45.22Z"/><path class="cls-36" d="M19,39.46h.61V37.21h1.12v2.25h.8v1.4h-.8v3.66c0,.37.1.56.28.56h.57v1.41h-.8a1,1,0,0,1-.89-.38,2.6,2.6,0,0,1-.28-1.4V40.86H19Z"/><path class="cls-36" d="M25.63,41.61H24.46a3.66,3.66,0,0,1,.47-1.82,1.57,1.57,0,0,1,1.4-.61,1.5,1.5,0,0,1,1.36.56,3.32,3.32,0,0,1,.47,1.92v3a10.14,10.14,0,0,0,.19,1.88H27.13L27,46a1.37,1.37,0,0,1-1.78.42c-.68-.28-1-.95-1-2A2.27,2.27,0,0,1,24.64,43a2.07,2.07,0,0,1,1-.65,5.45,5.45,0,0,1,.61-.24,1.39,1.39,0,0,0,.42-.19.65.65,0,0,0,.23-.7c-.06-.34-.2-.55-.42-.61a.53.53,0,0,0-.51.1Q25.72,40.82,25.63,41.61Zm1.31,1.32s-.28.17-.75.42a1.33,1.33,0,0,0-.75,1.22c0,.53.19.76.56.7a1.12,1.12,0,0,0,.71-.61,2,2,0,0,0,.23-.94Z"/><path class="cls-36" d="M32.47,38.89c-.44,0-.67-.26-.7-.89s.14-1,.51-1.07.72.2.75.89a1.28,1.28,0,0,1-.09.7A.56.56,0,0,1,32.47,38.89Zm-.65,7.6v-7H33v7Z"/><path class="cls-36" d="M36.55,39.27h1.22v.66c0-.1.09-.22.28-.38a1.73,1.73,0,0,1,.61-.33,1.2,1.2,0,0,1,1.27.71A4.06,4.06,0,0,1,40.44,42v4.5H39.22V42.6A3.77,3.77,0,0,0,39,41.14c-.13-.31-.28-.45-.47-.42s-.36.21-.52.52a3.43,3.43,0,0,0-.23,1.36v3.89H36.55Z"/><path class="cls-36" d="M46.53,43.44h-3a4,4,0,0,0,.23,1.13c.13.31.28.5.47.56a.5.5,0,0,0,.52-.14,1.2,1.2,0,0,0,.37-.66h1.36c-.34,1.5-1,2.25-2.11,2.25a1.8,1.8,0,0,1-1.59-1A5.11,5.11,0,0,1,42.18,43a5.81,5.81,0,0,1,.51-2.58,1.94,1.94,0,0,1,1.45-1.17,1.75,1.75,0,0,1,1.69.94,5.21,5.21,0,0,1,.7,2.81Zm-3-1.36h1.69c0-.84-.27-1.34-.71-1.5-.25-.09-.47,0-.65.33A2.52,2.52,0,0,0,43.49,42.08Z"/><path class="cls-36" d="M51.41,39.83V36.88h1.17v9.61H51.41V46a1.18,1.18,0,0,1-1,.56A1.56,1.56,0,0,1,49,45.64,5.47,5.47,0,0,1,48.41,43a11.2,11.2,0,0,1,.09-1.5,3.48,3.48,0,0,1,.85-1.83,1.39,1.39,0,0,1,1.17-.42A1.32,1.32,0,0,1,51.41,39.83Zm-1,5.39c.31.1.56-.08.75-.51a4,4,0,0,0,.23-1.46,5.58,5.58,0,0,0-.14-1.64c-.13-.53-.31-.82-.56-.89s-.53.11-.75.61A4.37,4.37,0,0,0,49.68,43a5.3,5.3,0,0,0,.18,1.5Q50.06,45.13,50.43,45.22Z"/><path class="cls-36" d="M57.32,39.5a.81.81,0,0,1,.23.57.79.79,0,0,1-.23.56.84.84,0,0,1-.61.28.83.83,0,0,1-.61-.28.76.76,0,0,1-.24-.56.78.78,0,0,1,.24-.57.87.87,0,0,1,.61-.28A.88.88,0,0,1,57.32,39.5Zm0,4.69a.81.81,0,0,1,0,1.13.88.88,0,0,1-.61.28.87.87,0,0,1-.61-.28.79.79,0,0,1,0-1.13.83.83,0,0,1,.61-.28A.84.84,0,0,1,57.32,44.19Z"/><path class="cls-37" d="M71.1,40H69.78c-.15-1.06-.5-1.65-1-1.78s-.93.25-1.22,1.13a8,8,0,0,0-.32,2,6.72,6.72,0,0,0,.32,2.44c.29.84.69,1.23,1.22,1.17s.88-.58,1-1.55h1.41a4,4,0,0,1-1.26,2.72,1.87,1.87,0,0,1-2.11.28,2.78,2.78,0,0,1-1.36-1.59,8,8,0,0,1-.57-2.58A9.58,9.58,0,0,1,66.22,39a3.22,3.22,0,0,1,1.55-2.16,1.78,1.78,0,0,1,1.59,0,2.69,2.69,0,0,1,1.27,1.36A6.27,6.27,0,0,1,71.1,40Z"/><path class="cls-37" d="M73.63,41.61H72.46a3.66,3.66,0,0,1,.47-1.82,1.57,1.57,0,0,1,1.4-.61,1.5,1.5,0,0,1,1.36.56,3.32,3.32,0,0,1,.47,1.92v3a10.14,10.14,0,0,0,.19,1.88H75.13L75,46a1.37,1.37,0,0,1-1.78.42c-.68-.28-1-.95-1-2A2.27,2.27,0,0,1,72.64,43a2.07,2.07,0,0,1,1-.65,5.45,5.45,0,0,1,.61-.24,1.39,1.39,0,0,0,.42-.19.65.65,0,0,0,.23-.7c-.06-.34-.2-.55-.42-.61a.53.53,0,0,0-.51.1Q73.72,40.82,73.63,41.61Zm1.31,1.32s-.28.17-.75.42a1.33,1.33,0,0,0-.75,1.22c0,.53.19.76.56.7a1.12,1.12,0,0,0,.71-.61,2,2,0,0,0,.23-.94Z"/><path class="cls-37" d="M82.44,41.8H81.18a3.16,3.16,0,0,0-.19-.75.75.75,0,0,0-.38-.47c-.28-.12-.51.05-.7.52a5,5,0,0,0-.28,1.83,4.87,4.87,0,0,0,.19,1.54q.18.57.51.66c.16.06.33,0,.52-.19a1.49,1.49,0,0,0,.37-1h1.17a3.52,3.52,0,0,1-.46,1.68,1.64,1.64,0,0,1-3,0,5,5,0,0,1-.65-2.81,5,5,0,0,1,.61-2.67,1.79,1.79,0,0,1,1.31-.94,1.43,1.43,0,0,1,1.45.61A3.88,3.88,0,0,1,82.44,41.8Z"/><path class="cls-37" d="M84.41,46.49V36.88h1.22v2.86a.76.76,0,0,1,.37-.38,1.47,1.47,0,0,1,.8-.14c1,.1,1.5,1.14,1.5,3.14v4.13H87.13V42.36a2.37,2.37,0,0,0-.24-1.17.66.66,0,0,0-.51-.42.54.54,0,0,0-.47.33,2.4,2.4,0,0,0-.28,1.26v4.13Z"/><path class="cls-37" d="M94.53,43.44h-3a4,4,0,0,0,.23,1.13c.13.31.28.5.47.56a.5.5,0,0,0,.52-.14,1.2,1.2,0,0,0,.37-.66h1.36c-.34,1.5-1,2.25-2.11,2.25a1.8,1.8,0,0,1-1.59-1A5.11,5.11,0,0,1,90.18,43a5.81,5.81,0,0,1,.51-2.58,1.94,1.94,0,0,1,1.45-1.17,1.75,1.75,0,0,1,1.69.94,5.21,5.21,0,0,1,.7,2.81Zm-3-1.36h1.69c0-.84-.27-1.34-.71-1.5-.25-.09-.47,0-.65.33A2.52,2.52,0,0,0,91.49,42.08Z"/><path class="cls-37" d="M99.41,39.83V36.88h1.17v9.61H99.41V46a1.18,1.18,0,0,1-1,.56A1.56,1.56,0,0,1,97,45.64,5.47,5.47,0,0,1,96.41,43a11.2,11.2,0,0,1,.09-1.5,3.48,3.48,0,0,1,.85-1.83,1.39,1.39,0,0,1,1.17-.42A1.32,1.32,0,0,1,99.41,39.83Zm-1,5.39c.31.1.56-.08.75-.51a4,4,0,0,0,.23-1.46,5.58,5.58,0,0,0-.14-1.64c-.13-.53-.31-.82-.56-.89s-.53.11-.75.61A4.37,4.37,0,0,0,97.68,43a5.3,5.3,0,0,0,.18,1.5Q98.06,45.13,98.43,45.22Z"/><path class="cls-37" d="M109.72,46.49V36.88H111v9.61Z"/><path class="cls-37" d="M113.61,39.27h1.17v.56a1,1,0,0,1,.38-.47,1,1,0,0,1,.56-.18,1.18,1.18,0,0,1,1.13.93,1.89,1.89,0,0,1,.51-.65,1.17,1.17,0,0,1,.85-.24q1.26.28,1.26,2.58v4.69h-1.22V42.36a3.27,3.27,0,0,0-.18-1.22c-.13-.28-.27-.39-.43-.32a1,1,0,0,0-.37.42,2.69,2.69,0,0,0-.19,1.12v4.13h-1.17V42.36a3.73,3.73,0,0,0-.14-1.12c-.09-.31-.25-.45-.47-.42s-.23.15-.33.37a3.25,3.25,0,0,0-.19,1.17v4.13h-1.17Z"/><path class="cls-37" d="M121.63,41.61h-1.17a3.66,3.66,0,0,1,.47-1.82,1.57,1.57,0,0,1,1.4-.61,1.5,1.5,0,0,1,1.36.56,3.32,3.32,0,0,1,.47,1.92v3a10.14,10.14,0,0,0,.19,1.88h-1.22L123,46a1.37,1.37,0,0,1-1.78.42c-.68-.28-1-.95-1-2a2.27,2.27,0,0,1,.42-1.46,2.07,2.07,0,0,1,1-.65,5.45,5.45,0,0,1,.61-.24,1.39,1.39,0,0,0,.42-.19.65.65,0,0,0,.23-.7c-.06-.34-.2-.55-.42-.61a.53.53,0,0,0-.51.1Q121.72,40.82,121.63,41.61Zm1.31,1.32s-.28.17-.75.42a1.33,1.33,0,0,0-.75,1.22c0,.53.19.76.56.7a1.12,1.12,0,0,0,.71-.61,2,2,0,0,0,.23-.94Z"/><path class="cls-37" d="M129.32,39.5v-.32h1.21v6.23a2.6,2.6,0,0,1-.42,1.5,1.84,1.84,0,0,1-1.64.84c-1.12,0-1.75-.71-1.87-2.15h1.22a1,1,0,0,0,.28.65.5.5,0,0,0,.37.24.67.67,0,0,0,.56-.33,1.89,1.89,0,0,0,.29-1.08c0,.1-.18.19-.43.28a1.87,1.87,0,0,1-.84.1,1.54,1.54,0,0,1-1.17-.94,5,5,0,0,1-.47-2.3,4.41,4.41,0,0,1,.52-2.25,1.53,1.53,0,0,1,1.35-.89A1.17,1.17,0,0,1,129.32,39.5Zm-1,4.55a.51.51,0,0,0,.66-.33,3.19,3.19,0,0,0,.33-1.31,3.3,3.3,0,0,0-.14-1.27q-.19-.64-.57-.75c-.28-.06-.51.1-.7.47a3,3,0,0,0-.28,1.36,3.44,3.44,0,0,0,.19,1.22C127.94,43.79,128.11,44,128.33,44.05Z"/><path class="cls-37" d="M136.53,43.44h-3a4,4,0,0,0,.23,1.13c.13.31.28.5.47.56a.5.5,0,0,0,.52-.14,1.2,1.2,0,0,0,.37-.66h1.36c-.34,1.5-1.05,2.25-2.11,2.25a1.8,1.8,0,0,1-1.59-1,5.11,5.11,0,0,1-.56-2.58,5.81,5.81,0,0,1,.51-2.58,1.94,1.94,0,0,1,1.45-1.17,1.75,1.75,0,0,1,1.69.94,5.21,5.21,0,0,1,.7,2.81Zm-3-1.36h1.69c0-.84-.27-1.34-.71-1.5-.25-.09-.47,0-.65.33A2.52,2.52,0,0,0,133.49,42.08Z"/><path class="cls-36" d="M139.21,45.46a.8.8,0,0,1,0,1.12.8.8,0,0,1-1.22,0,.77.77,0,0,1,0-1.12.8.8,0,0,1,1.22,0Z"/><path class="cls-38" d="M6,60.89V51.28H7.44l2.16,6v-6h1.31v9.61H9.6L7.3,54.7v6.19Z"/><path class="cls-38" d="M16.53,57.84h-3A4,4,0,0,0,13.72,59c.13.31.28.5.47.56a.5.5,0,0,0,.52-.14,1.2,1.2,0,0,0,.37-.66h1.36C16.1,60.23,15.39,61,14.33,61a1.8,1.8,0,0,1-1.59-1,5.11,5.11,0,0,1-.56-2.58,5.81,5.81,0,0,1,.51-2.58,1.94,1.94,0,0,1,1.45-1.17,1.75,1.75,0,0,1,1.69.94,5.21,5.21,0,0,1,.7,2.81Zm-3-1.36h1.69c0-.84-.27-1.34-.71-1.5-.25-.09-.47,0-.65.33A2.52,2.52,0,0,0,13.49,56.48Z"/><path class="cls-38" d="M17.57,53.67h1.21l.61,3.8.57-3.8h1l.65,3.8.52-3.8h1.27l-1.18,7.22H21.13L20.47,57l-.61,3.85H18.74Z"/><path class="cls-38" d="M24.5,62.15V53.67h1.22V54c.16-.31.5-.46,1-.46a1.59,1.59,0,0,1,1.41.79,4.72,4.72,0,0,1,.61,2.44,5.67,5.67,0,0,1-.66,3.09,1.59,1.59,0,0,1-1.36.89,1.27,1.27,0,0,1-.79-.28q-.2-.18-.24-.18v1.82Zm1.93-3c.28.1.51,0,.7-.32a3.11,3.11,0,0,0,.37-1.5,4.17,4.17,0,0,0-.18-1.6c-.16-.4-.36-.64-.61-.7s-.52.11-.71.51a3.87,3.87,0,0,0-.28,1.55,4.47,4.47,0,0,0,.19,1.45A.84.84,0,0,0,26.43,59.15Z"/><path class="cls-38" d="M31.86,51.28H33v9.61H31.86Z"/><path class="cls-38" d="M37.63,56H36.46a3.66,3.66,0,0,1,.47-1.82,1.57,1.57,0,0,1,1.4-.61,1.5,1.5,0,0,1,1.36.56,3.32,3.32,0,0,1,.47,1.92V59a10.14,10.14,0,0,0,.19,1.88H39.13l-.1-.47a1.37,1.37,0,0,1-1.78.42c-.68-.28-1-1-1-2a2.27,2.27,0,0,1,.42-1.46,2.07,2.07,0,0,1,1-.65,5.45,5.45,0,0,1,.61-.24,1.39,1.39,0,0,0,.42-.19.65.65,0,0,0,.23-.7c-.06-.34-.2-.55-.42-.61a.53.53,0,0,0-.51.1Q37.72,55.22,37.63,56Zm1.31,1.32s-.28.17-.75.42A1.33,1.33,0,0,0,37.44,59c0,.53.19.76.56.7a1.12,1.12,0,0,0,.71-.61,2,2,0,0,0,.23-.94Z"/><path class="cls-38" d="M43.72,53.67l.71,3.42.7-3.42h1.36L45,60.33a4.58,4.58,0,0,1-.42,1.26.82.82,0,0,1-.75.56h-1v-1.5h.56a1.7,1.7,0,0,0,.29-.09.83.83,0,0,0,.14-.37l-1.46-6.52Z"/><path class="cls-38" d="M52.53,57.84h-3A4,4,0,0,0,49.72,59c.13.31.28.5.47.56a.5.5,0,0,0,.52-.14,1.2,1.2,0,0,0,.37-.66h1.36c-.34,1.5-1,2.25-2.11,2.25a1.8,1.8,0,0,1-1.59-1,5.11,5.11,0,0,1-.56-2.58,5.81,5.81,0,0,1,.51-2.58,1.94,1.94,0,0,1,1.45-1.17,1.75,1.75,0,0,1,1.69.94,5.21,5.21,0,0,1,.7,2.81Zm-3-1.36h1.69c0-.84-.27-1.34-.71-1.5-.25-.09-.47,0-.65.33A2.52,2.52,0,0,0,49.49,56.48Z"/><path class="cls-38" d="M55.49,53.67h1.17v.56c.16-.37.59-.56,1.31-.56v1.5h-.28a.82.82,0,0,0-.7.47A2.38,2.38,0,0,0,56.66,57v3.94H55.49Z"/><path class="cls-38" d="M61.11,50.72a.92.92,0,0,1,.94.65A1.1,1.1,0,0,1,62,52.45l-1,1.41-.7-.47.42-.66A1,1,0,0,1,60,51.51,1,1,0,0,1,61.11,50.72Z"/><path class="cls-38" d="M72.6,58.45h1.17c0,.66.19,1,.56,1.13.56.15.86-.11.89-.8a1,1,0,0,0-.14-.61,1,1,0,0,0-.37-.19l-.8-.28a1.69,1.69,0,0,1-.8-.56,2.36,2.36,0,0,1-.37-1.41c0-1.25.48-1.95,1.45-2.11a1.52,1.52,0,0,1,1.5.66A2.78,2.78,0,0,1,76.25,56H75.08c0-.56-.15-.9-.47-1a1,1,0,0,0-.42,0,.5.5,0,0,0-.33.47A1,1,0,0,0,74,56a.91.91,0,0,0,.33.32l.75.33a2.46,2.46,0,0,1,1,.66,2.68,2.68,0,0,1,.32,1.41A2.72,2.72,0,0,1,76,60.14a1.62,1.62,0,0,1-1.41.84,1.66,1.66,0,0,1-1.5-.75A3.43,3.43,0,0,1,72.6,58.45Z"/><path class="cls-38" d="M83.57,53.67h1.21l.61,3.8.57-3.8h1l.65,3.8.52-3.8h1.27l-1.18,7.22H87.13L86.47,57l-.61,3.85H84.74Z"/><path class="cls-38" d="M94.53,57.84h-3A4,4,0,0,0,91.72,59c.13.31.28.5.47.56a.5.5,0,0,0,.52-.14,1.2,1.2,0,0,0,.37-.66h1.36c-.34,1.5-1,2.25-2.11,2.25a1.8,1.8,0,0,1-1.59-1,5.11,5.11,0,0,1-.56-2.58,5.81,5.81,0,0,1,.51-2.58,1.94,1.94,0,0,1,1.45-1.17,1.75,1.75,0,0,1,1.69.94,5.21,5.21,0,0,1,.7,2.81Zm-3-1.36h1.69c0-.84-.27-1.34-.71-1.5-.25-.09-.47,0-.65.33A2.52,2.52,0,0,0,91.49,56.48Z"/><path class="cls-38" d="M96.18,60.89V51.28h1.17v3a1.27,1.27,0,0,1,.89-.61,1.41,1.41,0,0,1,1.17.42c.69.69,1,1.91.94,3.66a5.26,5.26,0,0,1-.61,2.44,1.38,1.38,0,0,1-1.22.79,1.32,1.32,0,0,1-1.17-.56v.47Zm1.87-1.27c.31.1.56-.09.75-.56a4.67,4.67,0,0,0,.28-1.45,6.4,6.4,0,0,0-.19-1.69c-.12-.47-.31-.73-.56-.8s-.51.08-.7.52a4.65,4.65,0,0,0-.28,1.73,5.36,5.36,0,0,0,.14,1.36C97.61,59.26,97.8,59.56,98.05,59.62Z"/><path class="cls-38" d="M101.89,55.54h5.3v1.32h-5.3Z"/><path class="cls-38" d="M112.53,57.84h-3a4,4,0,0,0,.23,1.13c.13.31.28.5.47.56a.5.5,0,0,0,.52-.14,1.2,1.2,0,0,0,.37-.66h1.36c-.34,1.5-1,2.25-2.11,2.25a1.8,1.8,0,0,1-1.59-1,5.11,5.11,0,0,1-.56-2.58,5.81,5.81,0,0,1,.51-2.58,1.94,1.94,0,0,1,1.45-1.17,1.75,1.75,0,0,1,1.69.94,5.21,5.21,0,0,1,.7,2.81Zm-3-1.36h1.69c0-.84-.27-1.34-.71-1.5-.25-.09-.47,0-.65.33A2.52,2.52,0,0,0,109.49,56.48Z"/><path class="cls-38" d="M114.22,60.89l1.5-3.75-1.4-3.47h1.45l.61,1.59.61-1.59h1.45l-1.36,3.47,1.5,3.75h-1.4l-.8-1.92-.75,1.92Z"/><path class="cls-38" d="M120.5,62.15V53.67h1.22V54c.16-.31.5-.46,1-.46a1.59,1.59,0,0,1,1.41.79,4.72,4.72,0,0,1,.61,2.44,5.67,5.67,0,0,1-.66,3.09,1.59,1.59,0,0,1-1.36.89,1.27,1.27,0,0,1-.79-.28q-.19-.18-.24-.18v1.82Zm1.93-3c.28.1.51,0,.7-.32a3.11,3.11,0,0,0,.37-1.5,4.17,4.17,0,0,0-.18-1.6c-.16-.4-.36-.64-.61-.7s-.52.11-.71.51a3.87,3.87,0,0,0-.28,1.55,4.47,4.47,0,0,0,.19,1.45A.84.84,0,0,0,122.43,59.15Z"/><path class="cls-38" d="M127.86,51.28H129v9.61h-1.17Z"/><path class="cls-38" d="M132.36,57.28a5.44,5.44,0,0,1,.42-2.25c.38-.88.9-1.34,1.55-1.41a1.78,1.78,0,0,1,1.74,1,5.2,5.2,0,0,1,.61,2.35,5.88,5.88,0,0,1-.52,2.72c-.44.87-1,1.29-1.64,1.26a1.79,1.79,0,0,1-1.59-1.17A5.34,5.34,0,0,1,132.36,57.28Zm1.27,0a5,5,0,0,0,.19,1.5c.12.44.31.69.56.75s.61-.09.8-.56a5.09,5.09,0,0,0,.23-1.36,6.06,6.06,0,0,0-.14-1.74c-.13-.5-.33-.78-.61-.84s-.61.16-.8.66A4.86,4.86,0,0,0,133.63,57.28Z"/><path class="cls-38" d="M139.49,53.67h1.17v.56c.16-.37.59-.56,1.31-.56v1.5h-.28a.82.82,0,0,0-.7.47,2.38,2.38,0,0,0-.33,1.31v3.94h-1.17Z"/><path class="cls-38" d="M145.63,56h-1.17a3.66,3.66,0,0,1,.47-1.82,1.57,1.57,0,0,1,1.4-.61,1.5,1.5,0,0,1,1.36.56,3.32,3.32,0,0,1,.47,1.92V59a10.14,10.14,0,0,0,.19,1.88h-1.22l-.1-.47a1.37,1.37,0,0,1-1.78.42c-.68-.28-1-1-1-2a2.27,2.27,0,0,1,.42-1.46,2.07,2.07,0,0,1,1-.65,5.45,5.45,0,0,1,.61-.24,1.39,1.39,0,0,0,.42-.19.65.65,0,0,0,.23-.7c-.06-.34-.2-.55-.42-.61a.53.53,0,0,0-.51.1Q145.72,55.22,145.63,56Zm1.31,1.32s-.28.17-.75.42a1.33,1.33,0,0,0-.75,1.22c0,.53.19.76.56.7a1.12,1.12,0,0,0,.71-.61,2,2,0,0,0,.23-.94Z"/><path class="cls-38" d="M151,53.86h.61V51.61h1.12v2.25h.8v1.4h-.8v3.66c0,.37.1.56.28.56h.57v1.41h-.8a1,1,0,0,1-.89-.38,2.6,2.6,0,0,1-.28-1.4V55.26H151Z"/><path class="cls-38" d="M158.47,53.29c-.44,0-.67-.26-.7-.89s.14-1,.51-1.07.72.2.75.89a1.28,1.28,0,0,1-.09.7A.56.56,0,0,1,158.47,53.29Zm-.65,7.6v-7H159v7Z"/><path class="cls-38" d="M162.36,57.28a5.44,5.44,0,0,1,.42-2.25c.38-.88.9-1.34,1.55-1.41a1.78,1.78,0,0,1,1.74,1,5.2,5.2,0,0,1,.61,2.35,5.88,5.88,0,0,1-.52,2.72c-.44.87-1,1.29-1.64,1.26a1.79,1.79,0,0,1-1.59-1.17A5.34,5.34,0,0,1,162.36,57.28Zm1.27,0a5,5,0,0,0,.19,1.5c.12.44.31.69.56.75s.61-.09.8-.56a5.09,5.09,0,0,0,.23-1.36,6.06,6.06,0,0,0-.14-1.74c-.13-.5-.33-.78-.61-.84s-.61.16-.8.66A4.86,4.86,0,0,0,163.63,57.28Z"/><path class="cls-38" d="M168.55,53.67h1.22v.66c0-.1.09-.22.28-.38a1.73,1.73,0,0,1,.61-.33,1.2,1.2,0,0,1,1.27.71,4.06,4.06,0,0,1,.51,2.06v4.5h-1.22V57a3.77,3.77,0,0,0-.23-1.46c-.13-.31-.28-.45-.47-.42s-.36.21-.52.52a3.43,3.43,0,0,0-.23,1.36v3.89h-1.22Z"/><path class="cls-38" d="M180.6,58.45h1.17c0,.66.19,1,.56,1.13.56.15.86-.11.89-.8a1,1,0,0,0-.14-.61,1,1,0,0,0-.37-.19l-.8-.28a1.69,1.69,0,0,1-.8-.56,2.36,2.36,0,0,1-.37-1.41c0-1.25.48-1.95,1.45-2.11a1.52,1.52,0,0,1,1.5.66,2.78,2.78,0,0,1,.56,1.73h-1.17c0-.56-.15-.9-.47-1a1,1,0,0,0-.42,0,.5.5,0,0,0-.33.47A1,1,0,0,0,182,56a.91.91,0,0,0,.33.32l.75.33a2.46,2.46,0,0,1,1,.66,2.68,2.68,0,0,1,.32,1.41,2.72,2.72,0,0,1-.37,1.45,1.62,1.62,0,0,1-1.41.84,1.66,1.66,0,0,1-1.5-.75A3.43,3.43,0,0,1,180.6,58.45Z"/><path class="cls-38" d="M186.6,60.89V51.28h1.22V56L189,53.58h1.5L189,56.25l1.69,4.64h-1.41l-1.08-3.19-.37.7v2.49Z"/><path class="cls-38" d="M194.47,53.29c-.44,0-.67-.26-.7-.89s.14-1,.51-1.07.72.2.75.89a1.28,1.28,0,0,1-.09.7A.56.56,0,0,1,194.47,53.29Zm-.65,7.6v-7H195v7Z"/><path class="cls-38" d="M199.86,51.28H201v9.61h-1.17Z"/><path class="cls-38" d="M205.86,51.28H207v9.61h-1.17Z"/><path class="cls-38" d="M217.49,53.67h1.17v.56c.16-.37.59-.56,1.31-.56v1.5h-.28a.82.82,0,0,0-.7.47,2.38,2.38,0,0,0-.33,1.31v3.94h-1.17Z"/><path class="cls-38" d="M224.47,53.29c-.44,0-.67-.26-.7-.89s.14-1,.51-1.07.72.2.75.89a1.28,1.28,0,0,1-.09.7A.56.56,0,0,1,224.47,53.29Zm-.65,7.6v-7H225v7Z"/><path class="cls-38" d="M228.6,58.45h1.17c0,.66.19,1,.56,1.13.56.15.86-.11.89-.8a1,1,0,0,0-.14-.61,1,1,0,0,0-.37-.19l-.8-.28a1.69,1.69,0,0,1-.8-.56,2.36,2.36,0,0,1-.37-1.41c0-1.25.48-1.95,1.45-2.11a1.52,1.52,0,0,1,1.5.66,2.78,2.78,0,0,1,.56,1.73h-1.17c0-.56-.15-.9-.47-1a1,1,0,0,0-.42,0,.5.5,0,0,0-.33.47A1,1,0,0,0,230,56a.91.91,0,0,0,.33.32l.75.33a2.46,2.46,0,0,1,1,.66,2.68,2.68,0,0,1,.32,1.41,2.72,2.72,0,0,1-.37,1.45,1.62,1.62,0,0,1-1.41.84,1.66,1.66,0,0,1-1.5-.75A3.43,3.43,0,0,1,228.6,58.45Z"/><path class="cls-38" d="M238.53,57.84h-3a4,4,0,0,0,.23,1.13c.13.31.28.5.47.56a.5.5,0,0,0,.52-.14,1.2,1.2,0,0,0,.37-.66h1.36c-.34,1.5-1.05,2.25-2.11,2.25a1.8,1.8,0,0,1-1.59-1,5.11,5.11,0,0,1-.56-2.58,5.81,5.81,0,0,1,.51-2.58,1.94,1.94,0,0,1,1.45-1.17,1.75,1.75,0,0,1,1.69.94,5.21,5.21,0,0,1,.7,2.81Zm-3-1.36h1.69c0-.84-.27-1.34-.71-1.5-.25-.09-.47,0-.65.33A2.52,2.52,0,0,0,235.49,56.48Z"/><path class="cls-38" d="M240.6,58.45h1.17c0,.66.19,1,.56,1.13.56.15.86-.11.89-.8a1,1,0,0,0-.14-.61,1,1,0,0,0-.37-.19l-.8-.28a1.69,1.69,0,0,1-.8-.56,2.36,2.36,0,0,1-.37-1.41c0-1.25.48-1.95,1.45-2.11a1.52,1.52,0,0,1,1.5.66,2.78,2.78,0,0,1,.56,1.73h-1.17c0-.56-.15-.9-.47-1a1,1,0,0,0-.42,0,.5.5,0,0,0-.33.47A1,1,0,0,0,242,56a.91.91,0,0,0,.33.32l.75.33a2.46,2.46,0,0,1,1,.66,2.68,2.68,0,0,1,.32,1.41,2.72,2.72,0,0,1-.37,1.45,1.62,1.62,0,0,1-1.41.84,1.66,1.66,0,0,1-1.5-.75A3.43,3.43,0,0,1,240.6,58.45Z"/><path class="cls-38" d="M252,56.15a8.8,8.8,0,0,1,.75-3.61q.75-1.35,1.74-1.35a1.93,1.93,0,0,1,1.69,1.17,7.53,7.53,0,0,1,.75,3.42,8.39,8.39,0,0,1-.66,3.8c-.47.93-1.06,1.4-1.78,1.4a2,2,0,0,1-1.74-1.31A8.32,8.32,0,0,1,252,56.15Zm2.4,3.33q.6.09.93-.84a7.17,7.17,0,0,0,.33-2.11,9.55,9.55,0,0,0-.23-2.58,2.69,2.69,0,0,0-.38-.94.74.74,0,0,0-.56-.37.67.67,0,0,0-.52.28,2.81,2.81,0,0,0-.32.8,8.49,8.49,0,0,0-.29,2.43,7.73,7.73,0,0,0,.29,2.25Q254,59.39,254.43,59.48Z"/><path class="cls-38" d="M259.21,59.86a.8.8,0,0,1,0,1.12A.8.8,0,0,1,258,61a.77.77,0,0,1,0-1.12.8.8,0,0,1,1.22,0Z"/><path class="cls-38" d="M264.64,54.09V52.92a2,2,0,0,0,1-.38,2,2,0,0,0,.51-1.26h1.08v9.61h-1.22v-6.8Z"/><path class="cls-38" d="M276.5,62.15V53.67h1.22V54c.16-.31.5-.46,1-.46a1.59,1.59,0,0,1,1.41.79,4.72,4.72,0,0,1,.61,2.44,5.67,5.67,0,0,1-.66,3.09,1.59,1.59,0,0,1-1.36.89,1.27,1.27,0,0,1-.79-.28q-.19-.18-.24-.18v1.82Zm1.93-3c.28.1.51,0,.7-.32a3.11,3.11,0,0,0,.37-1.5,4.17,4.17,0,0,0-.18-1.6c-.16-.4-.36-.64-.61-.7s-.52.11-.71.51a3.87,3.87,0,0,0-.28,1.55,4.47,4.47,0,0,0,.19,1.45A.84.84,0,0,0,278.43,59.15Z"/><path class="cls-38" d="M282.36,57.28a5.44,5.44,0,0,1,.42-2.25c.38-.88.9-1.34,1.55-1.41a1.78,1.78,0,0,1,1.74,1,5.2,5.2,0,0,1,.61,2.35,5.88,5.88,0,0,1-.52,2.72c-.44.87-1,1.29-1.64,1.26a1.79,1.79,0,0,1-1.59-1.17A5.34,5.34,0,0,1,282.36,57.28Zm1.27,0a5,5,0,0,0,.19,1.5c.12.44.31.69.56.75s.61-.09.8-.56a5.09,5.09,0,0,0,.23-1.36,6.06,6.06,0,0,0-.14-1.74c-.13-.5-.33-.78-.61-.84s-.61.16-.8.66A4.86,4.86,0,0,0,283.63,57.28Z"/><path class="cls-38" d="M290.47,53.29c-.44,0-.67-.26-.7-.89s.14-1,.51-1.07.72.2.75.89a1.28,1.28,0,0,1-.09.7A.56.56,0,0,1,290.47,53.29Zm-.65,7.6v-7H291v7Z"/><path class="cls-38" d="M294.55,53.67h1.22v.66c0-.1.09-.22.28-.38a1.73,1.73,0,0,1,.61-.33,1.2,1.2,0,0,1,1.27.71,4.06,4.06,0,0,1,.51,2.06v4.5h-1.22V57a3.77,3.77,0,0,0-.23-1.46c-.13-.31-.28-.45-.47-.42s-.36.21-.52.52a3.43,3.43,0,0,0-.23,1.36v3.89h-1.22Z"/><path class="cls-38" d="M301,53.86h.61V51.61h1.12v2.25h.8v1.4h-.8v3.66c0,.37.1.56.28.56h.57v1.41h-.8a1,1,0,0,1-.89-.38,2.6,2.6,0,0,1-.28-1.4V55.26H301Z"/><path class="cls-38" d="M306.6,58.45h1.17c0,.66.19,1,.56,1.13.56.15.86-.11.89-.8a1,1,0,0,0-.14-.61,1,1,0,0,0-.37-.19l-.8-.28a1.69,1.69,0,0,1-.8-.56,2.36,2.36,0,0,1-.37-1.41c0-1.25.48-1.95,1.45-2.11a1.52,1.52,0,0,1,1.5.66,2.78,2.78,0,0,1,.56,1.73h-1.17c0-.56-.15-.9-.47-1a1,1,0,0,0-.42,0,.5.5,0,0,0-.33.47A1,1,0,0,0,308,56a.91.91,0,0,0,.33.32l.75.33a2.46,2.46,0,0,1,1,.66,2.68,2.68,0,0,1,.32,1.41,2.72,2.72,0,0,1-.37,1.45,1.62,1.62,0,0,1-1.41.84,1.66,1.66,0,0,1-1.5-.75A3.43,3.43,0,0,1,306.6,58.45Z"/><path class="cls-38" d="M313.21,59.86a.8.8,0,0,1,0,1.12A.8.8,0,0,1,312,61a.77.77,0,0,1,0-1.12.8.8,0,0,1,1.22,0Z"/><path class="cls-39" d="M5.8,75.29l2-9.61h1.5l1.92,9.61H9.74l-.33-2.06H7.63l-.38,2.06Zm2.11-3.52H9.13L8.52,68.3Z"/><path class="cls-39" d="M12.55,68.07h1.22v.66c0-.1.09-.22.28-.38a1.73,1.73,0,0,1,.61-.33,1.2,1.2,0,0,1,1.27.71,4.06,4.06,0,0,1,.51,2.06v4.5H15.22V71.4A3.77,3.77,0,0,0,15,69.94c-.13-.31-.28-.45-.47-.42s-.36.21-.52.52a3.43,3.43,0,0,0-.23,1.36v3.89H12.55Z"/><path class="cls-39" d="M18.36,71.68a5.44,5.44,0,0,1,.42-2.25c.38-.88.9-1.34,1.55-1.41a1.78,1.78,0,0,1,1.74,1,5.2,5.2,0,0,1,.61,2.35,5.88,5.88,0,0,1-.52,2.72c-.44.87-1,1.29-1.64,1.26a1.79,1.79,0,0,1-1.59-1.17A5.34,5.34,0,0,1,18.36,71.68Zm1.27,0a5,5,0,0,0,.19,1.5c.12.44.31.69.56.75s.61-.09.8-.56A5.09,5.09,0,0,0,21.41,72a6.06,6.06,0,0,0-.14-1.74c-.13-.5-.33-.78-.61-.84s-.61.16-.8.66A4.86,4.86,0,0,0,19.63,71.68Z"/><path class="cls-39" d="M25,68.26h.61V66h1.12v2.25h.8v1.4h-.8v3.66c0,.37.1.56.28.56h.57v1.41h-.8a1,1,0,0,1-.89-.38,2.6,2.6,0,0,1-.28-1.4V69.66H25Z"/><path class="cls-39" d="M30.41,75.29V65.68h1.22v2.86a.76.76,0,0,1,.37-.38,1.47,1.47,0,0,1,.8-.14c1,.1,1.5,1.14,1.5,3.14v4.13H33.13V71.16A2.37,2.37,0,0,0,32.89,70a.66.66,0,0,0-.51-.42.54.54,0,0,0-.47.33,2.4,2.4,0,0,0-.28,1.26v4.13Z"/><path class="cls-39" d="M40.53,72.24h-3a4,4,0,0,0,.23,1.13c.13.31.28.5.47.56a.5.5,0,0,0,.52-.14,1.2,1.2,0,0,0,.37-.66h1.36c-.34,1.5-1,2.25-2.11,2.25a1.8,1.8,0,0,1-1.59-1,5.11,5.11,0,0,1-.56-2.58,5.81,5.81,0,0,1,.51-2.58A1.94,1.94,0,0,1,38.14,68a1.75,1.75,0,0,1,1.69.94,5.21,5.21,0,0,1,.7,2.81Zm-3-1.36h1.69c0-.84-.27-1.34-.71-1.5-.25-.09-.47,0-.65.33A2.52,2.52,0,0,0,37.49,70.88Z"/><path class="cls-39" d="M43.49,68.07h1.17v.56c.16-.37.59-.56,1.31-.56v1.5h-.28A.82.82,0,0,0,45,70a2.38,2.38,0,0,0-.33,1.31v3.94H43.49Z"/><path class="cls-39" d="M54.6,68.07h1.22v4.27A3.18,3.18,0,0,0,56,73.55c.13.29.28.39.47.33s.33-.14.42-.42a2.72,2.72,0,0,0,.19-1.12V68.07H58.3v7.22H57.08v-.42c-.12.34-.45.51-1,.51A1.26,1.26,0,0,1,55,74.77,3,3,0,0,1,54.6,73Z"/><path class="cls-39" d="M60.6,72.85h1.17c0,.66.19,1,.56,1.13.56.15.86-.11.89-.8a1,1,0,0,0-.14-.61,1,1,0,0,0-.37-.19l-.8-.28a1.69,1.69,0,0,1-.8-.56,2.36,2.36,0,0,1-.37-1.41c0-1.25.48-1.95,1.45-2.11a1.52,1.52,0,0,1,1.5.66,2.78,2.78,0,0,1,.56,1.73H63.08c0-.56-.15-.9-.47-1a1,1,0,0,0-.42,0,.5.5,0,0,0-.33.47,1,1,0,0,0,.14.52.91.91,0,0,0,.33.32l.75.33a2.46,2.46,0,0,1,1,.66,2.68,2.68,0,0,1,.32,1.41A2.72,2.72,0,0,1,64,74.54a1.62,1.62,0,0,1-1.41.84,1.66,1.66,0,0,1-1.5-.75A3.43,3.43,0,0,1,60.6,72.85Z"/><path class="cls-39" d="M70.53,72.24h-3a4,4,0,0,0,.23,1.13c.13.31.28.5.47.56a.5.5,0,0,0,.52-.14,1.2,1.2,0,0,0,.37-.66h1.36c-.34,1.5-1,2.25-2.11,2.25a1.8,1.8,0,0,1-1.59-1,5.11,5.11,0,0,1-.56-2.58,5.81,5.81,0,0,1,.51-2.58A1.94,1.94,0,0,1,68.14,68a1.75,1.75,0,0,1,1.69.94,5.21,5.21,0,0,1,.7,2.81Zm-3-1.36h1.69c0-.84-.27-1.34-.71-1.5-.25-.09-.47,0-.65.33A2.52,2.52,0,0,0,67.49,70.88Z"/><path class="cls-39" d="M73.49,68.07h1.17v.56c.16-.37.59-.56,1.31-.56v1.5h-.28A.82.82,0,0,0,75,70a2.38,2.38,0,0,0-.33,1.31v3.94H73.49Z"/><path class="cls-39" d="M85.63,70.41H84.46a3.66,3.66,0,0,1,.47-1.82,1.57,1.57,0,0,1,1.4-.61,1.5,1.5,0,0,1,1.36.56,3.32,3.32,0,0,1,.47,1.92v3a10.14,10.14,0,0,0,.19,1.88H87.13l-.1-.47a1.37,1.37,0,0,1-1.78.42c-.68-.28-1-.95-1-2a2.27,2.27,0,0,1,.42-1.46,2.07,2.07,0,0,1,1-.65,5.45,5.45,0,0,1,.61-.24,1.39,1.39,0,0,0,.42-.19.65.65,0,0,0,.23-.7c-.06-.34-.2-.55-.42-.61a.53.53,0,0,0-.51.1Q85.72,69.61,85.63,70.41Zm1.31,1.32s-.28.17-.75.42a1.33,1.33,0,0,0-.75,1.22c0,.53.19.76.56.7a1.12,1.12,0,0,0,.71-.61,2,2,0,0,0,.23-.94Z"/><path class="cls-39" d="M91,68.26h.61V66h1.12v2.25h.8v1.4h-.8v3.66c0,.37.1.56.28.56h.57v1.41h-.8a1,1,0,0,1-.89-.38,2.6,2.6,0,0,1-.28-1.4V69.66H91Z"/><path class="cls-39" d="M97,68.26h.61V66h1.12v2.25h.8v1.4h-.8v3.66c0,.37.1.56.28.56h.57v1.41h-.8a1,1,0,0,1-.89-.38,2.6,2.6,0,0,1-.28-1.4V69.66H97Z"/><path class="cls-39" d="M106.53,72.24h-3a4,4,0,0,0,.23,1.13c.13.31.28.5.47.56a.5.5,0,0,0,.52-.14,1.2,1.2,0,0,0,.37-.66h1.36c-.34,1.5-1,2.25-2.11,2.25a1.8,1.8,0,0,1-1.59-1,5.11,5.11,0,0,1-.56-2.58,5.81,5.81,0,0,1,.51-2.58A1.94,1.94,0,0,1,104.14,68a1.75,1.75,0,0,1,1.69.94,5.21,5.21,0,0,1,.7,2.81Zm-3-1.36h1.69c0-.84-.27-1.34-.71-1.5-.25-.09-.47,0-.65.33A2.52,2.52,0,0,0,103.49,70.88Z"/><path class="cls-39" d="M107.61,68.07h1.17v.56a1,1,0,0,1,.38-.47,1,1,0,0,1,.56-.18,1.18,1.18,0,0,1,1.13.93,1.89,1.89,0,0,1,.51-.65,1.17,1.17,0,0,1,.85-.24q1.26.28,1.26,2.58v4.69h-1.22V71.16a3.27,3.27,0,0,0-.18-1.22c-.13-.28-.27-.39-.43-.32a1,1,0,0,0-.37.42,2.69,2.69,0,0,0-.19,1.12v4.13h-1.17V71.16a3.73,3.73,0,0,0-.14-1.12c-.09-.31-.25-.45-.47-.42s-.23.15-.33.37a3.25,3.25,0,0,0-.19,1.17v4.13h-1.17Z"/><path class="cls-39" d="M114.5,76.55V68.07h1.22v.37c.16-.31.5-.46,1-.46a1.59,1.59,0,0,1,1.41.79,4.72,4.72,0,0,1,.61,2.44,5.67,5.67,0,0,1-.66,3.09,1.59,1.59,0,0,1-1.36.89,1.27,1.27,0,0,1-.79-.28q-.19-.18-.24-.18v1.82Zm1.93-3c.28.1.51,0,.7-.32a3.11,3.11,0,0,0,.37-1.5,4.17,4.17,0,0,0-.18-1.6c-.16-.4-.36-.64-.61-.7s-.52.11-.71.51a3.87,3.87,0,0,0-.28,1.55,4.47,4.47,0,0,0,.19,1.45A.84.84,0,0,0,116.43,73.55Z"/><path class="cls-39" d="M121,68.26h.61V66h1.12v2.25h.8v1.4h-.8v3.66c0,.37.1.56.28.56h.57v1.41h-.8a1,1,0,0,1-.89-.38,2.6,2.6,0,0,1-.28-1.4V69.66H121Z"/><path class="cls-39" d="M130.53,72.24h-3a4,4,0,0,0,.23,1.13c.13.31.28.5.47.56a.5.5,0,0,0,.52-.14,1.2,1.2,0,0,0,.37-.66h1.36c-.34,1.5-1.05,2.25-2.11,2.25a1.8,1.8,0,0,1-1.59-1,5.11,5.11,0,0,1-.56-2.58,5.81,5.81,0,0,1,.51-2.58A1.94,1.94,0,0,1,128.14,68a1.75,1.75,0,0,1,1.69.94,5.21,5.21,0,0,1,.7,2.81Zm-3-1.36h1.69c0-.84-.27-1.34-.71-1.5-.25-.09-.47,0-.65.33A2.52,2.52,0,0,0,127.49,70.88Z"/><path class="cls-39" d="M135.41,68.63V65.68h1.17v9.61h-1.17v-.47a1.18,1.18,0,0,1-1,.56,1.56,1.56,0,0,1-1.41-.94,5.47,5.47,0,0,1-.56-2.62,11.2,11.2,0,0,1,.09-1.5,3.48,3.48,0,0,1,.85-1.83,1.39,1.39,0,0,1,1.17-.42A1.32,1.32,0,0,1,135.41,68.63Zm-1,5.39c.31.1.56-.08.75-.51a4,4,0,0,0,.23-1.46,5.58,5.58,0,0,0-.14-1.64c-.13-.53-.31-.82-.56-.89s-.53.11-.75.61a4.37,4.37,0,0,0-.28,1.64,5.3,5.3,0,0,0,.18,1.5Q134.06,73.93,134.43,74Z"/><path class="cls-39" d="M145,68.26h.61V66h1.12v2.25h.8v1.4h-.8v3.66c0,.37.1.56.28.56h.57v1.41h-.8a1,1,0,0,1-.89-.38,2.6,2.6,0,0,1-.28-1.4V69.66H145Z"/><path class="cls-39" d="M150.36,71.68a5.44,5.44,0,0,1,.42-2.25c.38-.88.9-1.34,1.55-1.41a1.78,1.78,0,0,1,1.74,1,5.2,5.2,0,0,1,.61,2.35,5.88,5.88,0,0,1-.52,2.72c-.44.87-1,1.29-1.64,1.26a1.79,1.79,0,0,1-1.59-1.17A5.34,5.34,0,0,1,150.36,71.68Zm1.27,0a5,5,0,0,0,.19,1.5c.12.44.31.69.56.75s.61-.09.8-.56a5.09,5.09,0,0,0,.23-1.36,6.06,6.06,0,0,0-.14-1.74c-.13-.5-.33-.78-.61-.84s-.61.16-.8.66A4.86,4.86,0,0,0,151.63,71.68Z"/><path class="cls-39" d="M162.6,72.85h1.17c0,.66.19,1,.56,1.13.56.15.86-.11.89-.8a1,1,0,0,0-.14-.61,1,1,0,0,0-.37-.19l-.8-.28a1.69,1.69,0,0,1-.8-.56,2.36,2.36,0,0,1-.37-1.41c0-1.25.48-1.95,1.45-2.11a1.52,1.52,0,0,1,1.5.66,2.78,2.78,0,0,1,.56,1.73h-1.17c0-.56-.15-.9-.47-1a1,1,0,0,0-.42,0,.5.5,0,0,0-.33.47,1,1,0,0,0,.14.52.91.91,0,0,0,.33.32l.75.33a2.46,2.46,0,0,1,1,.66,2.68,2.68,0,0,1,.32,1.41,2.72,2.72,0,0,1-.37,1.45,1.62,1.62,0,0,1-1.41.84,1.66,1.66,0,0,1-1.5-.75A3.43,3.43,0,0,1,162.6,72.85Z"/><path class="cls-39" d="M168.41,75.29V65.68h1.22v2.86a.76.76,0,0,1,.37-.38,1.47,1.47,0,0,1,.8-.14c1,.1,1.5,1.14,1.5,3.14v4.13h-1.17V71.16a2.37,2.37,0,0,0-.24-1.17.66.66,0,0,0-.51-.42.54.54,0,0,0-.47.33,2.4,2.4,0,0,0-.28,1.26v4.13Z"/><path class="cls-39" d="M174.36,71.68a5.44,5.44,0,0,1,.42-2.25c.38-.88.9-1.34,1.55-1.41a1.78,1.78,0,0,1,1.74,1,5.2,5.2,0,0,1,.61,2.35,5.88,5.88,0,0,1-.52,2.72c-.44.87-1,1.29-1.64,1.26a1.79,1.79,0,0,1-1.59-1.17A5.34,5.34,0,0,1,174.36,71.68Zm1.27,0a5,5,0,0,0,.19,1.5c.12.44.31.69.56.75s.61-.09.8-.56a5.09,5.09,0,0,0,.23-1.36,6.06,6.06,0,0,0-.14-1.74c-.13-.5-.33-.78-.61-.84s-.61.16-.8.66A4.86,4.86,0,0,0,175.63,71.68Z"/><path class="cls-39" d="M180.6,68.07h1.22v4.27a3.18,3.18,0,0,0,.18,1.21c.13.29.28.39.47.33s.33-.14.42-.42a2.72,2.72,0,0,0,.19-1.12V68.07h1.22v7.22h-1.22v-.42c-.12.34-.45.51-1,.51a1.26,1.26,0,0,1-1.08-.61A3,3,0,0,1,180.6,73Z"/><path class="cls-39" d="M187,68.26h.61V66h1.12v2.25h.8v1.4h-.8v3.66c0,.37.1.56.28.56h.57v1.41h-.8a1,1,0,0,1-.89-.38,2.6,2.6,0,0,1-.28-1.4V69.66H187Z"/><path class="cls-39" d="M199,68.26h.61V66h1.12v2.25h.8v1.4h-.8v3.66c0,.37.1.56.28.56h.57v1.41h-.8a1,1,0,0,1-.89-.38,2.6,2.6,0,0,1-.28-1.4V69.66H199Z"/><path class="cls-39" d="M204.36,71.68a5.44,5.44,0,0,1,.42-2.25c.38-.88.9-1.34,1.55-1.41a1.78,1.78,0,0,1,1.74,1,5.2,5.2,0,0,1,.61,2.35,5.88,5.88,0,0,1-.52,2.72c-.44.87-1,1.29-1.64,1.26a1.79,1.79,0,0,1-1.59-1.17A5.34,5.34,0,0,1,204.36,71.68Zm1.27,0a5,5,0,0,0,.19,1.5c.12.44.31.69.56.75s.61-.09.8-.56a5.09,5.09,0,0,0,.23-1.36,6.06,6.06,0,0,0-.14-1.74c-.13-.5-.33-.78-.61-.84s-.61.16-.8.66A4.86,4.86,0,0,0,205.63,71.68Z"/><path class="cls-39" d="M217.72,68.07l.71,3.42.7-3.42h1.36L219,74.73a4.58,4.58,0,0,1-.42,1.26.82.82,0,0,1-.75.56h-1v-1.5h.56a1.7,1.7,0,0,0,.29-.09.83.83,0,0,0,.14-.37l-1.46-6.52Z"/><path class="cls-39" d="M222.36,71.68a5.44,5.44,0,0,1,.42-2.25c.38-.88.9-1.34,1.55-1.41a1.78,1.78,0,0,1,1.74,1,5.2,5.2,0,0,1,.61,2.35,5.88,5.88,0,0,1-.52,2.72c-.44.87-1,1.29-1.64,1.26a1.79,1.79,0,0,1-1.59-1.17A5.34,5.34,0,0,1,222.36,71.68Zm1.27,0a5,5,0,0,0,.19,1.5c.12.44.31.69.56.75s.61-.09.8-.56a5.09,5.09,0,0,0,.23-1.36,6.06,6.06,0,0,0-.14-1.74c-.13-.5-.33-.78-.61-.84s-.61.16-.8.66A4.86,4.86,0,0,0,223.63,71.68Z"/><path class="cls-39" d="M228.6,68.07h1.22v4.27a3.18,3.18,0,0,0,.18,1.21c.13.29.28.39.47.33s.33-.14.42-.42a2.72,2.72,0,0,0,.19-1.12V68.07h1.22v7.22h-1.22v-.42c-.12.34-.45.51-1,.51a1.26,1.26,0,0,1-1.08-.61A3,3,0,0,1,228.6,73Z"/><path class="cls-39" d="M234.55,73.09a.7.7,0,0,1,.56.51,1.39,1.39,0,0,1,0,1.13l-.65,1.64-.57-.61.24-.66a1.19,1.19,0,0,1-.38-1.22C233.85,73.29,234.11,73,234.55,73.09Z"/><path class="cls-39" d="M246.18,75.29V65.68h1.17v3a1.27,1.27,0,0,1,.89-.61,1.41,1.41,0,0,1,1.17.42c.69.69,1,1.91.94,3.66a5.26,5.26,0,0,1-.61,2.44,1.38,1.38,0,0,1-1.22.79,1.32,1.32,0,0,1-1.17-.56v.47ZM248.05,74c.31.1.56-.09.75-.56a4.67,4.67,0,0,0,.28-1.45,6.4,6.4,0,0,0-.19-1.69c-.12-.47-.31-.73-.56-.8s-.51.08-.7.52a4.65,4.65,0,0,0-.28,1.73,5.36,5.36,0,0,0,.14,1.36C247.61,73.66,247.8,74,248.05,74Z"/><path class="cls-39" d="M252.6,68.07h1.22v4.27a3.18,3.18,0,0,0,.18,1.21c.13.29.28.39.47.33s.33-.14.42-.42a2.72,2.72,0,0,0,.19-1.12V68.07h1.22v7.22h-1.22v-.42c-.12.34-.45.51-1,.51a1.26,1.26,0,0,1-1.08-.61A3,3,0,0,1,252.6,73Z"/><path class="cls-39" d="M259,68.26h.61V66h1.12v2.25h.8v1.4h-.8v3.66c0,.37.1.56.28.56h.57v1.41h-.8a1,1,0,0,1-.89-.38,2.6,2.6,0,0,1-.28-1.4V69.66H259Z"/><path class="cls-39" d="M271.72,68.07l.71,3.42.7-3.42h1.36L273,74.73a4.58,4.58,0,0,1-.42,1.26.82.82,0,0,1-.75.56h-1v-1.5h.56a1.7,1.7,0,0,0,.29-.09.83.83,0,0,0,.14-.37l-1.46-6.52Z"/><path class="cls-39" d="M276.36,71.68a5.44,5.44,0,0,1,.42-2.25c.38-.88.9-1.34,1.55-1.41a1.78,1.78,0,0,1,1.74,1,5.2,5.2,0,0,1,.61,2.35,5.88,5.88,0,0,1-.52,2.72c-.44.87-1,1.29-1.64,1.26a1.79,1.79,0,0,1-1.59-1.17A5.34,5.34,0,0,1,276.36,71.68Zm1.27,0a5,5,0,0,0,.19,1.5c.12.44.31.69.56.75s.61-.09.8-.56a5.09,5.09,0,0,0,.23-1.36,6.06,6.06,0,0,0-.14-1.74c-.13-.5-.33-.78-.61-.84s-.61.16-.8.66A4.86,4.86,0,0,0,277.63,71.68Z"/><path class="cls-39" d="M282.6,68.07h1.22v4.27a3.18,3.18,0,0,0,.18,1.21c.13.29.28.39.47.33s.33-.14.42-.42a2.72,2.72,0,0,0,.19-1.12V68.07h1.22v7.22h-1.22v-.42c-.12.34-.45.51-1,.51a1.26,1.26,0,0,1-1.08-.61A3,3,0,0,1,282.6,73Z"/><path class="cls-39" d="M295.63,70.41h-1.17a3.66,3.66,0,0,1,.47-1.82,1.57,1.57,0,0,1,1.4-.61,1.5,1.5,0,0,1,1.36.56,3.32,3.32,0,0,1,.47,1.92v3a10.14,10.14,0,0,0,.19,1.88h-1.22l-.1-.47a1.37,1.37,0,0,1-1.78.42c-.68-.28-1-.95-1-2a2.27,2.27,0,0,1,.42-1.46,2.07,2.07,0,0,1,1-.65,5.45,5.45,0,0,1,.61-.24,1.39,1.39,0,0,0,.42-.19.65.65,0,0,0,.23-.7c-.06-.34-.2-.55-.42-.61a.53.53,0,0,0-.51.1Q295.72,69.61,295.63,70.41Zm1.31,1.32s-.28.17-.75.42a1.33,1.33,0,0,0-.75,1.22c0,.53.19.76.56.7a1.12,1.12,0,0,0,.71-.61,2,2,0,0,0,.23-.94Z"/><path class="cls-39" d="M301.49,68.07h1.17v.56c.16-.37.59-.56,1.31-.56v1.5h-.28a.82.82,0,0,0-.7.47,2.38,2.38,0,0,0-.33,1.31v3.94h-1.17Z"/><path class="cls-39" d="M310.53,72.24h-3a4,4,0,0,0,.23,1.13c.13.31.28.5.47.56a.5.5,0,0,0,.52-.14,1.2,1.2,0,0,0,.37-.66h1.36c-.34,1.5-1.05,2.25-2.11,2.25a1.8,1.8,0,0,1-1.59-1,5.11,5.11,0,0,1-.56-2.58,5.81,5.81,0,0,1,.51-2.58A1.94,1.94,0,0,1,308.14,68a1.75,1.75,0,0,1,1.69.94,5.21,5.21,0,0,1,.7,2.81Zm-3-1.36h1.69c0-.84-.27-1.34-.71-1.5-.25-.09-.47,0-.65.33A2.52,2.52,0,0,0,307.49,70.88Z"/><path class="cls-39" d="M319,68.26h.61V66h1.12v2.25h.8v1.4h-.8v3.66c0,.37.1.56.28.56h.57v1.41h-.8a1,1,0,0,1-.89-.38,2.6,2.6,0,0,1-.28-1.4V69.66H319Z"/><path class="cls-39" d="M324.36,71.68a5.44,5.44,0,0,1,.42-2.25c.38-.88.9-1.34,1.55-1.41a1.78,1.78,0,0,1,1.74,1,5.2,5.2,0,0,1,.61,2.35,5.88,5.88,0,0,1-.52,2.72c-.44.87-1,1.29-1.64,1.26a1.79,1.79,0,0,1-1.59-1.17A5.34,5.34,0,0,1,324.36,71.68Zm1.27,0a5,5,0,0,0,.19,1.5c.12.44.31.69.56.75s.61-.09.8-.56a5.09,5.09,0,0,0,.23-1.36,6.06,6.06,0,0,0-.14-1.74c-.13-.5-.33-.78-.61-.84s-.61.16-.8.66A4.86,4.86,0,0,0,325.63,71.68Z"/><path class="cls-39" d="M330.36,71.68a5.44,5.44,0,0,1,.42-2.25c.38-.88.9-1.34,1.55-1.41a1.78,1.78,0,0,1,1.74,1,5.2,5.2,0,0,1,.61,2.35,5.88,5.88,0,0,1-.52,2.72c-.44.87-1,1.29-1.64,1.26a1.79,1.79,0,0,1-1.59-1.17A5.34,5.34,0,0,1,330.36,71.68Zm1.27,0a5,5,0,0,0,.19,1.5c.12.44.31.69.56.75s.61-.09.8-.56a5.09,5.09,0,0,0,.23-1.36,6.06,6.06,0,0,0-.14-1.74c-.13-.5-.33-.78-.61-.84s-.61.16-.8.66A4.86,4.86,0,0,0,331.63,71.68Z"/><path class="cls-39" d="M343.07,68.3h.61v-.61c0-1.34.48-2,1.45-2h.51v1.41h-.51c-.06,0-.14.07-.24.23a.84.84,0,0,0-.09.37v.61h.84v1.41h-.84v5.58h-1.12V69.71h-.61Z"/><path class="cls-39" d="M349.63,70.41h-1.17a3.66,3.66,0,0,1,.47-1.82,1.57,1.57,0,0,1,1.4-.61,1.5,1.5,0,0,1,1.36.56,3.32,3.32,0,0,1,.47,1.92v3a10.14,10.14,0,0,0,.19,1.88h-1.22l-.1-.47a1.37,1.37,0,0,1-1.78.42c-.68-.28-1-.95-1-2a2.27,2.27,0,0,1,.42-1.46,2.07,2.07,0,0,1,1-.65,5.45,5.45,0,0,1,.61-.24,1.39,1.39,0,0,0,.42-.19.65.65,0,0,0,.23-.7c-.06-.34-.2-.55-.42-.61a.53.53,0,0,0-.51.1Q349.72,69.61,349.63,70.41Zm1.31,1.32s-.28.17-.75.42a1.33,1.33,0,0,0-.75,1.22c0,.53.19.76.56.7a1.12,1.12,0,0,0,.71-.61,2,2,0,0,0,.23-.94Z"/><path class="cls-39" d="M355.49,68.07h1.17v.56c.16-.37.59-.56,1.31-.56v1.5h-.28a.82.82,0,0,0-.7.47,2.38,2.38,0,0,0-.33,1.31v3.94h-1.17Z"/><path class="cls-39" d="M367.63,70.41h-1.17a3.66,3.66,0,0,1,.47-1.82,1.57,1.57,0,0,1,1.4-.61,1.5,1.5,0,0,1,1.36.56,3.32,3.32,0,0,1,.47,1.92v3a10.14,10.14,0,0,0,.19,1.88h-1.22l-.1-.47a1.37,1.37,0,0,1-1.78.42c-.68-.28-1-.95-1-2a2.27,2.27,0,0,1,.42-1.46,2.07,2.07,0,0,1,1-.65,5.45,5.45,0,0,1,.61-.24,1.39,1.39,0,0,0,.42-.19.65.65,0,0,0,.23-.7c-.06-.34-.2-.55-.42-.61a.53.53,0,0,0-.51.1Q367.72,69.61,367.63,70.41Zm1.31,1.32s-.28.17-.75.42a1.33,1.33,0,0,0-.75,1.22c0,.53.19.76.56.7a1.12,1.12,0,0,0,.71-.61,2,2,0,0,0,.23-.94Z"/><path class="cls-39" d="M371.57,68.07h1.21l.61,3.8.57-3.8h1l.65,3.8.52-3.8h1.27l-1.18,7.22h-1.12l-.66-3.85-.61,3.85h-1.12Z"/><path class="cls-39" d="M379.63,70.41h-1.17a3.66,3.66,0,0,1,.47-1.82,1.57,1.57,0,0,1,1.4-.61,1.5,1.5,0,0,1,1.36.56,3.32,3.32,0,0,1,.47,1.92v3a10.14,10.14,0,0,0,.19,1.88h-1.22l-.1-.47a1.37,1.37,0,0,1-1.78.42c-.68-.28-1-.95-1-2a2.27,2.27,0,0,1,.42-1.46,2.07,2.07,0,0,1,1-.65,5.45,5.45,0,0,1,.61-.24,1.39,1.39,0,0,0,.42-.19.65.65,0,0,0,.23-.7c-.06-.34-.2-.55-.42-.61a.53.53,0,0,0-.51.1Q379.72,69.61,379.63,70.41Zm1.31,1.32s-.28.17-.75.42a1.33,1.33,0,0,0-.75,1.22c0,.53.19.76.56.7a1.12,1.12,0,0,0,.71-.61,2,2,0,0,0,.23-.94Z"/><path class="cls-39" d="M385.72,68.07l.71,3.42.7-3.42h1.36L387,74.73a4.58,4.58,0,0,1-.42,1.26.82.82,0,0,1-.75.56h-1v-1.5h.56a1.7,1.7,0,0,0,.29-.09.83.83,0,0,0,.14-.37l-1.46-6.52Z"/><path class="cls-39" d="M397,68.26h.61V66h1.12v2.25h.8v1.4h-.8v3.66c0,.37.1.56.28.56h.57v1.41h-.8a1,1,0,0,1-.89-.38,2.6,2.6,0,0,1-.28-1.4V69.66H397Z"/><path class="cls-39" d="M402.36,71.68a5.44,5.44,0,0,1,.42-2.25c.38-.88.9-1.34,1.55-1.41a1.78,1.78,0,0,1,1.74,1,5.2,5.2,0,0,1,.61,2.35,5.88,5.88,0,0,1-.52,2.72c-.44.87-1,1.29-1.64,1.26a1.79,1.79,0,0,1-1.59-1.17A5.34,5.34,0,0,1,402.36,71.68Zm1.27,0a5,5,0,0,0,.19,1.5c.12.44.31.69.56.75s.61-.09.8-.56a5.09,5.09,0,0,0,.23-1.36,6.06,6.06,0,0,0-.14-1.74c-.13-.5-.33-.78-.61-.84s-.61.16-.8.66A4.86,4.86,0,0,0,403.63,71.68Z"/><path class="cls-39" d="M414.41,75.29V65.68h1.22v2.86a.76.76,0,0,1,.37-.38,1.47,1.47,0,0,1,.8-.14c1,.1,1.5,1.14,1.5,3.14v4.13h-1.17V71.16a2.37,2.37,0,0,0-.24-1.17.66.66,0,0,0-.51-.42.54.54,0,0,0-.47.33,2.4,2.4,0,0,0-.28,1.26v4.13Z"/><path class="cls-39" d="M424.53,72.24h-3a4,4,0,0,0,.23,1.13c.13.31.28.5.47.56a.5.5,0,0,0,.52-.14,1.2,1.2,0,0,0,.37-.66h1.36c-.34,1.5-1.05,2.25-2.11,2.25a1.8,1.8,0,0,1-1.59-1,5.11,5.11,0,0,1-.56-2.58,5.81,5.81,0,0,1,.51-2.58A1.94,1.94,0,0,1,422.14,68a1.75,1.75,0,0,1,1.69.94,5.21,5.21,0,0,1,.7,2.81Zm-3-1.36h1.69c0-.84-.27-1.34-.71-1.5-.25-.09-.47,0-.65.33A2.52,2.52,0,0,0,421.49,70.88Z"/><path class="cls-39" d="M427.63,70.41h-1.17a3.66,3.66,0,0,1,.47-1.82,1.57,1.57,0,0,1,1.4-.61,1.5,1.5,0,0,1,1.36.56,3.32,3.32,0,0,1,.47,1.92v3a10.14,10.14,0,0,0,.19,1.88h-1.22l-.1-.47a1.37,1.37,0,0,1-1.78.42c-.68-.28-1-.95-1-2a2.27,2.27,0,0,1,.42-1.46,2.07,2.07,0,0,1,1-.65,5.45,5.45,0,0,1,.61-.24,1.39,1.39,0,0,0,.42-.19.65.65,0,0,0,.23-.7c-.06-.34-.2-.55-.42-.61a.53.53,0,0,0-.51.1Q427.72,69.61,427.63,70.41Zm1.31,1.32s-.28.17-.75.42a1.33,1.33,0,0,0-.75,1.22c0,.53.19.76.56.7a1.12,1.12,0,0,0,.71-.61,2,2,0,0,0,.23-.94Z"/><path class="cls-39" d="M433.49,68.07h1.17v.56c.16-.37.59-.56,1.31-.56v1.5h-.28a.82.82,0,0,0-.7.47,2.38,2.38,0,0,0-.33,1.31v3.94h-1.17Z"/><path class="cls-39" d="M439.21,74.26a.8.8,0,0,1,0,1.12.8.8,0,0,1-1.22,0,.77.77,0,0,1,0-1.12.8.8,0,0,1,1.22,0Z"/></g></g></svg>