<svg xmlns="http://www.w3.org/2000/svg" xmlns:xlink="http://www.w3.org/1999/xlink" viewBox="0 0 445.1 115.2"><defs><style>.cls-1{fill:url(#linear-gradient);}.cls-2,.cls-3{opacity:0.25;}.cls-10,.cls-11,.cls-12,.cls-13,.cls-14,.cls-15,.cls-16,.cls-17,.cls-18,.cls-19,.cls-20,.cls-21,.cls-22,.cls-23,.cls-24,.cls-25,.cls-26,.cls-27,.cls-28,.cls-29,.cls-3,.cls-4,.cls-5,.cls-6,.cls-7,.cls-8,.cls-9{fill:#929497;}.cls-4{opacity:0.24;}.cls-5{opacity:0.24;}.cls-6{opacity:0.23;}.cls-7{opacity:0.23;}.cls-8{opacity:0.22;}.cls-9{opacity:0.22;}.cls-10{opacity:0.21;}.cls-11{opacity:0.2;}.cls-12{opacity:0.2;}.cls-13{opacity:0.19;}.cls-14{opacity:0.19;}.cls-15{opacity:0.18;}.cls-16{opacity:0.18;}.cls-17{opacity:0.17;}.cls-18{opacity:0.16;}.cls-19{opacity:0.16;}.cls-20{opacity:0.15;}.cls-21{opacity:0.15;}.cls-22{opacity:0.14;}.cls-23{opacity:0.13;}.cls-24{opacity:0.13;}.cls-25{opacity:0.12;}.cls-26{opacity:0.12;}.cls-27{opacity:0.11;}.cls-28{opacity:0.11;}.cls-29{opacity:0.1;}.cls-30{fill:url(#linear-gradient-2);}.cls-31{fill:url(#linear-gradient-3);}.cls-32{fill:url(#linear-gradient-4);}.cls-33{fill:url(#linear-gradient-5);}.cls-34{fill:#e4df95;}.cls-35{fill:#ebaed1;}.cls-36{fill:#e3e4e7;}.cls-37{fill:#a6e37a;}.cls-38{fill:#ecebd1;}.cls-39{fill:#d69d99;}</style><linearGradient id="linear-gradient" x1="222.55" x2="222.55" y2="115.2" gradientUnits="userSpaceOnUse"><stop offset="0" stop-color="#929497" stop-opacity="0.25"/><stop offset="0.08" stop-color="#868895" stop-opacity="0.35"/><stop offset="0.35" stop-color="#626590" stop-opacity="0.63"/><stop offset="0.61" stop-color="#484c8c" stop-opacity="0.83"/><stop offset="0.83" stop-color="#393c8a" stop-opacity="0.96"/><stop offset="1" stop-color="#333789"/></linearGradient><linearGradient id="linear-gradient-2" x1="-417.6" y1="114.12" x2="27.5" y2="114.12" gradientTransform="translate(208.8) scale(0.5 1)" gradientUnits="userSpaceOnUse"><stop offset="0" stop-color="#f1f1f2" stop-opacity="0"/><stop offset="0.25" stop-color="#fff"/></linearGradient><linearGradient id="linear-gradient-3" x1="1197.8" y1="114.12" x2="1642.9" y2="114.12" gradientTransform="matrix(0.5, 0, 0, -1, -376.35, 228.24)" xlink:href="#linear-gradient-2"/><linearGradient id="linear-gradient-4" x1="-417.6" y1="1.08" x2="27.5" y2="1.08" xlink:href="#linear-gradient-2"/><linearGradient id="linear-gradient-5" x1="1197.8" y1="1.08" x2="1642.9" y2="1.08" gradientTransform="matrix(0.5, 0, 0, -1, -376.35, 2.16)" xlink:href="#linear-gradient-2"/></defs><title>uimobile</title><g id="Layer_2" data-name="Layer 2"><g id="Layer_2-2" data-name="Layer 2"><rect class="cls-1" width="445.1" height="115.2"/><rect class="cls-2" width="445.1" height="115.2"/><polygon class="cls-3" points="222.55 113.04 0 113.04 0 115.2 222.55 115.2 445.1 115.2 445.1 113.04 222.55 113.04"/><polygon class="cls-4" points="222.55 108.69 0 108.69 0 110.85 222.55 110.85 445.1 110.85 445.1 108.69 222.55 108.69"/><polygon class="cls-5" points="222.55 104.34 0 104.34 0 106.5 222.55 106.5 445.1 106.5 445.1 104.34 222.55 104.34"/><polygon class="cls-6" points="222.55 100 0 100 0 102.16 222.55 102.16 445.1 102.16 445.1 100 222.55 100"/><polygon class="cls-7" points="222.55 95.65 0 95.65 0 97.81 222.55 97.81 445.1 97.81 445.1 95.65 222.55 95.65"/><polygon class="cls-8" points="222.55 91.3 0 91.3 0 93.46 222.55 93.46 445.1 93.46 445.1 91.3 222.55 91.3"/><polygon class="cls-9" points="222.55 86.95 0 86.95 0 89.11 222.55 89.11 445.1 89.11 445.1 86.95 222.55 86.95"/><polygon class="cls-10" points="222.55 82.61 0 82.61 0 84.77 222.55 84.77 445.1 84.77 445.1 82.61 222.55 82.61"/><polygon class="cls-11" points="222.55 78.26 0 78.26 0 80.42 222.55 80.42 445.1 80.42 445.1 78.26 222.55 78.26"/><polygon class="cls-12" points="222.55 73.91 0 73.91 0 76.07 222.55 76.07 445.1 76.07 445.1 73.91 222.55 73.91"/><polygon class="cls-13" points="222.55 69.56 0 69.56 0 71.72 222.55 71.72 445.1 71.72 445.1 69.56 222.55 69.56"/><polygon class="cls-14" points="222.55 65.22 0 65.22 0 67.38 222.55 67.38 445.1 67.38 445.1 65.22 222.55 65.22"/><polygon class="cls-15" points="222.55 60.87 0 60.87 0 63.03 222.55 63.03 445.1 63.03 445.1 60.87 222.55 60.87"/><polygon class="cls-16" points="222.55 56.52 0 56.52 0 58.68 222.55 58.68 445.1 58.68 445.1 56.52 222.55 56.52"/><polygon class="cls-17" points="222.55 52.17 0 52.17 0 54.33 222.55 54.33 445.1 54.33 445.1 52.17 222.55 52.17"/><polygon class="cls-18" points="222.55 47.83 0 47.83 0 49.98 222.55 49.98 445.1 49.98 445.1 47.83 222.55 47.83"/><polygon class="cls-19" points="222.55 43.48 0 43.48 0 45.64 222.55 45.64 445.1 45.64 445.1 43.48 222.55 43.48"/><polygon class="cls-20" points="222.55 39.13 0 39.13 0 41.29 222.55 41.29 445.1 41.29 445.1 39.13 222.55 39.13"/><polygon class="cls-21" points="222.55 34.78 0 34.78 0 36.94 222.55 36.94 445.1 36.94 445.1 34.78 222.55 34.78"/><polygon class="cls-22" points="222.55 30.43 0 30.43 0 32.59 222.55 32.59 445.1 32.59 445.1 30.43 222.55 30.43"/><polygon class="cls-23" points="222.55 26.09 0 26.09 0 28.25 222.55 28.25 445.1 28.25 445.1 26.09 222.55 26.09"/><polygon class="cls-24" points="222.55 21.74 0 21.74 0 23.9 222.55 23.9 445.1 23.9 445.1 21.74 222.55 21.74"/><polygon class="cls-25" points="222.55 17.39 0 17.39 0 19.55 222.55 19.55 445.1 19.55 445.1 17.39 222.55 17.39"/><polygon class="cls-26" points="222.55 13.04 0 13.04 0 15.2 222.55 15.2 445.1 15.2 445.1 13.04 222.55 13.04"/><polygon class="cls-27" points="222.55 8.7 0 8.7 0 10.86 222.55 10.86 445.1 10.86 445.1 8.7 222.55 8.7"/><polygon class="cls-28" points="222.55 4.35 0 4.35 0 6.51 222.55 6.51 445.1 6.51 445.1 4.35 222.55 4.35"/><polygon class="cls-29" points="222.55 0 0 0 0 2.16 222.55 2.16 445.1 2.16 445.1 0 222.55 0"/><rect class="cls-30" y="113.04" width="222.55" height="2.16"/><rect class="cls-31" x="222.55" y="113.04" width="222.55" height="2.16" transform="translate(667.65 228.24) rotate(180)"/><rect class="cls-32" width="222.55" height="2.16"/><rect class="cls-33" x="222.55" width="222.55" height="2.16" transform="translate(667.65 2.16) rotate(180)"/></g><g id="Layer_4" data-name="Layer 4"><path class="cls-34" d="M6,17.69V8.08H7.49l2.15,6v-6H11v9.61H9.64L7.35,11.5v6.19Z"/><path class="cls-34" d="M16.58,14.64h-3a3.94,3.94,0,0,0,.24,1.13.85.85,0,0,0,.47.56.48.48,0,0,0,.51-.14,1.15,1.15,0,0,0,.38-.66h1.36c-.35,1.5-1,2.25-2.11,2.25a1.82,1.82,0,0,1-1.6-1,5.22,5.22,0,0,1-.56-2.58,5.67,5.67,0,0,1,.52-2.58,1.92,1.92,0,0,1,1.45-1.17,1.75,1.75,0,0,1,1.69.94,5.21,5.21,0,0,1,.7,2.81Zm-3-1.36h1.69c0-.84-.26-1.34-.7-1.5q-.37-.13-.66.33A2.65,2.65,0,0,0,13.53,13.28Z"/><path class="cls-34" d="M17.61,10.47h1.22l.61,3.8.56-3.8h1l.66,3.8.52-3.8h1.26L22.3,17.69H21.17l-.65-3.85-.61,3.85H18.78Z"/><path class="cls-34" d="M24.55,19V10.47h1.22v.37c.15-.31.5-.46,1-.46a1.61,1.61,0,0,1,1.41.79,4.82,4.82,0,0,1,.61,2.44,5.67,5.67,0,0,1-.66,3.09,1.61,1.61,0,0,1-1.36.89,1.3,1.3,0,0,1-.8-.28c-.12-.12-.2-.18-.23-.18V19Zm1.92-3a.55.55,0,0,0,.7-.32,3.1,3.1,0,0,0,.38-1.5,4,4,0,0,0-.19-1.6c-.15-.4-.36-.64-.61-.7s-.51.11-.7.51a3.7,3.7,0,0,0-.28,1.55A4.47,4.47,0,0,0,26,15.34C26.08,15.69,26.25,15.89,26.47,16Z"/><path class="cls-34" d="M31.91,8.08h1.17v9.61H31.91Z"/><path class="cls-34" d="M37.67,12.81H36.5A3.77,3.77,0,0,1,37,11a1.58,1.58,0,0,1,1.41-.61,1.51,1.51,0,0,1,1.36.56,3.32,3.32,0,0,1,.47,1.92v3a11,11,0,0,0,.18,1.88H39.17l-.09-.47a1.37,1.37,0,0,1-1.78.42c-.69-.28-1-.95-1-2a2.27,2.27,0,0,1,.42-1.46,2.09,2.09,0,0,1,1-.65,6.33,6.33,0,0,1,.61-.24,1.6,1.6,0,0,0,.43-.19.68.68,0,0,0,.23-.7c-.06-.34-.2-.55-.42-.61a.55.55,0,0,0-.52.1Q37.78,12,37.67,12.81ZM39,14.13s-.28.17-.75.42a1.33,1.33,0,0,0-.75,1.22c0,.53.18.76.56.7a1.08,1.08,0,0,0,.7-.61,1.85,1.85,0,0,0,.24-.94Z"/><path class="cls-34" d="M43.77,10.47l.7,3.42.7-3.42h1.36l-1.45,6.66a4.58,4.58,0,0,1-.42,1.26.84.84,0,0,1-.75.56h-1v-1.5h.56a1.31,1.31,0,0,0,.28-.09.73.73,0,0,0,.14-.37l-1.45-6.52Z"/><path class="cls-34" d="M52.58,14.64h-3a3.94,3.94,0,0,0,.24,1.13.85.85,0,0,0,.47.56.48.48,0,0,0,.51-.14,1.15,1.15,0,0,0,.38-.66h1.36c-.35,1.5-1.05,2.25-2.11,2.25a1.82,1.82,0,0,1-1.6-1,5.22,5.22,0,0,1-.56-2.58,5.67,5.67,0,0,1,.52-2.58,1.92,1.92,0,0,1,1.45-1.17,1.75,1.75,0,0,1,1.69.94,5.21,5.21,0,0,1,.7,2.81Zm-3-1.36h1.69c0-.84-.26-1.34-.7-1.5q-.37-.13-.66.33A2.65,2.65,0,0,0,49.53,13.28Z"/><path class="cls-34" d="M55.53,10.47h1.18V11c.15-.37.59-.56,1.31-.56V12h-.28a.84.84,0,0,0-.71.47,2.47,2.47,0,0,0-.32,1.31v3.94H55.53Z"/><path class="cls-34" d="M66.46,17.69V8.08h1.21v2.86a.78.78,0,0,1,.38-.38,1.47,1.47,0,0,1,.8-.14c1,.1,1.5,1.14,1.5,3.14v4.13H69.17V13.56a2.38,2.38,0,0,0-.23-1.17.68.68,0,0,0-.52-.42.54.54,0,0,0-.46.33,2.4,2.4,0,0,0-.29,1.26v4.13Z"/><path class="cls-34" d="M73.67,12.81H72.5A3.77,3.77,0,0,1,73,11a1.58,1.58,0,0,1,1.41-.61,1.51,1.51,0,0,1,1.36.56,3.32,3.32,0,0,1,.47,1.92v3a11,11,0,0,0,.18,1.88H75.17l-.09-.47a1.37,1.37,0,0,1-1.78.42c-.69-.28-1-.95-1-2a2.27,2.27,0,0,1,.42-1.46,2.09,2.09,0,0,1,1-.65,6.33,6.33,0,0,1,.61-.24,1.6,1.6,0,0,0,.43-.19.68.68,0,0,0,.23-.7c-.06-.34-.2-.55-.42-.61a.55.55,0,0,0-.52.1Q73.77,12,73.67,12.81ZM75,14.13s-.28.17-.75.42a1.33,1.33,0,0,0-.75,1.22c0,.53.18.76.56.7a1.08,1.08,0,0,0,.7-.61,1.85,1.85,0,0,0,.24-.94Z"/><path class="cls-34" d="M78.64,15.25h1.18c0,.66.18,1,.56,1.13.56.15.86-.11.89-.8a1.05,1.05,0,0,0-.14-.61,1,1,0,0,0-.38-.19L80,14.5a1.64,1.64,0,0,1-.8-.56,2.36,2.36,0,0,1-.38-1.41c0-1.25.49-1.95,1.46-2.11a1.52,1.52,0,0,1,1.5.66,2.84,2.84,0,0,1,.56,1.73H81.13c0-.56-.16-.9-.47-1a1,1,0,0,0-.42,0,.5.5,0,0,0-.33.47,1,1,0,0,0,.14.52.78.78,0,0,0,.33.32l.75.33a2.34,2.34,0,0,1,1,.66,2.58,2.58,0,0,1,.33,1.41,2.72,2.72,0,0,1-.37,1.45,1.73,1.73,0,0,1-2.91.09A3.43,3.43,0,0,1,78.64,15.25Z"/><path class="cls-34" d="M94.58,14.64h-3a3.94,3.94,0,0,0,.24,1.13.85.85,0,0,0,.47.56.48.48,0,0,0,.51-.14,1.15,1.15,0,0,0,.38-.66h1.36c-.35,1.5-1,2.25-2.11,2.25a1.82,1.82,0,0,1-1.6-1,5.22,5.22,0,0,1-.56-2.58,5.67,5.67,0,0,1,.52-2.58,1.92,1.92,0,0,1,1.45-1.17,1.75,1.75,0,0,1,1.69.94,5.21,5.21,0,0,1,.7,2.81Zm-3-1.36h1.69c0-.84-.26-1.34-.7-1.5q-.37-.13-.66.33A2.65,2.65,0,0,0,91.53,13.28Z"/><path class="cls-34" d="M96.6,10.47h1.22v.66c0-.1.09-.22.28-.38a1.65,1.65,0,0,1,.61-.33,1.18,1.18,0,0,1,1.26.71,4,4,0,0,1,.52,2.06v4.5H99.27V13.8A3.57,3.57,0,0,0,99,12.34c-.12-.31-.28-.45-.46-.42s-.36.21-.52.52a3.26,3.26,0,0,0-.23,1.36v3.89H96.6Z"/><path class="cls-34" d="M103.07,10.66h.6V8.41h1.13v2.25h.8v1.4h-.8v3.66c0,.37.09.56.28.56h.56v1.41h-.79a1,1,0,0,1-.89-.38,2.59,2.59,0,0,1-.29-1.4V12.06h-.6Z"/><path class="cls-34" d="M112.58,14.64h-3a3.94,3.94,0,0,0,.24,1.13.85.85,0,0,0,.47.56.48.48,0,0,0,.51-.14,1.15,1.15,0,0,0,.38-.66h1.36c-.35,1.5-1,2.25-2.11,2.25a1.82,1.82,0,0,1-1.6-1,5.22,5.22,0,0,1-.56-2.58,5.67,5.67,0,0,1,.52-2.58,1.92,1.92,0,0,1,1.45-1.17,1.75,1.75,0,0,1,1.69.94,5.21,5.21,0,0,1,.7,2.81Zm-3-1.36h1.69c0-.84-.26-1.34-.7-1.5q-.37-.13-.66.33A2.65,2.65,0,0,0,109.53,13.28Z"/><path class="cls-34" d="M115.53,10.47h1.18V11c.15-.37.59-.56,1.31-.56V12h-.28a.84.84,0,0,0-.71.47,2.47,2.47,0,0,0-.32,1.31v3.94h-1.18Z"/><path class="cls-34" d="M124.58,14.64h-3a3.94,3.94,0,0,0,.24,1.13.85.85,0,0,0,.47.56.48.48,0,0,0,.51-.14,1.15,1.15,0,0,0,.38-.66h1.36c-.35,1.5-1,2.25-2.11,2.25a1.82,1.82,0,0,1-1.6-1,5.22,5.22,0,0,1-.56-2.58,5.67,5.67,0,0,1,.52-2.58,1.92,1.92,0,0,1,1.45-1.17,1.75,1.75,0,0,1,1.69.94,5.21,5.21,0,0,1,.7,2.81Zm-3-1.36h1.69c0-.84-.26-1.34-.7-1.5q-.37-.13-.66.33A2.65,2.65,0,0,0,121.53,13.28Z"/><path class="cls-34" d="M129.46,11V8.08h1.17v9.61h-1.17v-.47a1.2,1.2,0,0,1-1,.56,1.55,1.55,0,0,1-1.4-.94,5.36,5.36,0,0,1-.56-2.62,11.2,11.2,0,0,1,.09-1.5,3.55,3.55,0,0,1,.84-1.83,1.42,1.42,0,0,1,1.18-.42A1.32,1.32,0,0,1,129.46,11Zm-1,5.39c.31.1.56-.08.75-.51a3.77,3.77,0,0,0,.24-1.46,5.58,5.58,0,0,0-.14-1.64c-.13-.53-.32-.82-.57-.89s-.53.11-.75.61a4.58,4.58,0,0,0-.28,1.64,4.93,4.93,0,0,0,.19,1.5C128,16.11,128.22,16.36,128.47,16.42Z"/><path class="cls-34" d="M139.07,10.66h.6V8.41h1.13v2.25h.8v1.4h-.8v3.66c0,.37.09.56.28.56h.56v1.41h-.79a1,1,0,0,1-.89-.38,2.59,2.59,0,0,1-.29-1.4V12.06h-.6Z"/><path class="cls-34" d="M144.46,17.69V8.08h1.21v2.86a.78.78,0,0,1,.38-.38,1.47,1.47,0,0,1,.8-.14c1,.1,1.5,1.14,1.5,3.14v4.13h-1.18V13.56a2.38,2.38,0,0,0-.23-1.17.68.68,0,0,0-.52-.42.54.54,0,0,0-.46.33,2.4,2.4,0,0,0-.29,1.26v4.13Z"/><path class="cls-34" d="M152.52,10.09c-.44,0-.67-.26-.7-.89s.14-1,.51-1.07.72.2.75.89a1.37,1.37,0,0,1-.09.7A.58.58,0,0,1,152.52,10.09Zm-.66,7.6v-7H153v7Z"/><path class="cls-34" d="M156.64,15.25h1.18c0,.66.18,1,.56,1.13.56.15.86-.11.89-.8a1.05,1.05,0,0,0-.14-.61,1,1,0,0,0-.38-.19L158,14.5a1.64,1.64,0,0,1-.8-.56,2.36,2.36,0,0,1-.38-1.41c0-1.25.49-1.95,1.46-2.11a1.52,1.52,0,0,1,1.5.66,2.84,2.84,0,0,1,.56,1.73h-1.17c0-.56-.16-.9-.47-1a1,1,0,0,0-.42,0,.5.5,0,0,0-.33.47,1,1,0,0,0,.14.52.78.78,0,0,0,.33.32l.75.33a2.34,2.34,0,0,1,1,.66,2.58,2.58,0,0,1,.33,1.41,2.72,2.72,0,0,1-.37,1.45,1.73,1.73,0,0,1-2.91.09A3.43,3.43,0,0,1,156.64,15.25Z"/><path class="cls-34" d="M167.61,10.47h1.22l.61,3.8.56-3.8h1l.66,3.8.52-3.8h1.26l-1.17,7.22h-1.13l-.65-3.85-.61,3.85h-1.13Z"/><path class="cls-34" d="M178.58,14.64h-3.05a3.94,3.94,0,0,0,.24,1.13.85.85,0,0,0,.47.56.48.48,0,0,0,.51-.14,1.15,1.15,0,0,0,.38-.66h1.36c-.35,1.5-1.05,2.25-2.11,2.25a1.82,1.82,0,0,1-1.6-1,5.22,5.22,0,0,1-.56-2.58,5.67,5.67,0,0,1,.52-2.58,1.92,1.92,0,0,1,1.45-1.17,1.75,1.75,0,0,1,1.69.94,5.21,5.21,0,0,1,.7,2.81Zm-3.05-1.36h1.69c0-.84-.26-1.34-.7-1.5q-.37-.13-.66.33A2.65,2.65,0,0,0,175.53,13.28Z"/><path class="cls-34" d="M180.22,17.69V8.08h1.17v3a1.29,1.29,0,0,1,.89-.61,1.42,1.42,0,0,1,1.18.42c.68.69,1,1.91.93,3.66a5.14,5.14,0,0,1-.61,2.44,1.37,1.37,0,0,1-1.21.79,1.32,1.32,0,0,1-1.18-.56v.47Zm1.88-1.27c.31.1.56-.09.75-.56a5,5,0,0,0,.28-1.45,6.4,6.4,0,0,0-.19-1.69c-.12-.47-.31-.73-.56-.8s-.52.08-.71.52a4.86,4.86,0,0,0-.28,1.73,5.86,5.86,0,0,0,.14,1.36C181.66,16.06,181.85,16.36,182.1,16.42Z"/><path class="cls-34" d="M195.46,11V8.08h1.17v9.61h-1.17v-.47a1.2,1.2,0,0,1-1,.56,1.55,1.55,0,0,1-1.4-.94,5.36,5.36,0,0,1-.56-2.62,11.2,11.2,0,0,1,.09-1.5,3.55,3.55,0,0,1,.84-1.83,1.42,1.42,0,0,1,1.18-.42A1.32,1.32,0,0,1,195.46,11Zm-1,5.39c.31.1.56-.08.75-.51a3.77,3.77,0,0,0,.24-1.46,5.58,5.58,0,0,0-.14-1.64c-.13-.53-.32-.82-.57-.89s-.53.11-.75.61a4.58,4.58,0,0,0-.28,1.64,4.93,4.93,0,0,0,.19,1.5C194,16.11,194.22,16.36,194.47,16.42Z"/><path class="cls-34" d="M198.41,14.08a5.44,5.44,0,0,1,.42-2.25c.38-.88.89-1.34,1.55-1.41a1.76,1.76,0,0,1,1.73,1,5,5,0,0,1,.61,2.35,5.88,5.88,0,0,1-.51,2.72c-.44.87-1,1.29-1.64,1.26a1.82,1.82,0,0,1-1.6-1.17A5.46,5.46,0,0,1,198.41,14.08Zm1.26,0a5.37,5.37,0,0,0,.19,1.5c.13.44.31.69.56.75s.61-.09.8-.56a5,5,0,0,0,.24-1.36,6.06,6.06,0,0,0-.14-1.74c-.13-.5-.33-.78-.61-.84s-.61.16-.8.66A4.59,4.59,0,0,0,199.67,14.08Z"/><path class="cls-34" d="M203.66,10.47h1.17V11a.9.9,0,0,1,.38-.47,1,1,0,0,1,.56-.18,1.17,1.17,0,0,1,1.12.93,2,2,0,0,1,.52-.65,1.16,1.16,0,0,1,.84-.24c.85.19,1.27,1.05,1.27,2.58v4.69H208.3V13.56a3.05,3.05,0,0,0-.19-1.22c-.12-.28-.26-.39-.42-.32a1,1,0,0,0-.37.42,2.69,2.69,0,0,0-.19,1.12v4.13H206V13.56a3.73,3.73,0,0,0-.14-1.12c-.1-.31-.25-.45-.47-.42s-.24.15-.33.37a3,3,0,0,0-.19,1.17v4.13h-1.17Z"/><path class="cls-34" d="M211.67,12.81H210.5A3.77,3.77,0,0,1,211,11a1.58,1.58,0,0,1,1.41-.61,1.51,1.51,0,0,1,1.36.56,3.32,3.32,0,0,1,.47,1.92v3a11,11,0,0,0,.18,1.88h-1.22l-.09-.47a1.37,1.37,0,0,1-1.78.42c-.69-.28-1-.95-1-2a2.27,2.27,0,0,1,.42-1.46,2.09,2.09,0,0,1,1-.65,6.33,6.33,0,0,1,.61-.24,1.6,1.6,0,0,0,.43-.19.68.68,0,0,0,.23-.7c-.06-.34-.2-.55-.42-.61a.55.55,0,0,0-.52.1Q211.77,12,211.67,12.81ZM213,14.13s-.28.17-.75.42a1.33,1.33,0,0,0-.75,1.22c0,.53.18.76.56.7a1.08,1.08,0,0,0,.7-.61,1.85,1.85,0,0,0,.24-.94Z"/><path class="cls-34" d="M218.52,10.09c-.44,0-.67-.26-.7-.89s.14-1,.51-1.07.72.2.75.89a1.37,1.37,0,0,1-.09.7A.58.58,0,0,1,218.52,10.09Zm-.66,7.6v-7H219v7Z"/><path class="cls-34" d="M222.6,10.47h1.22v.66c0-.1.09-.22.28-.38a1.65,1.65,0,0,1,.61-.33,1.18,1.18,0,0,1,1.26.71,4,4,0,0,1,.52,2.06v4.5h-1.22V13.8a3.57,3.57,0,0,0-.24-1.46c-.12-.31-.28-.45-.46-.42s-.36.21-.52.52a3.26,3.26,0,0,0-.23,1.36v3.89H222.6Z"/><path class="cls-34" d="M229.25,16.66a.77.77,0,0,1,0,1.12.83.83,0,0,1-.61.28.84.84,0,0,1-.61-.28.8.8,0,0,1,0-1.12.84.84,0,0,1,.61-.28A.83.83,0,0,1,229.25,16.66Z"/><path class="cls-35" d="M5.61,22.48H6.78l.71,5.34.56-5.34h1l.47,5.3.7-5.3h1.27l-1.41,9.61H8.94L8.57,28l-.43,4.13H7Z"/><path class="cls-35" d="M16.58,29h-3a3.94,3.94,0,0,0,.24,1.13.85.85,0,0,0,.47.56.46.46,0,0,0,.51-.14,1.15,1.15,0,0,0,.38-.66h1.36c-.35,1.5-1,2.25-2.11,2.25a1.82,1.82,0,0,1-1.6-1,5.2,5.2,0,0,1-.56-2.58A5.6,5.6,0,0,1,12.74,26a1.92,1.92,0,0,1,1.45-1.18,1.75,1.75,0,0,1,1.69.94,5.21,5.21,0,0,1,.7,2.81Zm-3-1.36h1.69c0-.84-.26-1.34-.7-1.5q-.37-.13-.66.33A2.65,2.65,0,0,0,13.53,27.68Z"/><path class="cls-35" d="M18.22,32.09V22.48h1.17v3a1.29,1.29,0,0,1,.89-.61,1.42,1.42,0,0,1,1.18.42c.68.69,1,1.91.93,3.66a5.14,5.14,0,0,1-.61,2.44,1.37,1.37,0,0,1-1.21.79,1.3,1.3,0,0,1-1.18-.56v.47Zm1.88-1.27c.31.1.56-.09.75-.56a5,5,0,0,0,.28-1.45,6.4,6.4,0,0,0-.19-1.69c-.12-.47-.31-.73-.56-.8s-.52.08-.71.52a4.86,4.86,0,0,0-.28,1.73,5.86,5.86,0,0,0,.14,1.36C19.66,30.46,19.85,30.76,20.1,30.82Z"/><path class="cls-35" d="M23.66,24.87h1.17v.56a.94.94,0,0,1,.38-.47,1,1,0,0,1,.56-.18,1.17,1.17,0,0,1,1.12.93,2.16,2.16,0,0,1,.52-.65,1.16,1.16,0,0,1,.84-.24c.85.19,1.27,1.05,1.27,2.58v4.69H28.3V28a3,3,0,0,0-.19-1.21q-.18-.43-.42-.33a1,1,0,0,0-.37.42A2.72,2.72,0,0,0,27.13,28v4.13H26V28a3.78,3.78,0,0,0-.14-1.12c-.1-.31-.25-.45-.47-.42s-.24.15-.33.37A3.08,3.08,0,0,0,24.83,28v4.13H23.66Z"/><path class="cls-35" d="M31.67,27.21H30.5A3.77,3.77,0,0,1,31,25.39a1.58,1.58,0,0,1,1.41-.61,1.51,1.51,0,0,1,1.36.56,3.32,3.32,0,0,1,.47,1.92v2.95a11,11,0,0,0,.18,1.88H33.17l-.09-.47A1.37,1.37,0,0,1,31.3,32c-.69-.28-1-.95-1-2a2.27,2.27,0,0,1,.42-1.46,2.09,2.09,0,0,1,1-.65c.22-.1.43-.17.61-.24a2.05,2.05,0,0,0,.43-.18.71.71,0,0,0,.23-.71c-.06-.34-.2-.54-.42-.61a.55.55,0,0,0-.52.1Q31.78,26.42,31.67,27.21ZM33,28.53s-.28.17-.75.42a1.33,1.33,0,0,0-.75,1.22c0,.53.18.76.56.7a1.08,1.08,0,0,0,.7-.61,1.85,1.85,0,0,0,.24-.94Z"/><path class="cls-35" d="M36.64,29.65h1.18c0,.66.18,1,.56,1.13.56.15.86-.11.89-.8a1.08,1.08,0,0,0-.14-.61,1.18,1.18,0,0,0-.38-.19L38,28.9a1.64,1.64,0,0,1-.8-.56,2.34,2.34,0,0,1-.38-1.41c0-1.25.49-1.95,1.46-2.11a1.52,1.52,0,0,1,1.5.66,2.84,2.84,0,0,1,.56,1.73H39.13c0-.56-.16-.9-.47-1a1,1,0,0,0-.42,0,.51.51,0,0,0-.33.47,1,1,0,0,0,.14.52.87.87,0,0,0,.33.33l.75.32a2.34,2.34,0,0,1,1,.66,2.58,2.58,0,0,1,.33,1.41,2.72,2.72,0,0,1-.37,1.45,1.73,1.73,0,0,1-2.91.09A3.43,3.43,0,0,1,36.64,29.65Z"/><path class="cls-35" d="M43.07,25.06h.6V22.81H44.8v2.25h.8v1.4h-.8v3.66c0,.38.09.56.28.56h.56v1.41h-.79a1,1,0,0,1-.89-.38,2.59,2.59,0,0,1-.29-1.4V26.46h-.6Z"/><path class="cls-35" d="M52.58,29h-3a3.94,3.94,0,0,0,.24,1.13.85.85,0,0,0,.47.56.46.46,0,0,0,.51-.14,1.15,1.15,0,0,0,.38-.66h1.36c-.35,1.5-1.05,2.25-2.11,2.25a1.82,1.82,0,0,1-1.6-1,5.2,5.2,0,0,1-.56-2.58A5.6,5.6,0,0,1,48.74,26a1.92,1.92,0,0,1,1.45-1.18,1.75,1.75,0,0,1,1.69.94,5.21,5.21,0,0,1,.7,2.81Zm-3-1.36h1.69c0-.84-.26-1.34-.7-1.5q-.37-.13-.66.33A2.65,2.65,0,0,0,49.53,27.68Z"/><path class="cls-35" d="M55.53,24.87h1.18v.56c.15-.37.59-.56,1.31-.56v1.5h-.28a.84.84,0,0,0-.71.47,2.47,2.47,0,0,0-.32,1.31v3.94H55.53Z"/><path class="cls-35" d="M61.16,21.92a.92.92,0,0,1,.94.65,1.12,1.12,0,0,1-.1,1.08l-1,1.41-.7-.47.42-.66a1,1,0,0,1-.66-1.22A1,1,0,0,1,61.16,21.92Z"/><path class="cls-35" d="M72.64,29.65h1.18c0,.66.18,1,.56,1.13.56.15.86-.11.89-.8a1.08,1.08,0,0,0-.14-.61,1.18,1.18,0,0,0-.38-.19L74,28.9a1.64,1.64,0,0,1-.8-.56,2.34,2.34,0,0,1-.38-1.41c0-1.25.49-1.95,1.46-2.11a1.52,1.52,0,0,1,1.5.66,2.84,2.84,0,0,1,.56,1.73H75.13c0-.56-.16-.9-.47-1a1,1,0,0,0-.42,0,.51.51,0,0,0-.33.47,1,1,0,0,0,.14.52.87.87,0,0,0,.33.33l.75.32a2.34,2.34,0,0,1,1,.66,2.58,2.58,0,0,1,.33,1.41,2.72,2.72,0,0,1-.37,1.45,1.73,1.73,0,0,1-2.91.09A3.43,3.43,0,0,1,72.64,29.65Z"/><path class="cls-35" d="M87.46,25.43V22.48h1.17v9.61H87.46v-.47a1.17,1.17,0,0,1-1,.56,1.56,1.56,0,0,1-1.4-.93,5.42,5.42,0,0,1-.56-2.63,11.2,11.2,0,0,1,.09-1.5,3.55,3.55,0,0,1,.84-1.83,1.42,1.42,0,0,1,1.18-.42A1.32,1.32,0,0,1,87.46,25.43Zm-1,5.39q.47.15.75-.51a3.77,3.77,0,0,0,.24-1.46,5.58,5.58,0,0,0-.14-1.64c-.13-.53-.32-.82-.57-.89s-.53.11-.75.61a4.58,4.58,0,0,0-.28,1.64,4.93,4.93,0,0,0,.19,1.5C86,30.51,86.22,30.76,86.47,30.82Z"/><path class="cls-35" d="M91.67,27.21H90.5A3.77,3.77,0,0,1,91,25.39a1.58,1.58,0,0,1,1.41-.61,1.51,1.51,0,0,1,1.36.56,3.32,3.32,0,0,1,.47,1.92v2.95a11,11,0,0,0,.18,1.88H93.17l-.09-.47A1.37,1.37,0,0,1,91.3,32c-.69-.28-1-.95-1-2a2.27,2.27,0,0,1,.42-1.46,2.09,2.09,0,0,1,1-.65c.22-.1.43-.17.61-.24a2.05,2.05,0,0,0,.43-.18.71.71,0,0,0,.23-.71c-.06-.34-.2-.54-.42-.61a.55.55,0,0,0-.52.1Q91.78,26.42,91.67,27.21ZM93,28.53s-.28.17-.75.42a1.33,1.33,0,0,0-.75,1.22c0,.53.18.76.56.7a1.08,1.08,0,0,0,.7-.61,1.85,1.85,0,0,0,.24-.94Z"/><path class="cls-35" d="M97.07,25.06h.6V22.81H98.8v2.25h.8v1.4h-.8v3.66c0,.38.09.56.28.56h.56v1.41h-.79a1,1,0,0,1-.89-.38,2.59,2.59,0,0,1-.29-1.4V26.46h-.6Z"/><path class="cls-35" d="M103.67,27.21H102.5a3.77,3.77,0,0,1,.47-1.82,1.58,1.58,0,0,1,1.41-.61,1.51,1.51,0,0,1,1.36.56,3.32,3.32,0,0,1,.47,1.92v2.95a11,11,0,0,0,.18,1.88h-1.22l-.09-.47a1.37,1.37,0,0,1-1.78.42c-.69-.28-1-.95-1-2a2.27,2.27,0,0,1,.42-1.46,2.09,2.09,0,0,1,1-.65c.22-.1.43-.17.61-.24a2.05,2.05,0,0,0,.43-.18.71.71,0,0,0,.23-.71c-.06-.34-.2-.54-.42-.61a.55.55,0,0,0-.52.1Q103.78,26.42,103.67,27.21ZM105,28.53s-.28.17-.75.42a1.33,1.33,0,0,0-.75,1.22c0,.53.18.76.56.7a1.08,1.08,0,0,0,.7-.61,1.85,1.85,0,0,0,.24-.94Z"/><path class="cls-35" d="M114.55,33.35V24.87h1.22v.38c.15-.32.5-.47,1-.47a1.61,1.61,0,0,1,1.41.79,4.82,4.82,0,0,1,.61,2.44,5.67,5.67,0,0,1-.66,3.09,1.62,1.62,0,0,1-1.36.9,1.31,1.31,0,0,1-.8-.29c-.12-.12-.2-.18-.23-.18v1.82Zm1.92-3a.55.55,0,0,0,.7-.32,3.1,3.1,0,0,0,.38-1.5,4,4,0,0,0-.19-1.6c-.15-.4-.36-.64-.61-.7s-.51.11-.7.52a3.62,3.62,0,0,0-.28,1.54,4.58,4.58,0,0,0,.19,1.46A.84.84,0,0,0,116.47,30.35Z"/><path class="cls-35" d="M121.67,27.21H120.5a3.77,3.77,0,0,1,.47-1.82,1.58,1.58,0,0,1,1.41-.61,1.51,1.51,0,0,1,1.36.56,3.32,3.32,0,0,1,.47,1.92v2.95a11,11,0,0,0,.18,1.88h-1.22l-.09-.47a1.37,1.37,0,0,1-1.78.42c-.69-.28-1-.95-1-2a2.27,2.27,0,0,1,.42-1.46,2.09,2.09,0,0,1,1-.65c.22-.1.43-.17.61-.24a2.05,2.05,0,0,0,.43-.18.71.71,0,0,0,.23-.71c-.06-.34-.2-.54-.42-.61a.55.55,0,0,0-.52.1Q121.78,26.42,121.67,27.21ZM123,28.53s-.28.17-.75.42a1.33,1.33,0,0,0-.75,1.22c0,.53.18.76.56.7a1.08,1.08,0,0,0,.7-.61,1.85,1.85,0,0,0,.24-.94Z"/><path class="cls-35" d="M130.49,27.4h-1.27a2.43,2.43,0,0,0-.19-.75.74.74,0,0,0-.37-.47c-.28-.12-.52.05-.7.52a4.94,4.94,0,0,0-.29,1.83,5.18,5.18,0,0,0,.19,1.54c.13.38.3.6.52.66s.33,0,.51-.19a1.47,1.47,0,0,0,.38-1h1.17a3.6,3.6,0,0,1-.47,1.69,1.66,1.66,0,0,1-1.45.93,1.64,1.64,0,0,1-1.5-.93,5.07,5.07,0,0,1-.66-2.82,5.12,5.12,0,0,1,.61-2.67,1.81,1.81,0,0,1,1.31-.94,1.44,1.44,0,0,1,1.46.61A4.07,4.07,0,0,1,130.49,27.4Z"/><path class="cls-35" d="M132.64,32.09V22.48h1.22v4.69l1.22-2.39h1.5L135,27.45l1.69,4.64h-1.4l-1.08-3.19-.38.7v2.49Z"/><path class="cls-35" d="M142.58,29h-3.05a3.94,3.94,0,0,0,.24,1.13.85.85,0,0,0,.47.56.46.46,0,0,0,.51-.14,1.15,1.15,0,0,0,.38-.66h1.36c-.35,1.5-1.05,2.25-2.11,2.25a1.82,1.82,0,0,1-1.6-1,5.2,5.2,0,0,1-.56-2.58,5.6,5.6,0,0,1,.52-2.57,1.92,1.92,0,0,1,1.45-1.18,1.75,1.75,0,0,1,1.69.94,5.21,5.21,0,0,1,.7,2.81Zm-3.05-1.36h1.69c0-.84-.26-1.34-.7-1.5q-.37-.13-.66.33A2.65,2.65,0,0,0,139.53,27.68Z"/><path class="cls-35" d="M145.07,25.06h.6V22.81h1.13v2.25h.8v1.4h-.8v3.66c0,.38.09.56.28.56h.56v1.41h-.79a1,1,0,0,1-.89-.38,2.59,2.59,0,0,1-.29-1.4V26.46h-.6Z"/><path class="cls-35" d="M150.64,29.65h1.18c0,.66.18,1,.56,1.13.56.15.86-.11.89-.8a1.08,1.08,0,0,0-.14-.61,1.18,1.18,0,0,0-.38-.19L152,28.9a1.64,1.64,0,0,1-.8-.56,2.34,2.34,0,0,1-.38-1.41c0-1.25.49-1.95,1.46-2.11a1.52,1.52,0,0,1,1.5.66,2.84,2.84,0,0,1,.56,1.73h-1.17c0-.56-.16-.9-.47-1a1,1,0,0,0-.42,0,.51.51,0,0,0-.33.47,1,1,0,0,0,.14.52.87.87,0,0,0,.33.33l.75.32a2.34,2.34,0,0,1,1,.66,2.58,2.58,0,0,1,.33,1.41,2.72,2.72,0,0,1-.37,1.45,1.73,1.73,0,0,1-2.91.09A3.43,3.43,0,0,1,150.64,29.65Z"/><path class="cls-35" d="M162.46,32.09V22.48h1.21v2.86a.78.78,0,0,1,.38-.38,1.47,1.47,0,0,1,.8-.14c1,.1,1.5,1.14,1.5,3.14v4.13h-1.18V28a2.38,2.38,0,0,0-.23-1.17.68.68,0,0,0-.52-.42.54.54,0,0,0-.46.33,2.4,2.4,0,0,0-.29,1.26v4.13Z"/><path class="cls-35" d="M170.52,24.5c-.44,0-.67-.27-.7-.9s.14-1,.51-1.07.72.2.75.89a1.37,1.37,0,0,1-.09.7A.61.61,0,0,1,170.52,24.5Zm-.66,7.59v-7H171v7Z"/><path class="cls-35" d="M175.07,25.06h.6V22.81h1.13v2.25h.8v1.4h-.8v3.66c0,.38.09.56.28.56h.56v1.41h-.79a1,1,0,0,1-.89-.38,2.59,2.59,0,0,1-.29-1.4V26.46h-.6Z"/><path class="cls-35" d="M186,32.09V22.48h1.46l2.15,6v-6H191v9.61h-1.32l-2.29-6.19v6.19Z"/><path class="cls-35" d="M196.58,29h-3.05a3.94,3.94,0,0,0,.24,1.13.85.85,0,0,0,.47.56.46.46,0,0,0,.51-.14,1.15,1.15,0,0,0,.38-.66h1.36c-.35,1.5-1.05,2.25-2.11,2.25a1.82,1.82,0,0,1-1.6-1,5.2,5.2,0,0,1-.56-2.58,5.6,5.6,0,0,1,.52-2.57,1.92,1.92,0,0,1,1.45-1.18,1.75,1.75,0,0,1,1.69.94,5.21,5.21,0,0,1,.7,2.81Zm-3.05-1.36h1.69c0-.84-.26-1.34-.7-1.5q-.37-.13-.66.33A2.65,2.65,0,0,0,193.53,27.68Z"/><path class="cls-35" d="M197.61,24.87h1.22l.61,3.8.56-3.8h1l.66,3.8.52-3.8h1.26l-1.17,7.22h-1.13l-.65-3.84-.61,3.84h-1.13Z"/><path class="cls-35" d="M204.55,33.35V24.87h1.22v.38c.15-.32.5-.47,1-.47a1.61,1.61,0,0,1,1.41.79,4.82,4.82,0,0,1,.61,2.44,5.67,5.67,0,0,1-.66,3.09,1.62,1.62,0,0,1-1.36.9,1.31,1.31,0,0,1-.8-.29c-.12-.12-.2-.18-.23-.18v1.82Zm1.92-3a.55.55,0,0,0,.7-.32,3.1,3.1,0,0,0,.38-1.5,4,4,0,0,0-.19-1.6c-.15-.4-.36-.64-.61-.7s-.51.11-.7.52a3.62,3.62,0,0,0-.28,1.54,4.58,4.58,0,0,0,.19,1.46A.84.84,0,0,0,206.47,30.35Z"/><path class="cls-35" d="M211.91,22.48h1.17v9.61h-1.17Z"/><path class="cls-35" d="M217.67,27.21H216.5a3.77,3.77,0,0,1,.47-1.82,1.58,1.58,0,0,1,1.41-.61,1.51,1.51,0,0,1,1.36.56,3.32,3.32,0,0,1,.47,1.92v2.95a11,11,0,0,0,.18,1.88h-1.22l-.09-.47a1.37,1.37,0,0,1-1.78.42c-.69-.28-1-.95-1-2a2.27,2.27,0,0,1,.42-1.46,2.09,2.09,0,0,1,1-.65c.22-.1.43-.17.61-.24a2.05,2.05,0,0,0,.43-.18.71.71,0,0,0,.23-.71c-.06-.34-.2-.54-.42-.61a.55.55,0,0,0-.52.1Q217.77,26.42,217.67,27.21ZM219,28.53s-.28.17-.75.42a1.33,1.33,0,0,0-.75,1.22c0,.53.18.76.56.7a1.08,1.08,0,0,0,.7-.61,1.85,1.85,0,0,0,.24-.94Z"/><path class="cls-35" d="M223.77,24.87l.7,3.42.7-3.42h1.36l-1.45,6.66a4.58,4.58,0,0,1-.42,1.26.84.84,0,0,1-.75.56h-1v-1.5h.56a1.31,1.31,0,0,0,.28-.09.73.73,0,0,0,.14-.37l-1.45-6.52Z"/><path class="cls-35" d="M232.58,29h-3.05a3.94,3.94,0,0,0,.24,1.13.85.85,0,0,0,.47.56.46.46,0,0,0,.51-.14,1.15,1.15,0,0,0,.38-.66h1.36c-.35,1.5-1.05,2.25-2.11,2.25a1.82,1.82,0,0,1-1.6-1,5.2,5.2,0,0,1-.56-2.58,5.6,5.6,0,0,1,.52-2.57,1.92,1.92,0,0,1,1.45-1.18,1.75,1.75,0,0,1,1.69.94,5.21,5.21,0,0,1,.7,2.81Zm-3.05-1.36h1.69c0-.84-.26-1.34-.7-1.5q-.37-.13-.66.33A2.65,2.65,0,0,0,229.53,27.68Z"/><path class="cls-35" d="M235.53,24.87h1.18v.56c.15-.37.59-.56,1.31-.56v1.5h-.28a.84.84,0,0,0-.71.47,2.47,2.47,0,0,0-.32,1.31v3.94h-1.18Z"/><path class="cls-35" d="M247.11,25.1h.61v-.6c0-1.35.49-2,1.45-2h.52v1.41h-.52c-.06,0-.14.07-.23.23a.88.88,0,0,0-.09.38v.6h.84v1.41h-.84v5.58h-1.13V26.51h-.61Z"/><path class="cls-35" d="M252.41,28.48a5.44,5.44,0,0,1,.42-2.25c.38-.88.89-1.34,1.55-1.41a1.76,1.76,0,0,1,1.73,1,5,5,0,0,1,.61,2.35,5.88,5.88,0,0,1-.51,2.72c-.44.87-1,1.29-1.64,1.26A1.82,1.82,0,0,1,253,31,5.46,5.46,0,0,1,252.41,28.48Zm1.26,0a5.37,5.37,0,0,0,.19,1.5c.13.44.31.69.56.75s.61-.09.8-.56a5,5,0,0,0,.24-1.36,6.06,6.06,0,0,0-.14-1.74c-.13-.5-.33-.78-.61-.84s-.61.16-.8.66A4.59,4.59,0,0,0,253.67,28.48Z"/><path class="cls-35" d="M259.53,24.87h1.18v.56c.15-.37.59-.56,1.31-.56v1.5h-.28a.84.84,0,0,0-.71.47,2.47,2.47,0,0,0-.32,1.31v3.94h-1.18Z"/><path class="cls-35" d="M270.36,25.85a4.66,4.66,0,0,1,.61-2.53,1.81,1.81,0,0,1,1.55-.93c1.06,0,1.72.78,2,2.34a4.16,4.16,0,0,1-.94,3.66l-.89,1a4,4,0,0,0-.75,1.17h2.76v1.55h-4.31a6.17,6.17,0,0,1,.42-2.16,4.94,4.94,0,0,1,.85-1.5l.94-1.12a2.83,2.83,0,0,0,.65-2.3,1.45,1.45,0,0,0-.42-.94.41.41,0,0,0-.61,0,2.37,2.37,0,0,0-.56,1.78Z"/><path class="cls-35" d="M277.25,31.06a.77.77,0,0,1,0,1.12.83.83,0,0,1-.61.28.84.84,0,0,1-.61-.28.8.8,0,0,1,0-1.12.84.84,0,0,1,.61-.28A.83.83,0,0,1,277.25,31.06Z"/><path class="cls-35" d="M282.17,29.18h1.22a2.24,2.24,0,0,0,.47,1.22c.25.28.47.35.66.19q.75-.29.84-1.5a2.21,2.21,0,0,0-.56-1.83c-.41-.37-.78-.26-1.13.33h-1.26l.51-5.11h3.38v1.59h-2.39l-.24,1.78a1.57,1.57,0,0,1,.94-.32,1.33,1.33,0,0,1,1.08.42,3.3,3.3,0,0,1,.84,1.78,5.44,5.44,0,0,1-.14,2.58,2.69,2.69,0,0,1-1,1.54,1.56,1.56,0,0,1-1.36.29,2.22,2.22,0,0,1-1.22-.94A4.38,4.38,0,0,1,282.17,29.18Z"/><path class="cls-35" d="M292.77,25h-1.22a1.68,1.68,0,0,0-.33-.84c-.12-.22-.28-.32-.47-.28a1.1,1.1,0,0,0-.89.7,3.43,3.43,0,0,0-.28,1.69,1.56,1.56,0,0,1,1-.71,1.59,1.59,0,0,1,1.31.47,3.64,3.64,0,0,1,.94,3.28c-.15,1.44-.65,2.35-1.5,2.72a1.68,1.68,0,0,1-1.54-.09,2.68,2.68,0,0,1-1.22-1.6,11.18,11.18,0,0,1-.38-3.14,8.29,8.29,0,0,1,.47-3.09c.47-1.16,1.14-1.73,2-1.73A1.64,1.64,0,0,1,292,23,3.31,3.31,0,0,1,292.77,25Zm-2.06,5.67c.43,0,.73-.36.89-1.08a2.4,2.4,0,0,0-.24-1.92c-.25-.43-.54-.56-.89-.37a2,2,0,0,0-.89,1.26,3.23,3.23,0,0,0,.33,1.46C290.13,30.46,290.39,30.68,290.71,30.68Z"/><path class="cls-35" d="M293.66,24.87h1.17v.56a.94.94,0,0,1,.38-.47,1,1,0,0,1,.56-.18,1.17,1.17,0,0,1,1.12.93,2.16,2.16,0,0,1,.52-.65,1.16,1.16,0,0,1,.84-.24c.85.19,1.27,1.05,1.27,2.58v4.69H298.3V28a3,3,0,0,0-.19-1.21q-.18-.43-.42-.33a1,1,0,0,0-.37.42,2.72,2.72,0,0,0-.19,1.12v4.13H296V28a3.78,3.78,0,0,0-.14-1.12c-.1-.31-.25-.45-.47-.42s-.24.15-.33.37a3.08,3.08,0,0,0-.19,1.17v4.13h-1.17Z"/><path class="cls-35" d="M300.22,32.09V22.48h1.17v3a1.29,1.29,0,0,1,.89-.61,1.42,1.42,0,0,1,1.18.42c.68.69,1,1.91.93,3.66a5.14,5.14,0,0,1-.61,2.44,1.37,1.37,0,0,1-1.21.79,1.3,1.3,0,0,1-1.18-.56v.47Zm1.88-1.27c.31.1.56-.09.75-.56a5,5,0,0,0,.28-1.45,6.4,6.4,0,0,0-.19-1.69c-.12-.47-.31-.73-.56-.8s-.52.08-.71.52a4.86,4.86,0,0,0-.28,1.73,5.86,5.86,0,0,0,.14,1.36C301.66,30.46,301.85,30.76,302.1,30.82Z"/><path class="cls-35" d="M307.25,31.06a.77.77,0,0,1,0,1.12.83.83,0,0,1-.61.28.84.84,0,0,1-.61-.28.8.8,0,0,1,0-1.12.84.84,0,0,1,.61-.28A.83.83,0,0,1,307.25,31.06Z"/><path class="cls-36" d="M5.71,41.75a7.41,7.41,0,0,1,.75-3.51,2.33,2.33,0,0,1,2.06-1.45,2.28,2.28,0,0,1,2.06,1.31,6.67,6.67,0,0,1,.8,3.28,7,7,0,0,1-.71,3.7,2.4,2.4,0,0,1-2.15,1.5,2.24,2.24,0,0,1-2-1.22A6.94,6.94,0,0,1,5.71,41.75Zm1.4,0a6.94,6.94,0,0,0,.33,2.35c.22.62.53,1,.94,1s.89-.22,1.17-.84A6.17,6.17,0,0,0,10,42a7.48,7.48,0,0,0-.28-2.54c-.25-.75-.58-1.17-1-1.26s-.86.23-1.18,1A6.73,6.73,0,0,0,7.11,41.75Z"/><path class="cls-36" d="M12.22,46.49V36.88h1.17v3a1.29,1.29,0,0,1,.89-.61,1.42,1.42,0,0,1,1.18.42c.68.69,1,1.91.93,3.66a5.14,5.14,0,0,1-.61,2.44,1.37,1.37,0,0,1-1.21.79A1.32,1.32,0,0,1,13.39,46v.47Zm1.88-1.27c.31.1.56-.09.75-.56a5,5,0,0,0,.28-1.45,6.4,6.4,0,0,0-.19-1.69c-.12-.47-.31-.73-.56-.8s-.52.08-.71.52A4.86,4.86,0,0,0,13.39,43a5.86,5.86,0,0,0,.14,1.36C13.66,44.86,13.85,45.16,14.1,45.22Z"/><path class="cls-36" d="M19.07,39.46h.6V37.21H20.8v2.25h.8v1.4h-.8v3.66c0,.37.09.56.28.56h.56v1.41h-.79a1,1,0,0,1-.89-.38,2.59,2.59,0,0,1-.29-1.4V40.86h-.6Z"/><path class="cls-36" d="M25.67,41.61H24.5A3.77,3.77,0,0,1,25,39.79a1.58,1.58,0,0,1,1.41-.61,1.51,1.51,0,0,1,1.36.56,3.32,3.32,0,0,1,.47,1.92v3a11,11,0,0,0,.18,1.88H27.17L27.08,46a1.37,1.37,0,0,1-1.78.42c-.69-.28-1-.95-1-2A2.27,2.27,0,0,1,24.69,43a2.09,2.09,0,0,1,1-.65,6.33,6.33,0,0,1,.61-.24,1.6,1.6,0,0,0,.43-.19.68.68,0,0,0,.23-.7c-.06-.34-.2-.55-.42-.61a.55.55,0,0,0-.52.1Q25.78,40.82,25.67,41.61ZM27,42.93s-.28.17-.75.42a1.33,1.33,0,0,0-.75,1.22c0,.53.18.76.56.7a1.08,1.08,0,0,0,.7-.61,1.85,1.85,0,0,0,.24-.94Z"/><path class="cls-36" d="M32.52,38.89c-.44,0-.67-.26-.7-.89s.14-1,.51-1.07.72.2.75.89a1.37,1.37,0,0,1-.09.7A.58.58,0,0,1,32.52,38.89Zm-.66,7.6v-7H33v7Z"/><path class="cls-36" d="M36.6,39.27h1.22v.66c0-.1.09-.22.28-.38a1.65,1.65,0,0,1,.61-.33,1.18,1.18,0,0,1,1.26.71A4,4,0,0,1,40.49,42v4.5H39.27V42.6A3.57,3.57,0,0,0,39,41.14c-.12-.31-.28-.45-.46-.42s-.36.21-.52.52a3.26,3.26,0,0,0-.23,1.36v3.89H36.6Z"/><path class="cls-36" d="M46.58,43.44h-3a3.94,3.94,0,0,0,.24,1.13.85.85,0,0,0,.47.56.48.48,0,0,0,.51-.14,1.15,1.15,0,0,0,.38-.66h1.36c-.35,1.5-1.05,2.25-2.11,2.25a1.82,1.82,0,0,1-1.6-1A5.22,5.22,0,0,1,42.22,43a5.67,5.67,0,0,1,.52-2.58,1.92,1.92,0,0,1,1.45-1.17,1.75,1.75,0,0,1,1.69.94,5.21,5.21,0,0,1,.7,2.81Zm-3-1.36h1.69c0-.84-.26-1.34-.7-1.5q-.37-.13-.66.33A2.65,2.65,0,0,0,43.53,42.08Z"/><path class="cls-36" d="M51.46,39.83V36.88h1.17v9.61H51.46V46a1.2,1.2,0,0,1-1,.56,1.55,1.55,0,0,1-1.4-.94A5.36,5.36,0,0,1,48.46,43a11.2,11.2,0,0,1,.09-1.5,3.55,3.55,0,0,1,.84-1.83,1.42,1.42,0,0,1,1.18-.42A1.32,1.32,0,0,1,51.46,39.83Zm-1,5.39c.31.1.56-.08.75-.51a3.77,3.77,0,0,0,.24-1.46,5.58,5.58,0,0,0-.14-1.64c-.13-.53-.32-.82-.57-.89s-.53.11-.75.61A4.58,4.58,0,0,0,49.72,43a4.93,4.93,0,0,0,.19,1.5C50,44.91,50.22,45.16,50.47,45.22Z"/><path class="cls-36" d="M57.36,39.5a.78.78,0,0,1,.24.57.76.76,0,0,1-.24.56.8.8,0,0,1-1.22,0,.79.79,0,0,1-.23-.56.81.81,0,0,1,.23-.57.8.8,0,0,1,1.22,0Zm0,4.69a.79.79,0,0,1,0,1.13.8.8,0,0,1-1.22,0,.81.81,0,0,1,0-1.13.8.8,0,0,1,1.22,0Z"/><path class="cls-37" d="M71.14,40H69.83c-.16-1.06-.5-1.65-1-1.78s-.94.25-1.22,1.13a7.54,7.54,0,0,0-.33,2,6.71,6.71,0,0,0,.33,2.44c.28.84.69,1.23,1.22,1.17s.87-.58,1-1.55h1.41A4,4,0,0,1,70,46.11a1.87,1.87,0,0,1-2.11.28A2.86,2.86,0,0,1,66.5,44.8a8,8,0,0,1-.56-2.58A9.58,9.58,0,0,1,66.27,39a3.19,3.19,0,0,1,1.55-2.16,1.78,1.78,0,0,1,1.59,0,2.68,2.68,0,0,1,1.26,1.36A5.94,5.94,0,0,1,71.14,40Z"/><path class="cls-37" d="M73.67,41.61H72.5A3.77,3.77,0,0,1,73,39.79a1.58,1.58,0,0,1,1.41-.61,1.51,1.51,0,0,1,1.36.56,3.32,3.32,0,0,1,.47,1.92v3a11,11,0,0,0,.18,1.88H75.17L75.08,46a1.37,1.37,0,0,1-1.78.42c-.69-.28-1-.95-1-2A2.27,2.27,0,0,1,72.69,43a2.09,2.09,0,0,1,1-.65,6.33,6.33,0,0,1,.61-.24,1.6,1.6,0,0,0,.43-.19.68.68,0,0,0,.23-.7c-.06-.34-.2-.55-.42-.61a.55.55,0,0,0-.52.1Q73.77,40.82,73.67,41.61ZM75,42.93s-.28.17-.75.42a1.33,1.33,0,0,0-.75,1.22c0,.53.18.76.56.7a1.08,1.08,0,0,0,.7-.61,1.85,1.85,0,0,0,.24-.94Z"/><path class="cls-37" d="M82.49,41.8H81.22a2.43,2.43,0,0,0-.19-.75.71.71,0,0,0-.37-.47c-.28-.12-.52.05-.7.52a4.94,4.94,0,0,0-.29,1.83,5.18,5.18,0,0,0,.19,1.54c.13.38.3.6.52.66s.33,0,.51-.19a1.49,1.49,0,0,0,.38-1h1.17A3.52,3.52,0,0,1,82,45.64a1.65,1.65,0,0,1-1.45.94,1.63,1.63,0,0,1-1.5-.94,5,5,0,0,1-.66-2.81A5.12,5.12,0,0,1,79,40.16a1.81,1.81,0,0,1,1.31-.94,1.44,1.44,0,0,1,1.46.61A4.07,4.07,0,0,1,82.49,41.8Z"/><path class="cls-37" d="M84.46,46.49V36.88h1.21v2.86a.78.78,0,0,1,.38-.38,1.47,1.47,0,0,1,.8-.14c1,.1,1.5,1.14,1.5,3.14v4.13H87.17V42.36a2.38,2.38,0,0,0-.23-1.17.68.68,0,0,0-.52-.42.54.54,0,0,0-.46.33,2.4,2.4,0,0,0-.29,1.26v4.13Z"/><path class="cls-37" d="M94.58,43.44h-3a3.94,3.94,0,0,0,.24,1.13.85.85,0,0,0,.47.56.48.48,0,0,0,.51-.14,1.15,1.15,0,0,0,.38-.66h1.36c-.35,1.5-1,2.25-2.11,2.25a1.82,1.82,0,0,1-1.6-1A5.22,5.22,0,0,1,90.22,43a5.67,5.67,0,0,1,.52-2.58,1.92,1.92,0,0,1,1.45-1.17,1.75,1.75,0,0,1,1.69.94,5.21,5.21,0,0,1,.7,2.81Zm-3-1.36h1.69c0-.84-.26-1.34-.7-1.5q-.37-.13-.66.33A2.65,2.65,0,0,0,91.53,42.08Z"/><path class="cls-37" d="M99.46,39.83V36.88h1.17v9.61H99.46V46a1.2,1.2,0,0,1-1,.56,1.55,1.55,0,0,1-1.4-.94A5.36,5.36,0,0,1,96.46,43a11.2,11.2,0,0,1,.09-1.5,3.55,3.55,0,0,1,.84-1.83,1.42,1.42,0,0,1,1.18-.42A1.32,1.32,0,0,1,99.46,39.83Zm-1,5.39c.31.1.56-.08.75-.51a3.77,3.77,0,0,0,.24-1.46,5.58,5.58,0,0,0-.14-1.64c-.13-.53-.32-.82-.57-.89s-.53.11-.75.61A4.58,4.58,0,0,0,97.72,43a4.93,4.93,0,0,0,.19,1.5C98,44.91,98.22,45.16,98.47,45.22Z"/><path class="cls-37" d="M109.77,46.49V36.88H111v9.61Z"/><path class="cls-37" d="M113.66,39.27h1.17v.56a.9.9,0,0,1,.38-.47,1,1,0,0,1,.56-.18,1.17,1.17,0,0,1,1.12.93,2,2,0,0,1,.52-.65,1.16,1.16,0,0,1,.84-.24c.85.19,1.27,1.05,1.27,2.58v4.69H118.3V42.36a3.05,3.05,0,0,0-.19-1.22c-.12-.28-.26-.39-.42-.32a1,1,0,0,0-.37.42,2.69,2.69,0,0,0-.19,1.12v4.13H116V42.36a3.73,3.73,0,0,0-.14-1.12c-.1-.31-.25-.45-.47-.42s-.24.15-.33.37a3,3,0,0,0-.19,1.17v4.13h-1.17Z"/><path class="cls-37" d="M121.67,41.61H120.5a3.77,3.77,0,0,1,.47-1.82,1.58,1.58,0,0,1,1.41-.61,1.51,1.51,0,0,1,1.36.56,3.32,3.32,0,0,1,.47,1.92v3a11,11,0,0,0,.18,1.88h-1.22l-.09-.47a1.37,1.37,0,0,1-1.78.42c-.69-.28-1-.95-1-2a2.27,2.27,0,0,1,.42-1.46,2.09,2.09,0,0,1,1-.65,6.33,6.33,0,0,1,.61-.24,1.6,1.6,0,0,0,.43-.19.68.68,0,0,0,.23-.7c-.06-.34-.2-.55-.42-.61a.55.55,0,0,0-.52.1Q121.78,40.82,121.67,41.61ZM123,42.93s-.28.17-.75.42a1.33,1.33,0,0,0-.75,1.22c0,.53.18.76.56.7a1.08,1.08,0,0,0,.7-.61,1.85,1.85,0,0,0,.24-.94Z"/><path class="cls-37" d="M129.36,39.5v-.32h1.22v6.23a2.6,2.6,0,0,1-.42,1.5,1.85,1.85,0,0,1-1.64.84c-1.13,0-1.75-.71-1.88-2.15h1.22a1.06,1.06,0,0,0,.28.65.51.51,0,0,0,.38.24.68.68,0,0,0,.56-.33,1.88,1.88,0,0,0,.28-1.08c0,.1-.17.19-.42.28a1.87,1.87,0,0,1-.84.1,1.57,1.57,0,0,1-1.18-.94,5,5,0,0,1-.46-2.3A4.51,4.51,0,0,1,127,40a1.56,1.56,0,0,1,1.36-.89A1.15,1.15,0,0,1,129.36,39.5Zm-1,4.55a.5.5,0,0,0,.65-.33,3,3,0,0,0,.33-1.31,3.12,3.12,0,0,0-.14-1.27c-.12-.43-.31-.68-.56-.75s-.52.1-.7.47a3,3,0,0,0-.29,1.36,3.68,3.68,0,0,0,.19,1.22C128,43.79,128.16,44,128.38,44.05Z"/><path class="cls-37" d="M136.58,43.44h-3.05a3.94,3.94,0,0,0,.24,1.13.85.85,0,0,0,.47.56.48.48,0,0,0,.51-.14,1.15,1.15,0,0,0,.38-.66h1.36c-.35,1.5-1.05,2.25-2.11,2.25a1.82,1.82,0,0,1-1.6-1,5.22,5.22,0,0,1-.56-2.58,5.67,5.67,0,0,1,.52-2.58,1.92,1.92,0,0,1,1.45-1.17,1.75,1.75,0,0,1,1.69.94,5.21,5.21,0,0,1,.7,2.81Zm-3.05-1.36h1.69c0-.84-.26-1.34-.7-1.5q-.37-.13-.66.33A2.65,2.65,0,0,0,133.53,42.08Z"/><path class="cls-36" d="M139.25,45.46a.77.77,0,0,1,0,1.12.83.83,0,0,1-.61.28.84.84,0,0,1-.61-.28.8.8,0,0,1,0-1.12.84.84,0,0,1,.61-.28A.83.83,0,0,1,139.25,45.46Z"/><path class="cls-38" d="M6,60.89V51.28H7.49l2.15,6v-6H11v9.61H9.64L7.35,54.7v6.19Z"/><path class="cls-38" d="M16.58,57.84h-3A3.94,3.94,0,0,0,13.77,59a.85.85,0,0,0,.47.56.48.48,0,0,0,.51-.14,1.15,1.15,0,0,0,.38-.66h1.36c-.35,1.5-1,2.25-2.11,2.25a1.82,1.82,0,0,1-1.6-1,5.22,5.22,0,0,1-.56-2.58,5.67,5.67,0,0,1,.52-2.58,1.92,1.92,0,0,1,1.45-1.17,1.75,1.75,0,0,1,1.69.94,5.21,5.21,0,0,1,.7,2.81Zm-3-1.36h1.69c0-.84-.26-1.34-.7-1.5q-.37-.13-.66.33A2.65,2.65,0,0,0,13.53,56.48Z"/><path class="cls-38" d="M17.61,53.67h1.22l.61,3.8.56-3.8h1l.66,3.8.52-3.8h1.26L22.3,60.89H21.17L20.52,57l-.61,3.85H18.78Z"/><path class="cls-38" d="M24.55,62.15V53.67h1.22V54c.15-.31.5-.46,1-.46a1.61,1.61,0,0,1,1.41.79,4.82,4.82,0,0,1,.61,2.44,5.67,5.67,0,0,1-.66,3.09,1.61,1.61,0,0,1-1.36.89,1.3,1.3,0,0,1-.8-.28c-.12-.12-.2-.18-.23-.18v1.82Zm1.92-3a.55.55,0,0,0,.7-.32,3.1,3.1,0,0,0,.38-1.5,4,4,0,0,0-.19-1.6c-.15-.4-.36-.64-.61-.7s-.51.11-.7.51a3.7,3.7,0,0,0-.28,1.55A4.47,4.47,0,0,0,26,58.54C26.08,58.89,26.25,59.09,26.47,59.15Z"/><path class="cls-38" d="M31.91,51.28h1.17v9.61H31.91Z"/><path class="cls-38" d="M37.67,56H36.5A3.77,3.77,0,0,1,37,54.19a1.58,1.58,0,0,1,1.41-.61,1.51,1.51,0,0,1,1.36.56,3.32,3.32,0,0,1,.47,1.92V59a11,11,0,0,0,.18,1.88H39.17l-.09-.47a1.37,1.37,0,0,1-1.78.42c-.69-.28-1-1-1-2a2.27,2.27,0,0,1,.42-1.46,2.09,2.09,0,0,1,1-.65,6.33,6.33,0,0,1,.61-.24,1.6,1.6,0,0,0,.43-.19.68.68,0,0,0,.23-.7c-.06-.34-.2-.55-.42-.61a.55.55,0,0,0-.52.1Q37.78,55.22,37.67,56ZM39,57.33s-.28.17-.75.42A1.33,1.33,0,0,0,37.49,59c0,.53.18.76.56.7a1.08,1.08,0,0,0,.7-.61,1.85,1.85,0,0,0,.24-.94Z"/><path class="cls-38" d="M43.77,53.67l.7,3.42.7-3.42h1.36l-1.45,6.66a4.58,4.58,0,0,1-.42,1.26.84.84,0,0,1-.75.56h-1v-1.5h.56a1.31,1.31,0,0,0,.28-.09.73.73,0,0,0,.14-.37l-1.45-6.52Z"/><path class="cls-38" d="M52.58,57.84h-3A3.94,3.94,0,0,0,49.77,59a.85.85,0,0,0,.47.56.48.48,0,0,0,.51-.14,1.15,1.15,0,0,0,.38-.66h1.36c-.35,1.5-1.05,2.25-2.11,2.25a1.82,1.82,0,0,1-1.6-1,5.22,5.22,0,0,1-.56-2.58,5.67,5.67,0,0,1,.52-2.58,1.92,1.92,0,0,1,1.45-1.17,1.75,1.75,0,0,1,1.69.94,5.21,5.21,0,0,1,.7,2.81Zm-3-1.36h1.69c0-.84-.26-1.34-.7-1.5q-.37-.13-.66.33A2.65,2.65,0,0,0,49.53,56.48Z"/><path class="cls-38" d="M55.53,53.67h1.18v.56c.15-.37.59-.56,1.31-.56v1.5h-.28a.84.84,0,0,0-.71.47A2.47,2.47,0,0,0,56.71,57v3.94H55.53Z"/><path class="cls-38" d="M61.16,50.72a.92.92,0,0,1,.94.65,1.12,1.12,0,0,1-.1,1.08l-1,1.41-.7-.47.42-.66a1,1,0,0,1-.66-1.22A1,1,0,0,1,61.16,50.72Z"/><path class="cls-38" d="M72.64,58.45h1.18c0,.66.18,1,.56,1.13.56.15.86-.11.89-.8a1.05,1.05,0,0,0-.14-.61,1,1,0,0,0-.38-.19L74,57.7a1.64,1.64,0,0,1-.8-.56,2.36,2.36,0,0,1-.38-1.41c0-1.25.49-1.95,1.46-2.11a1.52,1.52,0,0,1,1.5.66A2.84,2.84,0,0,1,76.3,56H75.13c0-.56-.16-.9-.47-1a1,1,0,0,0-.42,0,.5.5,0,0,0-.33.47,1,1,0,0,0,.14.52.78.78,0,0,0,.33.32l.75.33a2.34,2.34,0,0,1,1,.66,2.58,2.58,0,0,1,.33,1.41,2.72,2.72,0,0,1-.37,1.45,1.73,1.73,0,0,1-2.91.09A3.43,3.43,0,0,1,72.64,58.45Z"/><path class="cls-38" d="M83.61,53.67h1.22l.61,3.8.56-3.8h1l.66,3.8.52-3.8h1.26L88.3,60.89H87.17L86.52,57l-.61,3.85H84.78Z"/><path class="cls-38" d="M94.58,57.84h-3A3.94,3.94,0,0,0,91.77,59a.85.85,0,0,0,.47.56.48.48,0,0,0,.51-.14,1.15,1.15,0,0,0,.38-.66h1.36c-.35,1.5-1,2.25-2.11,2.25a1.82,1.82,0,0,1-1.6-1,5.22,5.22,0,0,1-.56-2.58,5.67,5.67,0,0,1,.52-2.58,1.92,1.92,0,0,1,1.45-1.17,1.75,1.75,0,0,1,1.69.94,5.21,5.21,0,0,1,.7,2.81Zm-3-1.36h1.69c0-.84-.26-1.34-.7-1.5q-.37-.13-.66.33A2.65,2.65,0,0,0,91.53,56.48Z"/><path class="cls-38" d="M96.22,60.89V51.28h1.17v3a1.29,1.29,0,0,1,.89-.61,1.42,1.42,0,0,1,1.18.42c.68.69,1,1.91.93,3.66a5.14,5.14,0,0,1-.61,2.44,1.37,1.37,0,0,1-1.21.79,1.32,1.32,0,0,1-1.18-.56v.47Zm1.88-1.27c.31.1.56-.09.75-.56a5,5,0,0,0,.28-1.45,6.4,6.4,0,0,0-.19-1.69c-.12-.47-.31-.73-.56-.8s-.52.08-.71.52a4.86,4.86,0,0,0-.28,1.73,5.86,5.86,0,0,0,.14,1.36C97.66,59.26,97.85,59.56,98.1,59.62Z"/><path class="cls-38" d="M101.94,55.54h5.3v1.32h-5.3Z"/><path class="cls-38" d="M112.58,57.84h-3a3.94,3.94,0,0,0,.24,1.13.85.85,0,0,0,.47.56.48.48,0,0,0,.51-.14,1.15,1.15,0,0,0,.38-.66h1.36c-.35,1.5-1,2.25-2.11,2.25a1.82,1.82,0,0,1-1.6-1,5.22,5.22,0,0,1-.56-2.58,5.67,5.67,0,0,1,.52-2.58,1.92,1.92,0,0,1,1.45-1.17,1.75,1.75,0,0,1,1.69.94,5.21,5.21,0,0,1,.7,2.81Zm-3-1.36h1.69c0-.84-.26-1.34-.7-1.5q-.37-.13-.66.33A2.65,2.65,0,0,0,109.53,56.48Z"/><path class="cls-38" d="M114.27,60.89l1.5-3.75-1.41-3.47h1.46l.6,1.59.61-1.59h1.46l-1.36,3.47,1.5,3.75h-1.41l-.8-1.92-.75,1.92Z"/><path class="cls-38" d="M120.55,62.15V53.67h1.22V54c.15-.31.5-.46,1-.46a1.61,1.61,0,0,1,1.41.79,4.82,4.82,0,0,1,.61,2.44,5.67,5.67,0,0,1-.66,3.09,1.61,1.61,0,0,1-1.36.89,1.3,1.3,0,0,1-.8-.28c-.12-.12-.2-.18-.23-.18v1.82Zm1.92-3a.55.55,0,0,0,.7-.32,3.1,3.1,0,0,0,.38-1.5,4,4,0,0,0-.19-1.6c-.15-.4-.36-.64-.61-.7s-.51.11-.7.51a3.7,3.7,0,0,0-.28,1.55,4.47,4.47,0,0,0,.19,1.45C122.08,58.89,122.25,59.09,122.47,59.15Z"/><path class="cls-38" d="M127.91,51.28h1.17v9.61h-1.17Z"/><path class="cls-38" d="M132.41,57.28a5.44,5.44,0,0,1,.42-2.25c.38-.88.89-1.34,1.55-1.41a1.76,1.76,0,0,1,1.73,1,5,5,0,0,1,.61,2.35,5.88,5.88,0,0,1-.51,2.72c-.44.87-1,1.29-1.64,1.26a1.82,1.82,0,0,1-1.6-1.17A5.46,5.46,0,0,1,132.41,57.28Zm1.26,0a5.37,5.37,0,0,0,.19,1.5c.13.44.31.69.56.75s.61-.09.8-.56a5,5,0,0,0,.24-1.36,6.06,6.06,0,0,0-.14-1.74c-.13-.5-.33-.78-.61-.84s-.61.16-.8.66A4.59,4.59,0,0,0,133.67,57.28Z"/><path class="cls-38" d="M139.53,53.67h1.18v.56c.15-.37.59-.56,1.31-.56v1.5h-.28a.84.84,0,0,0-.71.47,2.47,2.47,0,0,0-.32,1.31v3.94h-1.18Z"/><path class="cls-38" d="M145.67,56H144.5a3.77,3.77,0,0,1,.47-1.82,1.58,1.58,0,0,1,1.41-.61,1.51,1.51,0,0,1,1.36.56,3.32,3.32,0,0,1,.47,1.92V59a11,11,0,0,0,.18,1.88h-1.22l-.09-.47a1.37,1.37,0,0,1-1.78.42c-.69-.28-1-1-1-2a2.27,2.27,0,0,1,.42-1.46,2.09,2.09,0,0,1,1-.65,6.33,6.33,0,0,1,.61-.24,1.6,1.6,0,0,0,.43-.19.68.68,0,0,0,.23-.7c-.06-.34-.2-.55-.42-.61a.55.55,0,0,0-.52.1Q145.77,55.22,145.67,56ZM147,57.33s-.28.17-.75.42a1.33,1.33,0,0,0-.75,1.22c0,.53.18.76.56.7a1.08,1.08,0,0,0,.7-.61,1.85,1.85,0,0,0,.24-.94Z"/><path class="cls-38" d="M151.07,53.86h.6V51.61h1.13v2.25h.8v1.4h-.8v3.66c0,.37.09.56.28.56h.56v1.41h-.79a1,1,0,0,1-.89-.38,2.59,2.59,0,0,1-.29-1.4V55.26h-.6Z"/><path class="cls-38" d="M158.52,53.29c-.44,0-.67-.26-.7-.89s.14-1,.51-1.07.72.2.75.89a1.37,1.37,0,0,1-.09.7A.58.58,0,0,1,158.52,53.29Zm-.66,7.6v-7H159v7Z"/><path class="cls-38" d="M162.41,57.28a5.44,5.44,0,0,1,.42-2.25c.38-.88.89-1.34,1.55-1.41a1.76,1.76,0,0,1,1.73,1,5,5,0,0,1,.61,2.35,5.88,5.88,0,0,1-.51,2.72c-.44.87-1,1.29-1.64,1.26a1.82,1.82,0,0,1-1.6-1.17A5.46,5.46,0,0,1,162.41,57.28Zm1.26,0a5.37,5.37,0,0,0,.19,1.5c.13.44.31.69.56.75s.61-.09.8-.56a5,5,0,0,0,.24-1.36,6.06,6.06,0,0,0-.14-1.74c-.13-.5-.33-.78-.61-.84s-.61.16-.8.66A4.59,4.59,0,0,0,163.67,57.28Z"/><path class="cls-38" d="M168.6,53.67h1.22v.66c0-.1.09-.22.28-.38a1.65,1.65,0,0,1,.61-.33,1.18,1.18,0,0,1,1.26.71,4,4,0,0,1,.52,2.06v4.5h-1.22V57a3.57,3.57,0,0,0-.24-1.46c-.12-.31-.28-.45-.46-.42s-.36.21-.52.52a3.26,3.26,0,0,0-.23,1.36v3.89H168.6Z"/><path class="cls-38" d="M180.64,58.45h1.18c0,.66.18,1,.56,1.13.56.15.86-.11.89-.8a1.05,1.05,0,0,0-.14-.61,1,1,0,0,0-.38-.19L182,57.7a1.64,1.64,0,0,1-.8-.56,2.36,2.36,0,0,1-.38-1.41c0-1.25.49-1.95,1.46-2.11a1.52,1.52,0,0,1,1.5.66A2.84,2.84,0,0,1,184.3,56h-1.17c0-.56-.16-.9-.47-1a1,1,0,0,0-.42,0,.5.5,0,0,0-.33.47,1,1,0,0,0,.14.52.78.78,0,0,0,.33.32l.75.33a2.34,2.34,0,0,1,1,.66,2.58,2.58,0,0,1,.33,1.41,2.72,2.72,0,0,1-.37,1.45,1.73,1.73,0,0,1-2.91.09A3.43,3.43,0,0,1,180.64,58.45Z"/><path class="cls-38" d="M186.64,60.89V51.28h1.22V56l1.22-2.39h1.5L189,56.25l1.69,4.64h-1.4l-1.08-3.19-.38.7v2.49Z"/><path class="cls-38" d="M194.52,53.29c-.44,0-.67-.26-.7-.89s.14-1,.51-1.07.72.2.75.89a1.37,1.37,0,0,1-.09.7A.58.58,0,0,1,194.52,53.29Zm-.66,7.6v-7H195v7Z"/><path class="cls-38" d="M199.91,51.28h1.17v9.61h-1.17Z"/><path class="cls-38" d="M205.91,51.28h1.17v9.61h-1.17Z"/><path class="cls-38" d="M217.53,53.67h1.18v.56c.15-.37.59-.56,1.31-.56v1.5h-.28a.84.84,0,0,0-.71.47,2.47,2.47,0,0,0-.32,1.31v3.94h-1.18Z"/><path class="cls-38" d="M224.52,53.29c-.44,0-.67-.26-.7-.89s.14-1,.51-1.07.72.2.75.89a1.37,1.37,0,0,1-.09.7A.58.58,0,0,1,224.52,53.29Zm-.66,7.6v-7H225v7Z"/><path class="cls-38" d="M228.64,58.45h1.18c0,.66.18,1,.56,1.13.56.15.86-.11.89-.8a1.05,1.05,0,0,0-.14-.61,1,1,0,0,0-.38-.19L230,57.7a1.64,1.64,0,0,1-.8-.56,2.36,2.36,0,0,1-.38-1.41c0-1.25.49-1.95,1.46-2.11a1.52,1.52,0,0,1,1.5.66A2.84,2.84,0,0,1,232.3,56h-1.17c0-.56-.16-.9-.47-1a1,1,0,0,0-.42,0,.5.5,0,0,0-.33.47,1,1,0,0,0,.14.52.78.78,0,0,0,.33.32l.75.33a2.34,2.34,0,0,1,1,.66,2.58,2.58,0,0,1,.33,1.41,2.72,2.72,0,0,1-.37,1.45,1.73,1.73,0,0,1-2.91.09A3.43,3.43,0,0,1,228.64,58.45Z"/><path class="cls-38" d="M238.58,57.84h-3.05a3.94,3.94,0,0,0,.24,1.13.85.85,0,0,0,.47.56.48.48,0,0,0,.51-.14,1.15,1.15,0,0,0,.38-.66h1.36c-.35,1.5-1.05,2.25-2.11,2.25a1.82,1.82,0,0,1-1.6-1,5.22,5.22,0,0,1-.56-2.58,5.67,5.67,0,0,1,.52-2.58,1.92,1.92,0,0,1,1.45-1.17,1.75,1.75,0,0,1,1.69.94,5.21,5.21,0,0,1,.7,2.81Zm-3.05-1.36h1.69c0-.84-.26-1.34-.7-1.5q-.37-.13-.66.33A2.65,2.65,0,0,0,235.53,56.48Z"/><path class="cls-38" d="M240.64,58.45h1.18c0,.66.18,1,.56,1.13.56.15.86-.11.89-.8a1.05,1.05,0,0,0-.14-.61,1,1,0,0,0-.38-.19L242,57.7a1.64,1.64,0,0,1-.8-.56,2.36,2.36,0,0,1-.38-1.41c0-1.25.49-1.95,1.46-2.11a1.52,1.52,0,0,1,1.5.66A2.84,2.84,0,0,1,244.3,56h-1.17c0-.56-.16-.9-.47-1a1,1,0,0,0-.42,0,.5.5,0,0,0-.33.47,1,1,0,0,0,.14.52.78.78,0,0,0,.33.32l.75.33a2.34,2.34,0,0,1,1,.66,2.58,2.58,0,0,1,.33,1.41,2.72,2.72,0,0,1-.37,1.45,1.73,1.73,0,0,1-2.91.09A3.43,3.43,0,0,1,240.64,58.45Z"/><path class="cls-38" d="M252.08,56.15a8.49,8.49,0,0,1,.75-3.61q.75-1.35,1.74-1.35a1.92,1.92,0,0,1,1.68,1.17,7.53,7.53,0,0,1,.75,3.42,8.4,8.4,0,0,1-.65,3.8c-.47.93-1.07,1.4-1.78,1.4a2,2,0,0,1-1.74-1.31A8,8,0,0,1,252.08,56.15Zm2.39,3.33c.41.06.72-.22.94-.84a7.17,7.17,0,0,0,.33-2.11A9.13,9.13,0,0,0,255.5,54a2.7,2.7,0,0,0-.37-.94.76.76,0,0,0-.56-.37.67.67,0,0,0-.52.28,2.79,2.79,0,0,0-.33.8,8.53,8.53,0,0,0-.28,2.43,7.76,7.76,0,0,0,.28,2.25Q254,59.39,254.47,59.48Z"/><path class="cls-38" d="M259.25,59.86a.77.77,0,0,1,0,1.12.83.83,0,0,1-.61.28A.84.84,0,0,1,258,61a.8.8,0,0,1,0-1.12.84.84,0,0,1,.61-.28A.83.83,0,0,1,259.25,59.86Z"/><path class="cls-38" d="M264.69,54.09V52.92a1.94,1.94,0,0,0,1-.38,2.09,2.09,0,0,0,.52-1.26h1.08v9.61H266.1v-6.8Z"/><path class="cls-38" d="M276.55,62.15V53.67h1.22V54c.15-.31.5-.46,1-.46a1.61,1.61,0,0,1,1.41.79,4.82,4.82,0,0,1,.61,2.44,5.67,5.67,0,0,1-.66,3.09,1.61,1.61,0,0,1-1.36.89,1.3,1.3,0,0,1-.8-.28c-.12-.12-.2-.18-.23-.18v1.82Zm1.92-3a.55.55,0,0,0,.7-.32,3.1,3.1,0,0,0,.38-1.5,4,4,0,0,0-.19-1.6c-.15-.4-.36-.64-.61-.7s-.51.11-.7.51a3.7,3.7,0,0,0-.28,1.55,4.47,4.47,0,0,0,.19,1.45C278.08,58.89,278.25,59.09,278.47,59.15Z"/><path class="cls-38" d="M282.41,57.28a5.44,5.44,0,0,1,.42-2.25c.38-.88.89-1.34,1.55-1.41a1.76,1.76,0,0,1,1.73,1,5,5,0,0,1,.61,2.35,5.88,5.88,0,0,1-.51,2.72c-.44.87-1,1.29-1.64,1.26a1.82,1.82,0,0,1-1.6-1.17A5.46,5.46,0,0,1,282.41,57.28Zm1.26,0a5.37,5.37,0,0,0,.19,1.5c.13.44.31.69.56.75s.61-.09.8-.56a5,5,0,0,0,.24-1.36,6.06,6.06,0,0,0-.14-1.74c-.13-.5-.33-.78-.61-.84s-.61.16-.8.66A4.59,4.59,0,0,0,283.67,57.28Z"/><path class="cls-38" d="M290.52,53.29c-.44,0-.67-.26-.7-.89s.14-1,.51-1.07.72.2.75.89a1.37,1.37,0,0,1-.09.7A.58.58,0,0,1,290.52,53.29Zm-.66,7.6v-7H291v7Z"/><path class="cls-38" d="M294.6,53.67h1.22v.66c0-.1.09-.22.28-.38a1.65,1.65,0,0,1,.61-.33,1.18,1.18,0,0,1,1.26.71,4,4,0,0,1,.52,2.06v4.5h-1.22V57a3.57,3.57,0,0,0-.24-1.46c-.12-.31-.28-.45-.46-.42s-.36.21-.52.52a3.26,3.26,0,0,0-.23,1.36v3.89H294.6Z"/><path class="cls-38" d="M301.07,53.86h.6V51.61h1.13v2.25h.8v1.4h-.8v3.66c0,.37.09.56.28.56h.56v1.41h-.79a1,1,0,0,1-.89-.38,2.59,2.59,0,0,1-.29-1.4V55.26h-.6Z"/><path class="cls-38" d="M306.64,58.45h1.18c0,.66.18,1,.56,1.13.56.15.86-.11.89-.8a1.05,1.05,0,0,0-.14-.61,1,1,0,0,0-.38-.19L308,57.7a1.64,1.64,0,0,1-.8-.56,2.36,2.36,0,0,1-.38-1.41c0-1.25.49-1.95,1.46-2.11a1.52,1.52,0,0,1,1.5.66A2.84,2.84,0,0,1,310.3,56h-1.17c0-.56-.16-.9-.47-1a1,1,0,0,0-.42,0,.5.5,0,0,0-.33.47,1,1,0,0,0,.14.52.78.78,0,0,0,.33.32l.75.33a2.34,2.34,0,0,1,1,.66,2.58,2.58,0,0,1,.33,1.41,2.72,2.72,0,0,1-.37,1.45,1.73,1.73,0,0,1-2.91.09A3.43,3.43,0,0,1,306.64,58.45Z"/><path class="cls-38" d="M313.25,59.86a.77.77,0,0,1,0,1.12.83.83,0,0,1-.61.28A.84.84,0,0,1,312,61a.8.8,0,0,1,0-1.12.84.84,0,0,1,.61-.28A.83.83,0,0,1,313.25,59.86Z"/><path class="cls-39" d="M5.85,75.29l2-9.61h1.5l1.92,9.61H9.78l-.32-2.06H7.67L7.3,75.29ZM8,71.77H9.17l-.6-3.47Z"/><path class="cls-39" d="M12.6,68.07h1.22v.66c0-.1.09-.22.28-.38a1.65,1.65,0,0,1,.61-.33,1.18,1.18,0,0,1,1.26.71,4,4,0,0,1,.52,2.06v4.5H15.27V71.4A3.57,3.57,0,0,0,15,69.94c-.12-.31-.28-.45-.46-.42s-.36.21-.52.52a3.26,3.26,0,0,0-.23,1.36v3.89H12.6Z"/><path class="cls-39" d="M18.41,71.68a5.44,5.44,0,0,1,.42-2.25c.38-.88.89-1.34,1.55-1.41a1.76,1.76,0,0,1,1.73,1,5,5,0,0,1,.61,2.35,5.88,5.88,0,0,1-.51,2.72c-.44.87-1,1.29-1.64,1.26A1.82,1.82,0,0,1,19,74.21,5.46,5.46,0,0,1,18.41,71.68Zm1.26,0a5.37,5.37,0,0,0,.19,1.5c.13.44.31.69.56.75s.61-.09.8-.56A5,5,0,0,0,21.46,72a6.06,6.06,0,0,0-.14-1.74c-.13-.5-.33-.78-.61-.84s-.61.16-.8.66A4.59,4.59,0,0,0,19.67,71.68Z"/><path class="cls-39" d="M25.07,68.26h.6V66H26.8v2.25h.8v1.4h-.8v3.66c0,.37.09.56.28.56h.56v1.41h-.79a1,1,0,0,1-.89-.38,2.59,2.59,0,0,1-.29-1.4V69.66h-.6Z"/><path class="cls-39" d="M30.46,75.29V65.68h1.21v2.86a.78.78,0,0,1,.38-.38,1.47,1.47,0,0,1,.8-.14c1,.1,1.5,1.14,1.5,3.14v4.13H33.17V71.16A2.38,2.38,0,0,0,32.94,70a.68.68,0,0,0-.52-.42.54.54,0,0,0-.46.33,2.4,2.4,0,0,0-.29,1.26v4.13Z"/><path class="cls-39" d="M40.58,72.24h-3a3.94,3.94,0,0,0,.24,1.13.85.85,0,0,0,.47.56.48.48,0,0,0,.51-.14,1.15,1.15,0,0,0,.38-.66h1.36c-.35,1.5-1.05,2.25-2.11,2.25a1.82,1.82,0,0,1-1.6-1,5.22,5.22,0,0,1-.56-2.58,5.67,5.67,0,0,1,.52-2.58A1.92,1.92,0,0,1,38.19,68a1.75,1.75,0,0,1,1.69.94,5.21,5.21,0,0,1,.7,2.81Zm-3-1.36h1.69c0-.84-.26-1.34-.7-1.5q-.37-.13-.66.33A2.65,2.65,0,0,0,37.53,70.88Z"/><path class="cls-39" d="M43.53,68.07h1.18v.56c.15-.37.59-.56,1.31-.56v1.5h-.28A.84.84,0,0,0,45,70a2.47,2.47,0,0,0-.32,1.31v3.94H43.53Z"/><path class="cls-39" d="M54.64,68.07h1.22v4.27a3,3,0,0,0,.19,1.21c.12.29.28.39.47.33s.33-.14.42-.42a2.72,2.72,0,0,0,.19-1.12V68.07h1.22v7.22H57.13v-.42q-.2.51-1,.51a1.25,1.25,0,0,1-1.07-.61A2.93,2.93,0,0,1,54.64,73Z"/><path class="cls-39" d="M60.64,72.85h1.18c0,.66.18,1,.56,1.13.56.15.86-.11.89-.8a1.05,1.05,0,0,0-.14-.61,1,1,0,0,0-.38-.19L62,72.1a1.64,1.64,0,0,1-.8-.56,2.36,2.36,0,0,1-.38-1.41c0-1.25.49-1.95,1.46-2.11a1.52,1.52,0,0,1,1.5.66,2.84,2.84,0,0,1,.56,1.73H63.13c0-.56-.16-.9-.47-1a1,1,0,0,0-.42,0,.5.5,0,0,0-.33.47,1,1,0,0,0,.14.52.78.78,0,0,0,.33.32l.75.33a2.34,2.34,0,0,1,1,.66,2.58,2.58,0,0,1,.33,1.41,2.72,2.72,0,0,1-.37,1.45,1.73,1.73,0,0,1-2.91.09A3.43,3.43,0,0,1,60.64,72.85Z"/><path class="cls-39" d="M70.58,72.24h-3a3.94,3.94,0,0,0,.24,1.13.85.85,0,0,0,.47.56.48.48,0,0,0,.51-.14,1.15,1.15,0,0,0,.38-.66h1.36c-.35,1.5-1,2.25-2.11,2.25a1.82,1.82,0,0,1-1.6-1,5.22,5.22,0,0,1-.56-2.58,5.67,5.67,0,0,1,.52-2.58A1.92,1.92,0,0,1,68.19,68a1.75,1.75,0,0,1,1.69.94,5.21,5.21,0,0,1,.7,2.81Zm-3-1.36h1.69c0-.84-.26-1.34-.7-1.5q-.37-.13-.66.33A2.65,2.65,0,0,0,67.53,70.88Z"/><path class="cls-39" d="M73.53,68.07h1.18v.56c.15-.37.59-.56,1.31-.56v1.5h-.28A.84.84,0,0,0,75,70a2.47,2.47,0,0,0-.32,1.31v3.94H73.53Z"/><path class="cls-39" d="M85.67,70.41H84.5A3.77,3.77,0,0,1,85,68.59,1.58,1.58,0,0,1,86.38,68a1.51,1.51,0,0,1,1.36.56,3.32,3.32,0,0,1,.47,1.92v3a11,11,0,0,0,.18,1.88H87.17l-.09-.47a1.37,1.37,0,0,1-1.78.42c-.69-.28-1-.95-1-2a2.27,2.27,0,0,1,.42-1.46,2.09,2.09,0,0,1,1-.65,6.33,6.33,0,0,1,.61-.24,1.6,1.6,0,0,0,.43-.19.68.68,0,0,0,.23-.7c-.06-.34-.2-.55-.42-.61a.55.55,0,0,0-.52.1Q85.78,69.61,85.67,70.41ZM87,71.73s-.28.17-.75.42a1.33,1.33,0,0,0-.75,1.22c0,.53.18.76.56.7a1.08,1.08,0,0,0,.7-.61,1.85,1.85,0,0,0,.24-.94Z"/><path class="cls-39" d="M91.07,68.26h.6V66H92.8v2.25h.8v1.4h-.8v3.66c0,.37.09.56.28.56h.56v1.41h-.79a1,1,0,0,1-.89-.38,2.59,2.59,0,0,1-.29-1.4V69.66h-.6Z"/><path class="cls-39" d="M97.07,68.26h.6V66H98.8v2.25h.8v1.4h-.8v3.66c0,.37.09.56.28.56h.56v1.41h-.79a1,1,0,0,1-.89-.38,2.59,2.59,0,0,1-.29-1.4V69.66h-.6Z"/><path class="cls-39" d="M106.58,72.24h-3a3.94,3.94,0,0,0,.24,1.13.85.85,0,0,0,.47.56.48.48,0,0,0,.51-.14,1.15,1.15,0,0,0,.38-.66h1.36c-.35,1.5-1,2.25-2.11,2.25a1.82,1.82,0,0,1-1.6-1,5.22,5.22,0,0,1-.56-2.58,5.67,5.67,0,0,1,.52-2.58A1.92,1.92,0,0,1,104.19,68a1.75,1.75,0,0,1,1.69.94,5.21,5.21,0,0,1,.7,2.81Zm-3-1.36h1.69c0-.84-.26-1.34-.7-1.5q-.37-.13-.66.33A2.65,2.65,0,0,0,103.53,70.88Z"/><path class="cls-39" d="M107.66,68.07h1.17v.56a.9.9,0,0,1,.38-.47,1,1,0,0,1,.56-.18,1.17,1.17,0,0,1,1.12.93,2,2,0,0,1,.52-.65,1.16,1.16,0,0,1,.84-.24c.85.19,1.27,1,1.27,2.58v4.69H112.3V71.16a3.05,3.05,0,0,0-.19-1.22c-.12-.28-.26-.39-.42-.32a1,1,0,0,0-.37.42,2.69,2.69,0,0,0-.19,1.12v4.13H110V71.16a3.73,3.73,0,0,0-.14-1.12c-.1-.31-.25-.45-.47-.42s-.24.15-.33.37a3,3,0,0,0-.19,1.17v4.13h-1.17Z"/><path class="cls-39" d="M114.55,76.55V68.07h1.22v.37c.15-.31.5-.46,1-.46a1.61,1.61,0,0,1,1.41.79,4.82,4.82,0,0,1,.61,2.44,5.67,5.67,0,0,1-.66,3.09,1.61,1.61,0,0,1-1.36.89,1.3,1.3,0,0,1-.8-.28c-.12-.12-.2-.18-.23-.18v1.82Zm1.92-3a.55.55,0,0,0,.7-.32,3.1,3.1,0,0,0,.38-1.5,4,4,0,0,0-.19-1.6c-.15-.4-.36-.64-.61-.7s-.51.11-.7.51a3.7,3.7,0,0,0-.28,1.55,4.47,4.47,0,0,0,.19,1.45C116.08,73.29,116.25,73.49,116.47,73.55Z"/><path class="cls-39" d="M121.07,68.26h.6V66h1.13v2.25h.8v1.4h-.8v3.66c0,.37.09.56.28.56h.56v1.41h-.79a1,1,0,0,1-.89-.38,2.59,2.59,0,0,1-.29-1.4V69.66h-.6Z"/><path class="cls-39" d="M130.58,72.24h-3.05a3.94,3.94,0,0,0,.24,1.13.85.85,0,0,0,.47.56.48.48,0,0,0,.51-.14,1.15,1.15,0,0,0,.38-.66h1.36c-.35,1.5-1.05,2.25-2.11,2.25a1.82,1.82,0,0,1-1.6-1,5.22,5.22,0,0,1-.56-2.58,5.67,5.67,0,0,1,.52-2.58A1.92,1.92,0,0,1,128.19,68a1.75,1.75,0,0,1,1.69.94,5.21,5.21,0,0,1,.7,2.81Zm-3.05-1.36h1.69c0-.84-.26-1.34-.7-1.5q-.37-.13-.66.33A2.65,2.65,0,0,0,127.53,70.88Z"/><path class="cls-39" d="M135.46,68.63V65.68h1.17v9.61h-1.17v-.47a1.2,1.2,0,0,1-1,.56,1.55,1.55,0,0,1-1.4-.94,5.36,5.36,0,0,1-.56-2.62,11.2,11.2,0,0,1,.09-1.5,3.55,3.55,0,0,1,.84-1.83,1.42,1.42,0,0,1,1.18-.42A1.32,1.32,0,0,1,135.46,68.63Zm-1,5.39c.31.1.56-.08.75-.51a3.77,3.77,0,0,0,.24-1.46,5.58,5.58,0,0,0-.14-1.64c-.13-.53-.32-.82-.57-.89s-.53.11-.75.61a4.58,4.58,0,0,0-.28,1.64,4.93,4.93,0,0,0,.19,1.5C134,73.71,134.22,74,134.47,74Z"/><path class="cls-39" d="M145.07,68.26h.6V66h1.13v2.25h.8v1.4h-.8v3.66c0,.37.09.56.28.56h.56v1.41h-.79a1,1,0,0,1-.89-.38,2.59,2.59,0,0,1-.29-1.4V69.66h-.6Z"/><path class="cls-39" d="M150.41,71.68a5.44,5.44,0,0,1,.42-2.25c.38-.88.89-1.34,1.55-1.41a1.76,1.76,0,0,1,1.73,1,5,5,0,0,1,.61,2.35,5.88,5.88,0,0,1-.51,2.72c-.44.87-1,1.29-1.64,1.26a1.82,1.82,0,0,1-1.6-1.17A5.46,5.46,0,0,1,150.41,71.68Zm1.26,0a5.37,5.37,0,0,0,.19,1.5c.13.44.31.69.56.75s.61-.09.8-.56a5,5,0,0,0,.24-1.36,6.06,6.06,0,0,0-.14-1.74c-.13-.5-.33-.78-.61-.84s-.61.16-.8.66A4.59,4.59,0,0,0,151.67,71.68Z"/><path class="cls-39" d="M162.64,72.85h1.18c0,.66.18,1,.56,1.13.56.15.86-.11.89-.8a1.05,1.05,0,0,0-.14-.61,1,1,0,0,0-.38-.19L164,72.1a1.64,1.64,0,0,1-.8-.56,2.36,2.36,0,0,1-.38-1.41c0-1.25.49-1.95,1.46-2.11a1.52,1.52,0,0,1,1.5.66,2.84,2.84,0,0,1,.56,1.73h-1.17c0-.56-.16-.9-.47-1a1,1,0,0,0-.42,0,.5.5,0,0,0-.33.47,1,1,0,0,0,.14.52.78.78,0,0,0,.33.32l.75.33a2.34,2.34,0,0,1,1,.66,2.58,2.58,0,0,1,.33,1.41,2.72,2.72,0,0,1-.37,1.45,1.73,1.73,0,0,1-2.91.09A3.43,3.43,0,0,1,162.64,72.85Z"/><path class="cls-39" d="M168.46,75.29V65.68h1.21v2.86a.78.78,0,0,1,.38-.38,1.47,1.47,0,0,1,.8-.14c1,.1,1.5,1.14,1.5,3.14v4.13h-1.18V71.16a2.38,2.38,0,0,0-.23-1.17.68.68,0,0,0-.52-.42.54.54,0,0,0-.46.33,2.4,2.4,0,0,0-.29,1.26v4.13Z"/><path class="cls-39" d="M174.41,71.68a5.44,5.44,0,0,1,.42-2.25c.38-.88.89-1.34,1.55-1.41a1.76,1.76,0,0,1,1.73,1,5,5,0,0,1,.61,2.35,5.88,5.88,0,0,1-.51,2.72c-.44.87-1,1.29-1.64,1.26a1.82,1.82,0,0,1-1.6-1.17A5.46,5.46,0,0,1,174.41,71.68Zm1.26,0a5.37,5.37,0,0,0,.19,1.5c.13.44.31.69.56.75s.61-.09.8-.56a5,5,0,0,0,.24-1.36,6.06,6.06,0,0,0-.14-1.74c-.13-.5-.33-.78-.61-.84s-.61.16-.8.66A4.59,4.59,0,0,0,175.67,71.68Z"/><path class="cls-39" d="M180.64,68.07h1.22v4.27a3,3,0,0,0,.19,1.21c.12.29.28.39.47.33s.33-.14.42-.42a2.72,2.72,0,0,0,.19-1.12V68.07h1.22v7.22h-1.22v-.42q-.19.51-1,.51a1.25,1.25,0,0,1-1.07-.61,2.93,2.93,0,0,1-.43-1.73Z"/><path class="cls-39" d="M187.07,68.26h.6V66h1.13v2.25h.8v1.4h-.8v3.66c0,.37.09.56.28.56h.56v1.41h-.79a1,1,0,0,1-.89-.38,2.59,2.59,0,0,1-.29-1.4V69.66h-.6Z"/><path class="cls-39" d="M199.07,68.26h.6V66h1.13v2.25h.8v1.4h-.8v3.66c0,.37.09.56.28.56h.56v1.41h-.79a1,1,0,0,1-.89-.38,2.59,2.59,0,0,1-.29-1.4V69.66h-.6Z"/><path class="cls-39" d="M204.41,71.68a5.44,5.44,0,0,1,.42-2.25c.38-.88.89-1.34,1.55-1.41a1.76,1.76,0,0,1,1.73,1,5,5,0,0,1,.61,2.35,5.88,5.88,0,0,1-.51,2.72c-.44.87-1,1.29-1.64,1.26a1.82,1.82,0,0,1-1.6-1.17A5.46,5.46,0,0,1,204.41,71.68Zm1.26,0a5.37,5.37,0,0,0,.19,1.5c.13.44.31.69.56.75s.61-.09.8-.56a5,5,0,0,0,.24-1.36,6.06,6.06,0,0,0-.14-1.74c-.13-.5-.33-.78-.61-.84s-.61.16-.8.66A4.59,4.59,0,0,0,205.67,71.68Z"/><path class="cls-39" d="M217.77,68.07l.7,3.42.7-3.42h1.36l-1.45,6.66a4.58,4.58,0,0,1-.42,1.26.84.84,0,0,1-.75.56h-1v-1.5h.56a1.31,1.31,0,0,0,.28-.09.73.73,0,0,0,.14-.37l-1.45-6.52Z"/><path class="cls-39" d="M222.41,71.68a5.44,5.44,0,0,1,.42-2.25c.38-.88.89-1.34,1.55-1.41a1.76,1.76,0,0,1,1.73,1,5,5,0,0,1,.61,2.35,5.88,5.88,0,0,1-.51,2.72c-.44.87-1,1.29-1.64,1.26a1.82,1.82,0,0,1-1.6-1.17A5.46,5.46,0,0,1,222.41,71.68Zm1.26,0a5.37,5.37,0,0,0,.19,1.5c.13.44.31.69.56.75s.61-.09.8-.56a5,5,0,0,0,.24-1.36,6.06,6.06,0,0,0-.14-1.74c-.13-.5-.33-.78-.61-.84s-.61.16-.8.66A4.59,4.59,0,0,0,223.67,71.68Z"/><path class="cls-39" d="M228.64,68.07h1.22v4.27a3,3,0,0,0,.19,1.21c.12.29.28.39.47.33s.33-.14.42-.42a2.72,2.72,0,0,0,.19-1.12V68.07h1.22v7.22h-1.22v-.42q-.19.51-1,.51a1.25,1.25,0,0,1-1.07-.61,2.93,2.93,0,0,1-.43-1.73Z"/><path class="cls-39" d="M234.6,73.09a.71.71,0,0,1,.56.51,1.39,1.39,0,0,1,0,1.13l-.66,1.64-.56-.61.23-.66a1.21,1.21,0,0,1-.37-1.22C233.89,73.29,234.16,73,234.6,73.09Z"/><path class="cls-39" d="M246.22,75.29V65.68h1.17v3a1.29,1.29,0,0,1,.89-.61,1.42,1.42,0,0,1,1.18.42c.68.69,1,1.91.93,3.66a5.14,5.14,0,0,1-.61,2.44,1.37,1.37,0,0,1-1.21.79,1.32,1.32,0,0,1-1.18-.56v.47ZM248.1,74c.31.1.56-.09.75-.56a5,5,0,0,0,.28-1.45,6.4,6.4,0,0,0-.19-1.69c-.12-.47-.31-.73-.56-.8s-.52.08-.71.52a4.86,4.86,0,0,0-.28,1.73,5.86,5.86,0,0,0,.14,1.36C247.66,73.66,247.85,74,248.1,74Z"/><path class="cls-39" d="M252.64,68.07h1.22v4.27a3,3,0,0,0,.19,1.21c.12.29.28.39.47.33s.33-.14.42-.42a2.72,2.72,0,0,0,.19-1.12V68.07h1.22v7.22h-1.22v-.42q-.19.51-1,.51a1.25,1.25,0,0,1-1.07-.61,2.93,2.93,0,0,1-.43-1.73Z"/><path class="cls-39" d="M259.07,68.26h.6V66h1.13v2.25h.8v1.4h-.8v3.66c0,.37.09.56.28.56h.56v1.41h-.79a1,1,0,0,1-.89-.38,2.59,2.59,0,0,1-.29-1.4V69.66h-.6Z"/><path class="cls-39" d="M271.77,68.07l.7,3.42.7-3.42h1.36l-1.45,6.66a4.58,4.58,0,0,1-.42,1.26.84.84,0,0,1-.75.56h-1v-1.5h.56a1.31,1.31,0,0,0,.28-.09.73.73,0,0,0,.14-.37l-1.45-6.52Z"/><path class="cls-39" d="M276.41,71.68a5.44,5.44,0,0,1,.42-2.25c.38-.88.89-1.34,1.55-1.41a1.76,1.76,0,0,1,1.73,1,5,5,0,0,1,.61,2.35,5.88,5.88,0,0,1-.51,2.72c-.44.87-1,1.29-1.64,1.26a1.82,1.82,0,0,1-1.6-1.17A5.46,5.46,0,0,1,276.41,71.68Zm1.26,0a5.37,5.37,0,0,0,.19,1.5c.13.44.31.69.56.75s.61-.09.8-.56a5,5,0,0,0,.24-1.36,6.06,6.06,0,0,0-.14-1.74c-.13-.5-.33-.78-.61-.84s-.61.16-.8.66A4.59,4.59,0,0,0,277.67,71.68Z"/><path class="cls-39" d="M282.64,68.07h1.22v4.27a3,3,0,0,0,.19,1.21c.12.29.28.39.47.33s.33-.14.42-.42a2.72,2.72,0,0,0,.19-1.12V68.07h1.22v7.22h-1.22v-.42q-.19.51-1,.51a1.25,1.25,0,0,1-1.07-.61,2.93,2.93,0,0,1-.43-1.73Z"/><path class="cls-39" d="M295.67,70.41H294.5a3.77,3.77,0,0,1,.47-1.82,1.58,1.58,0,0,1,1.41-.61,1.51,1.51,0,0,1,1.36.56,3.32,3.32,0,0,1,.47,1.92v3a11,11,0,0,0,.18,1.88h-1.22l-.09-.47a1.37,1.37,0,0,1-1.78.42c-.69-.28-1-.95-1-2a2.27,2.27,0,0,1,.42-1.46,2.09,2.09,0,0,1,1-.65,6.33,6.33,0,0,1,.61-.24,1.6,1.6,0,0,0,.43-.19.68.68,0,0,0,.23-.7c-.06-.34-.2-.55-.42-.61a.55.55,0,0,0-.52.1Q295.78,69.61,295.67,70.41ZM297,71.73s-.28.17-.75.42a1.33,1.33,0,0,0-.75,1.22c0,.53.18.76.56.7a1.08,1.08,0,0,0,.7-.61,1.85,1.85,0,0,0,.24-.94Z"/><path class="cls-39" d="M301.53,68.07h1.18v.56c.15-.37.59-.56,1.31-.56v1.5h-.28A.84.84,0,0,0,303,70a2.47,2.47,0,0,0-.32,1.31v3.94h-1.18Z"/><path class="cls-39" d="M310.58,72.24h-3.05a3.94,3.94,0,0,0,.24,1.13.85.85,0,0,0,.47.56.48.48,0,0,0,.51-.14,1.15,1.15,0,0,0,.38-.66h1.36c-.35,1.5-1.05,2.25-2.11,2.25a1.82,1.82,0,0,1-1.6-1,5.22,5.22,0,0,1-.56-2.58,5.67,5.67,0,0,1,.52-2.58A1.92,1.92,0,0,1,308.19,68a1.75,1.75,0,0,1,1.69.94,5.21,5.21,0,0,1,.7,2.81Zm-3.05-1.36h1.69c0-.84-.26-1.34-.7-1.5q-.37-.13-.66.33A2.65,2.65,0,0,0,307.53,70.88Z"/><path class="cls-39" d="M319.07,68.26h.6V66h1.13v2.25h.8v1.4h-.8v3.66c0,.37.09.56.28.56h.56v1.41h-.79a1,1,0,0,1-.89-.38,2.59,2.59,0,0,1-.29-1.4V69.66h-.6Z"/><path class="cls-39" d="M324.41,71.68a5.44,5.44,0,0,1,.42-2.25c.38-.88.89-1.34,1.55-1.41a1.76,1.76,0,0,1,1.73,1,5,5,0,0,1,.61,2.35,5.88,5.88,0,0,1-.51,2.72c-.44.87-1,1.29-1.64,1.26a1.82,1.82,0,0,1-1.6-1.17A5.46,5.46,0,0,1,324.41,71.68Zm1.26,0a5.37,5.37,0,0,0,.19,1.5c.13.44.31.69.56.75s.61-.09.8-.56a5,5,0,0,0,.24-1.36,6.06,6.06,0,0,0-.14-1.74c-.13-.5-.33-.78-.61-.84s-.61.16-.8.66A4.59,4.59,0,0,0,325.67,71.68Z"/><path class="cls-39" d="M330.41,71.68a5.44,5.44,0,0,1,.42-2.25c.38-.88.89-1.34,1.55-1.41a1.76,1.76,0,0,1,1.73,1,5,5,0,0,1,.61,2.35,5.88,5.88,0,0,1-.51,2.72c-.44.87-1,1.29-1.64,1.26a1.82,1.82,0,0,1-1.6-1.17A5.46,5.46,0,0,1,330.41,71.68Zm1.26,0a5.37,5.37,0,0,0,.19,1.5c.13.44.31.69.56.75s.61-.09.8-.56a5,5,0,0,0,.24-1.36,6.06,6.06,0,0,0-.14-1.74c-.13-.5-.33-.78-.61-.84s-.61.16-.8.66A4.59,4.59,0,0,0,331.67,71.68Z"/><path class="cls-39" d="M343.11,68.3h.61v-.61c0-1.34.49-2,1.45-2h.52v1.41h-.52c-.06,0-.14.07-.23.23a.84.84,0,0,0-.09.37v.61h.84v1.41h-.84v5.58h-1.13V69.71h-.61Z"/><path class="cls-39" d="M349.67,70.41H348.5a3.77,3.77,0,0,1,.47-1.82,1.58,1.58,0,0,1,1.41-.61,1.51,1.51,0,0,1,1.36.56,3.32,3.32,0,0,1,.47,1.92v3a11,11,0,0,0,.18,1.88h-1.22l-.09-.47a1.37,1.37,0,0,1-1.78.42c-.69-.28-1-.95-1-2a2.27,2.27,0,0,1,.42-1.46,2.09,2.09,0,0,1,1-.65,6.33,6.33,0,0,1,.61-.24,1.6,1.6,0,0,0,.43-.19.68.68,0,0,0,.23-.7c-.06-.34-.2-.55-.42-.61a.55.55,0,0,0-.52.1Q349.78,69.61,349.67,70.41ZM351,71.73s-.28.17-.75.42a1.33,1.33,0,0,0-.75,1.22c0,.53.18.76.56.7a1.08,1.08,0,0,0,.7-.61,1.85,1.85,0,0,0,.24-.94Z"/><path class="cls-39" d="M355.53,68.07h1.18v.56c.15-.37.59-.56,1.31-.56v1.5h-.28A.84.84,0,0,0,357,70a2.47,2.47,0,0,0-.32,1.31v3.94h-1.18Z"/><path class="cls-39" d="M367.67,70.41H366.5a3.77,3.77,0,0,1,.47-1.82,1.58,1.58,0,0,1,1.41-.61,1.51,1.51,0,0,1,1.36.56,3.32,3.32,0,0,1,.47,1.92v3a11,11,0,0,0,.18,1.88h-1.22l-.09-.47a1.37,1.37,0,0,1-1.78.42c-.69-.28-1-.95-1-2a2.27,2.27,0,0,1,.42-1.46,2.09,2.09,0,0,1,1-.65,6.33,6.33,0,0,1,.61-.24,1.6,1.6,0,0,0,.43-.19.68.68,0,0,0,.23-.7c-.06-.34-.2-.55-.42-.61a.55.55,0,0,0-.52.1Q367.78,69.61,367.67,70.41ZM369,71.73s-.28.17-.75.42a1.33,1.33,0,0,0-.75,1.22c0,.53.18.76.56.7a1.08,1.08,0,0,0,.7-.61,1.85,1.85,0,0,0,.24-.94Z"/><path class="cls-39" d="M371.61,68.07h1.22l.61,3.8.56-3.8h1l.66,3.8.52-3.8h1.26l-1.17,7.22h-1.13l-.65-3.85-.61,3.85h-1.13Z"/><path class="cls-39" d="M379.67,70.41H378.5a3.77,3.77,0,0,1,.47-1.82,1.58,1.58,0,0,1,1.41-.61,1.51,1.51,0,0,1,1.36.56,3.32,3.32,0,0,1,.47,1.92v3a11,11,0,0,0,.18,1.88h-1.22l-.09-.47a1.37,1.37,0,0,1-1.78.42c-.69-.28-1-.95-1-2a2.27,2.27,0,0,1,.42-1.46,2.09,2.09,0,0,1,1-.65,6.33,6.33,0,0,1,.61-.24,1.6,1.6,0,0,0,.43-.19.68.68,0,0,0,.23-.7c-.06-.34-.2-.55-.42-.61a.55.55,0,0,0-.52.1Q379.78,69.61,379.67,70.41ZM381,71.73s-.28.17-.75.42a1.33,1.33,0,0,0-.75,1.22c0,.53.18.76.56.7a1.08,1.08,0,0,0,.7-.61,1.85,1.85,0,0,0,.24-.94Z"/><path class="cls-39" d="M385.77,68.07l.7,3.42.7-3.42h1.36l-1.45,6.66a4.58,4.58,0,0,1-.42,1.26.84.84,0,0,1-.75.56h-1v-1.5h.56a1.31,1.31,0,0,0,.28-.09.73.73,0,0,0,.14-.37l-1.45-6.52Z"/><path class="cls-39" d="M397.07,68.26h.6V66h1.13v2.25h.8v1.4h-.8v3.66c0,.37.09.56.28.56h.56v1.41h-.79a1,1,0,0,1-.89-.38,2.59,2.59,0,0,1-.29-1.4V69.66h-.6Z"/><path class="cls-39" d="M402.41,71.68a5.44,5.44,0,0,1,.42-2.25c.38-.88.89-1.34,1.55-1.41a1.76,1.76,0,0,1,1.73,1,5,5,0,0,1,.61,2.35,5.88,5.88,0,0,1-.51,2.72c-.44.87-1,1.29-1.64,1.26a1.82,1.82,0,0,1-1.6-1.17A5.46,5.46,0,0,1,402.41,71.68Zm1.26,0a5.37,5.37,0,0,0,.19,1.5c.13.44.31.69.56.75s.61-.09.8-.56a5,5,0,0,0,.24-1.36,6.06,6.06,0,0,0-.14-1.74c-.13-.5-.33-.78-.61-.84s-.61.16-.8.66A4.59,4.59,0,0,0,403.67,71.68Z"/><path class="cls-39" d="M414.46,75.29V65.68h1.21v2.86a.78.78,0,0,1,.38-.38,1.47,1.47,0,0,1,.8-.14c1,.1,1.5,1.14,1.5,3.14v4.13h-1.18V71.16a2.38,2.38,0,0,0-.23-1.17.68.68,0,0,0-.52-.42.54.54,0,0,0-.46.33,2.4,2.4,0,0,0-.29,1.26v4.13Z"/><path class="cls-39" d="M424.58,72.24h-3.05a3.94,3.94,0,0,0,.24,1.13.85.85,0,0,0,.47.56.48.48,0,0,0,.51-.14,1.15,1.15,0,0,0,.38-.66h1.36c-.35,1.5-1.05,2.25-2.11,2.25a1.82,1.82,0,0,1-1.6-1,5.22,5.22,0,0,1-.56-2.58,5.67,5.67,0,0,1,.52-2.58A1.92,1.92,0,0,1,422.19,68a1.75,1.75,0,0,1,1.69.94,5.21,5.21,0,0,1,.7,2.81Zm-3.05-1.36h1.69c0-.84-.26-1.34-.7-1.5q-.37-.13-.66.33A2.65,2.65,0,0,0,421.53,70.88Z"/><path class="cls-39" d="M427.67,70.41H426.5a3.77,3.77,0,0,1,.47-1.82,1.58,1.58,0,0,1,1.41-.61,1.51,1.51,0,0,1,1.36.56,3.32,3.32,0,0,1,.47,1.92v3a11,11,0,0,0,.18,1.88h-1.22l-.09-.47a1.37,1.37,0,0,1-1.78.42c-.69-.28-1-.95-1-2a2.27,2.27,0,0,1,.42-1.46,2.09,2.09,0,0,1,1-.65,6.33,6.33,0,0,1,.61-.24,1.6,1.6,0,0,0,.43-.19.68.68,0,0,0,.23-.7c-.06-.34-.2-.55-.42-.61a.55.55,0,0,0-.52.1Q427.78,69.61,427.67,70.41ZM429,71.73s-.28.17-.75.42a1.33,1.33,0,0,0-.75,1.22c0,.53.18.76.56.7a1.08,1.08,0,0,0,.7-.61,1.85,1.85,0,0,0,.24-.94Z"/><path class="cls-39" d="M433.53,68.07h1.18v.56c.15-.37.59-.56,1.31-.56v1.5h-.28A.84.84,0,0,0,435,70a2.47,2.47,0,0,0-.32,1.31v3.94h-1.18Z"/><path class="cls-39" d="M439.25,74.26a.77.77,0,0,1,0,1.12.83.83,0,0,1-.61.28.84.84,0,0,1-.61-.28.8.8,0,0,1,0-1.12.84.84,0,0,1,.61-.28A.83.83,0,0,1,439.25,74.26Z"/></g></g></svg>